AnekTamil-CondensedExtraBold.ufo
<glyph name="VowelIi.tm" format="2">
  <advance width="1300"/>
  <unicode hex="0B88"/>
  <note>
vowelIi.tm
</note>
  <outline>
    <contour>
      <point x="726" y="0" type="line"/>
      <point x="1020" y="0" type="line"/>
      <point x="1020" y="1121" type="line"/>
      <point x="726" y="1121" type="line"/>
    </contour>
    <contour>
      <point x="448" y="348" type="line"/>
      <point x="502" y="348" type="line" smooth="yes"/>
      <point x="640" y="348"/>
      <point x="676" y="412"/>
      <point x="676" y="550" type="curve" smooth="yes"/>
      <point x="676" y="570" type="line" smooth="yes"/>
      <point x="676" y="707"/>
      <point x="640" y="771"/>
      <point x="502" y="771" type="curve" smooth="yes"/>
      <point x="448" y="771" type="line"/>
    </contour>
    <contour>
      <point x="1082" y="348" type="line"/>
      <point x="1135" y="348" type="line" smooth="yes"/>
      <point x="1273" y="348"/>
      <point x="1310" y="412"/>
      <point x="1310" y="550" type="curve" smooth="yes"/>
      <point x="1310" y="570" type="line" smooth="yes"/>
      <point x="1310" y="707"/>
      <point x="1273" y="771"/>
      <point x="1135" y="771" type="curve" smooth="yes"/>
      <point x="1082" y="771" type="line"/>
    </contour>
    <contour>
      <point x="1042" y="1189" type="line"/>
      <point x="92" y="1189" type="line"/>
      <point x="92" y="0" type="line"/>
      <point x="386" y="0" type="line"/>
      <point x="386" y="935" type="line"/>
      <point x="1042" y="935" type="line"/>
    </contour>
    <component base="RaBeak_Nonexporting" xOffset="698"/>
  </outline>
</glyph>
<glyph name="VowelU.tm" format="2">
  <advance width="1194"/>
  <unicode hex="0B89"/>
  <note>
vowelU.tm
</note>
  <outline>
    <contour>
      <point x="615" y="1301" type="curve" smooth="yes"/>
      <point x="269" y="1301"/>
      <point x="70" y="1104"/>
      <point x="70" y="742" type="curve" smooth="yes"/>
      <point x="70" y="682" type="line" smooth="yes"/>
      <point x="70" y="473"/>
      <point x="155" y="359"/>
      <point x="403" y="359" type="curve"/>
      <point x="677" y="476" type="line"/>
      <point x="723" y="510"/>
      <point x="734" y="573"/>
      <point x="734" y="645" type="curve" smooth="yes"/>
      <point x="734" y="719" type="line" smooth="yes"/>
      <point x="734" y="900"/>
      <point x="681" y="995"/>
      <point x="535" y="995" type="curve" smooth="yes"/>
      <point x="420" y="995"/>
      <point x="358" y="923"/>
      <point x="344" y="839" type="curve"/>
      <point x="328" y="839" type="line"/>
      <point x="342" y="718" type="line"/>
      <point x="346" y="758"/>
      <point x="370" y="782"/>
      <point x="403" y="782" type="curve" smooth="yes"/>
      <point x="442" y="782"/>
      <point x="454" y="756"/>
      <point x="454" y="701" type="curve" smooth="yes"/>
      <point x="454" y="580" type="line" smooth="yes"/>
      <point x="454" y="522"/>
      <point x="443" y="490"/>
      <point x="403" y="490" type="curve" smooth="yes"/>
      <point x="362" y="490"/>
      <point x="350" y="522"/>
      <point x="350" y="580" type="curve" smooth="yes"/>
      <point x="350" y="839" type="line"/>
      <point x="335" y="839" type="line"/>
      <point x="344" y="975"/>
      <point x="429" y="1067"/>
      <point x="598" y="1067" type="curve" smooth="yes"/>
      <point x="767" y="1067"/>
      <point x="848" y="975"/>
      <point x="848" y="815" type="curve" smooth="yes"/>
      <point x="848" y="721" type="line" smooth="yes"/>
      <point x="848" y="558"/>
      <point x="815" y="494"/>
      <point x="705" y="482" type="curve"/>
      <point x="471" y="438" type="line"/>
      <point x="243" y="434" type="line"/>
      <point x="127" y="414"/>
      <point x="77" y="361"/>
      <point x="77" y="236" type="curve" smooth="yes"/>
      <point x="77" y="164"/>
      <point x="90" y="85"/>
      <point x="110" y="0" type="curve"/>
      <point x="1170" y="0" type="line"/>
      <point x="1194" y="224" type="line"/>
      <point x="350" y="224" type="line"/>
      <point x="348" y="236"/>
      <point x="348" y="241"/>
      <point x="348" y="245" type="curve" smooth="yes"/>
      <point x="348" y="263"/>
      <point x="355" y="269"/>
      <point x="374" y="270" type="curve" smooth="yes"/>
      <point x="712" y="294" type="line" smooth="yes"/>
      <point x="1027" y="316"/>
      <point x="1128" y="443"/>
      <point x="1128" y="719" type="curve" smooth="yes"/>
      <point x="1128" y="791" type="line" smooth="yes"/>
      <point x="1128" y="1111"/>
      <point x="964" y="1301"/>
    </contour>
  </outline>
</glyph>
<glyph name="VowelEe.tm" format="2">
  <advance width="1282"/>
  <unicode hex="0B8F"/>
  <note>
vowelEe.tm
</note>
  <outline>
    <contour>
      <point x="857" y="1121" type="line"/>
      <point x="857" y="-72" type="line"/>
      <point x="493" y="-131" type="line"/>
      <point x="493" y="-374" type="line"/>
      <point x="1152" y="-289" type="line"/>
      <point x="1152" y="1121" type="line"/>
    </contour>
    <contour>
      <point x="670" y="935" type="line"/>
      <point x="1296" y="935" type="line"/>
      <point x="1275" y="1189" type="line"/>
      <point x="670" y="1189" type="line"/>
    </contour>
    <component base="VowelE_NonExporting"/>
  </outline>
</glyph>
<glyph name="Ja.tm" format="2">
  <advance width="1649"/>
  <unicode hex="0B9C"/>
  <note>
Ja.tm
</note>
  <guideline x="1960" y="-89" angle="0"/>
  <guideline x="1835" y="-649" angle="0"/>
  <anchor x="954" y="1249" name="top"/>
  <outline>
    <contour>
      <point x="573" y="1233" type="curve" smooth="yes"/>
      <point x="256" y="1233"/>
      <point x="72" y="1045"/>
      <point x="72" y="701" type="curve" smooth="yes"/>
      <point x="72" y="443" type="line" smooth="yes"/>
      <point x="72" y="254"/>
      <point x="172" y="136"/>
      <point x="391" y="136" type="curve"/>
      <point x="660" y="292" type="line"/>
      <point x="716" y="323"/>
      <point x="738" y="384"/>
      <point x="738" y="471" type="curve" smooth="yes"/>
      <point x="738" y="623" type="line" smooth="yes"/>
      <point x="738" y="809"/>
      <point x="684" y="906"/>
      <point x="538" y="906" type="curve" smooth="yes"/>
      <point x="425" y="906"/>
      <point x="363" y="831"/>
      <point x="350" y="743" type="curve"/>
      <point x="331" y="743" type="line"/>
      <point x="345" y="619" type="line"/>
      <point x="350" y="660"/>
      <point x="379" y="686"/>
      <point x="411" y="686" type="curve" smooth="yes"/>
      <point x="454" y="686"/>
      <point x="466" y="658"/>
      <point x="466" y="603" type="curve" smooth="yes"/>
      <point x="466" y="392" type="line" smooth="yes"/>
      <point x="466" y="333"/>
      <point x="455" y="302"/>
      <point x="410" y="302" type="curve" smooth="yes"/>
      <point x="364" y="302"/>
      <point x="352" y="333"/>
      <point x="352" y="392" type="curve"/>
      <point x="352" y="743" type="line"/>
      <point x="339" y="743" type="line"/>
      <point x="339" y="891"/>
      <point x="429" y="990"/>
      <point x="598" y="990" type="curve" smooth="yes"/>
      <point x="786" y="990"/>
      <point x="847" y="885"/>
      <point x="847" y="690" type="curve" smooth="yes"/>
      <point x="847" y="460" type="line"/>
      <point x="1130" y="460" type="line"/>
      <point x="1130" y="839" type="line" smooth="yes"/>
      <point x="1130" y="935"/>
      <point x="1158" y="968"/>
      <point x="1217" y="968" type="curve" smooth="yes"/>
      <point x="1266" y="968"/>
      <point x="1292" y="935"/>
      <point x="1292" y="839" type="curve"/>
      <point x="1292" y="701" type="line" smooth="yes"/>
      <point x="1292" y="482"/>
      <point x="1233" y="415"/>
      <point x="1071" y="396" type="curve" smooth="yes"/>
      <point x="501" y="329" type="line"/>
      <point x="321" y="232" type="line"/>
      <point x="199" y="201"/>
      <point x="127" y="96"/>
      <point x="127" y="-63" type="curve" smooth="yes"/>
      <point x="127" y="-79" type="line" smooth="yes"/>
      <point x="127" y="-313"/>
      <point x="258" y="-447"/>
      <point x="521" y="-447" type="curve" smooth="yes"/>
      <point x="738" y="-447"/>
      <point x="848" y="-360"/>
      <point x="968" y="-145" type="curve" smooth="yes"/>
      <point x="1044" y="-9" type="line" smooth="yes"/>
      <point x="1116" y="120"/>
      <point x="1145" y="151"/>
      <point x="1200" y="151" type="curve" smooth="yes"/>
      <point x="1257" y="151"/>
      <point x="1281" y="112"/>
      <point x="1281" y="37" type="curve" smooth="yes"/>
      <point x="1281" y="-55" type="line" smooth="yes"/>
      <point x="1281" y="-149"/>
      <point x="1248" y="-199"/>
      <point x="1158" y="-199" type="curve" smooth="yes"/>
      <point x="1101" y="-199"/>
      <point x="1055" y="-186"/>
      <point x="1003" y="-166" type="curve"/>
      <point x="1046" y="-421" type="line"/>
      <point x="1101" y="-442"/>
      <point x="1173" y="-447"/>
      <point x="1235" y="-447" type="curve" smooth="yes"/>
      <point x="1467" y="-447"/>
      <point x="1566" y="-316"/>
      <point x="1566" y="-55" type="curve" smooth="yes"/>
      <point x="1566" y="7" type="line" smooth="yes"/>
      <point x="1566" y="166"/>
      <point x="1511" y="280"/>
      <point x="1329" y="296" type="curve"/>
      <point x="1191" y="331" type="line"/>
      <point x="992" y="331"/>
      <point x="889" y="239"/>
      <point x="782" y="70" type="curve" smooth="yes"/>
      <point x="690" y="-75" type="line" smooth="yes"/>
      <point x="636" y="-160"/>
      <point x="606" y="-201"/>
      <point x="529" y="-201" type="curve" smooth="yes"/>
      <point x="442" y="-201"/>
      <point x="413" y="-149"/>
      <point x="413" y="-70" type="curve" smooth="yes"/>
      <point x="413" y="-52" type="line" smooth="yes"/>
      <point x="413" y="40"/>
      <point x="460" y="92"/>
      <point x="565" y="101" type="curve" smooth="yes"/>
      <point x="1081" y="147" type="line" smooth="yes"/>
      <point x="1461" y="181"/>
      <point x="1577" y="296"/>
      <point x="1577" y="703" type="curve" smooth="yes"/>
      <point x="1577" y="813" type="line"/>
      <point x="1577" y="1095"/>
      <point x="1491" y="1224"/>
      <point x="1281" y="1224" type="curve" smooth="yes"/>
      <point x="1088" y="1224"/>
      <point x="1000" y="1119"/>
      <point x="978" y="942" type="curve"/>
      <point x="970" y="942" type="line"/>
      <point x="937" y="1106"/>
      <point x="823" y="1233"/>
    </contour>
  </outline>
</glyph>
<glyph name="Nya.tm" format="2">
  <advance width="2131"/>
  <unicode hex="0B9E"/>
  <note>
Nya.tm
</note>
  <anchor x="1077" y="1249" name="top"/>
  <outline>
    <contour>
      <point x="1313" y="1121" type="line"/>
      <point x="1313" y="0" type="line"/>
      <point x="1608" y="0" type="line"/>
      <point x="1608" y="1121" type="line"/>
    </contour>
    <contour>
      <point x="1825" y="817" type="curve" smooth="yes"/>
      <point x="1700" y="817"/>
      <point x="1632" y="738"/>
      <point x="1617" y="633" type="curve"/>
      <point x="1579" y="633" type="line"/>
      <point x="1579" y="466" type="line"/>
      <point x="1599" y="466" type="line"/>
      <point x="1604" y="526"/>
      <point x="1641" y="567"/>
      <point x="1687" y="567" type="curve" smooth="yes"/>
      <point x="1744" y="567"/>
      <point x="1763" y="528"/>
      <point x="1763" y="427" type="curve" smooth="yes"/>
      <point x="1763" y="355" type="line" smooth="yes"/>
      <point x="1763" y="-57"/>
      <point x="1619" y="-254"/>
      <point x="1130" y="-254" type="curve" smooth="yes"/>
      <point x="1119" y="-254" type="line" smooth="yes"/>
      <point x="555" y="-254"/>
      <point x="381" y="-20"/>
      <point x="381" y="469" type="curve" smooth="yes"/>
      <point x="381" y="1189" type="line"/>
      <point x="86" y="1189" type="line"/>
      <point x="86" y="458" type="line" smooth="yes"/>
      <point x="86" y="-191"/>
      <point x="381" y="-519"/>
      <point x="1119" y="-519" type="curve" smooth="yes"/>
      <point x="1130" y="-519" type="line" smooth="yes"/>
      <point x="1801" y="-519"/>
      <point x="2057" y="-230"/>
      <point x="2057" y="344" type="curve" smooth="yes"/>
      <point x="2057" y="467" type="line" smooth="yes"/>
      <point x="2057" y="699"/>
      <point x="1996" y="817"/>
    </contour>
    <contour>
      <point x="1672" y="1189" type="line"/>
      <point x="1196" y="1189" type="line"/>
      <point x="1196" y="935" type="line"/>
      <point x="1672" y="935" type="line"/>
    </contour>
    <component base="VowelE_NonExporting" xOffset="460"/>
    <component base="RaBeak_Nonexporting" xOffset="1390"/>
  </outline>
</glyph>
<glyph name="Ra.tm" format="2">
  <advance width="964"/>
  <unicode hex="0BB0"/>
  <note>
Ra.tm
</note>
  <anchor x="463" y="1249" name="top"/>
  <outline>
    <contour>
      <point x="834" y="1121" type="line"/>
      <point x="539" y="1121" type="line"/>
      <point x="539" y="-72" type="line"/>
      <point x="41" y="-131" type="line"/>
      <point x="41" y="-370" type="line"/>
      <point x="834" y="-285" type="line"/>
    </contour>
    <contour>
      <point x="776" y="1189" type="line"/>
      <point x="92" y="1189" type="line"/>
      <point x="92" y="0" type="line"/>
      <point x="387" y="0" type="line"/>
      <point x="387" y="935" type="line"/>
      <point x="776" y="935" type="line"/>
    </contour>
    <component base="RaBeak_Nonexporting" xOffset="444"/>
  </outline>
</glyph>
<glyph name="Rra.tm" format="2">
  <advance width="1371"/>
  <unicode hex="0BB1"/>
  <note>
Rra.tm
</note>
  <anchor x="698" y="1249" name="top"/>
  <outline>
    <contour>
      <point x="420" y="1224" type="curve" smooth="yes"/>
      <point x="205" y="1224"/>
      <point x="88" y="1110"/>
      <point x="88" y="841" type="curve" smooth="yes"/>
      <point x="88" y="0" type="line"/>
      <point x="383" y="0" type="line"/>
      <point x="383" y="857" type="line" smooth="yes"/>
      <point x="383" y="935"/>
      <point x="410" y="966"/>
      <point x="460" y="966" type="curve" smooth="yes"/>
      <point x="514" y="966"/>
      <point x="533" y="935"/>
      <point x="533" y="857" type="curve" smooth="yes"/>
      <point x="533" y="0" type="line"/>
      <point x="828" y="0" type="line"/>
      <point x="828" y="832" type="line" smooth="yes"/>
      <point x="828" y="933"/>
      <point x="857" y="966"/>
      <point x="920" y="966" type="curve" smooth="yes"/>
      <point x="977" y="966"/>
      <point x="1006" y="933"/>
      <point x="1006" y="832" type="curve" smooth="yes"/>
      <point x="1006" y="791" type="line" smooth="yes"/>
      <point x="1006" y="707"/>
      <point x="988" y="660"/>
      <point x="901" y="650" type="curve" smooth="yes"/>
      <point x="883" y="648" type="line"/>
      <point x="883" y="397" type="line"/>
      <point x="911" y="396" type="line" smooth="yes"/>
      <point x="992" y="393"/>
      <point x="1017" y="353"/>
      <point x="1017" y="245" type="curve" smooth="yes"/>
      <point x="1017" y="160" type="line" smooth="yes"/>
      <point x="1017" y="-59"/>
      <point x="960" y="-136"/>
      <point x="741" y="-136" type="curve" smooth="yes"/>
      <point x="-5" y="-136" type="line"/>
      <point x="26" y="-390" type="line"/>
      <point x="782" y="-390" type="line" smooth="yes"/>
      <point x="1203" y="-390"/>
      <point x="1307" y="-232"/>
      <point x="1307" y="144" type="curve" smooth="yes"/>
      <point x="1307" y="234" type="line" smooth="yes"/>
      <point x="1307" y="434"/>
      <point x="1259" y="521"/>
      <point x="1101" y="532" type="curve"/>
      <point x="1101" y="541" type="line"/>
      <point x="1253" y="550"/>
      <point x="1296" y="668"/>
      <point x="1296" y="828" type="curve" smooth="yes"/>
      <point x="1296" y="865" type="line" smooth="yes"/>
      <point x="1296" y="1111"/>
      <point x="1205" y="1224"/>
      <point x="990" y="1224" type="curve" smooth="yes"/>
      <point x="802" y="1224"/>
      <point x="714" y="1137"/>
      <point x="693" y="990" type="curve"/>
      <point x="684" y="990" type="line"/>
      <point x="668" y="1139"/>
      <point x="582" y="1224"/>
    </contour>
  </outline>
</glyph>
<glyph name="MatraAa.tm" format="2">
  <advance width="970"/>
  <unicode hex="0BBE"/>
  <note>
RaAltMatraAa.tm
</note>
  <outline>
    <contour>
      <point x="545" y="1121" type="line"/>
      <point x="545" y="0" type="line"/>
      <point x="840" y="0" type="line"/>
      <point x="840" y="1121" type="line"/>
    </contour>
    <contour>
      <point x="789" y="1189" type="line"/>
      <point x="92" y="1189" type="line"/>
      <point x="92" y="0" type="line"/>
      <point x="387" y="0" type="line"/>
      <point x="387" y="935" type="line"/>
      <point x="789" y="935" type="line"/>
    </contour>
    <component base="RaBeak_Nonexporting" xOffset="450"/>
  </outline>
</glyph>
<glyph name="MatraUuDflt.tm" format="2">
  <advance width="1319"/>
  <unicode hex="0BC2"/>
  <note>
MatraUuDflt.tm
</note>
  <outline>
    <contour>
      <point x="0" y="1189" type="line"/>
      <point x="0" y="938" type="line"/>
      <point x="460" y="937" type="line"/>
      <point x="539" y="937"/>
      <point x="565" y="900"/>
      <point x="565" y="832" type="curve" smooth="yes"/>
      <point x="565" y="613" type="line" smooth="yes"/>
      <point x="565" y="558"/>
      <point x="552" y="526"/>
      <point x="512" y="526" type="curve" smooth="yes"/>
      <point x="469" y="526"/>
      <point x="456" y="558"/>
      <point x="456" y="613" type="curve" smooth="yes"/>
      <point x="456" y="727"/>
      <point x="456" y="841"/>
      <point x="456" y="955" type="curve"/>
      <point x="184" y="955" type="line"/>
      <point x="184" y="839"/>
      <point x="184" y="721"/>
      <point x="184" y="605" type="curve" smooth="yes"/>
      <point x="184" y="410"/>
      <point x="283" y="298"/>
      <point x="512" y="298" type="curve" smooth="yes"/>
      <point x="742" y="298"/>
      <point x="837" y="418"/>
      <point x="837" y="622" type="curve" smooth="yes"/>
      <point x="837" y="800" type="line" smooth="yes"/>
      <point x="837" y="1051"/>
      <point x="732" y="1178"/>
      <point x="451" y="1178" type="curve" smooth="yes"/>
      <point x="431" y="1178" type="line"/>
      <point x="335" y="1189" type="line"/>
    </contour>
    <contour>
      <point x="719" y="1610" type="curve" smooth="yes"/>
      <point x="364" y="1610"/>
      <point x="195" y="1400"/>
      <point x="184" y="1067" type="curve"/>
      <point x="456" y="1056" type="line"/>
      <point x="453" y="1266"/>
      <point x="543" y="1363"/>
      <point x="716" y="1363" type="curve" smooth="yes"/>
      <point x="885" y="1363"/>
      <point x="957" y="1268"/>
      <point x="957" y="1045" type="curve" smooth="yes"/>
      <point x="957" y="280" type="line"/>
      <point x="1255" y="280" type="line"/>
      <point x="1255" y="1019" type="line" smooth="yes"/>
      <point x="1255" y="1389"/>
      <point x="1119" y="1610"/>
    </contour>
  </outline>
</glyph>
<glyph name="PulliDflt.tm" format="2">
  <unicode hex="0BCD"/>
  <note>
PulliDflt.tm
</note>
  <anchor x="145" y="1249" name="_top"/>
  <outline>
    <contour>
      <point x="291" y="1263" type="line"/>
      <point x="291" y="1350" type="line" smooth="yes"/>
      <point x="291" y="1490"/>
      <point x="252" y="1560"/>
      <point x="145" y="1560" type="curve" smooth="yes"/>
      <point x="39" y="1560"/>
      <point x="0" y="1490"/>
      <point x="0" y="1350" type="curve" smooth="yes"/>
      <point x="0" y="1263" type="line"/>
    </contour>
  </outline>
</glyph>
<glyph name="Zero.tm" format="2">
  <advance width="861"/>
  <unicode hex="0BE6"/>
  <note>
Zero.tm
</note>
  <outline>
    <contour>
      <point x="431" y="973" type="curve" smooth="yes"/>
      <point x="497" y="973"/>
      <point x="517" y="922"/>
      <point x="517" y="813" type="curve" smooth="yes"/>
      <point x="517" y="377" type="line" smooth="yes"/>
      <point x="517" y="274"/>
      <point x="497" y="224"/>
      <point x="431" y="224" type="curve" smooth="yes"/>
      <point x="364" y="224"/>
      <point x="344" y="274"/>
      <point x="344" y="377" type="curve" smooth="yes"/>
      <point x="344" y="813" type="line" smooth="yes"/>
      <point x="344" y="922"/>
      <point x="364" y="973"/>
    </contour>
    <contour>
      <point x="434" y="1224" type="curve" smooth="yes"/>
      <point x="169" y="1224"/>
      <point x="68" y="1080"/>
      <point x="68" y="786" type="curve"/>
      <point x="68" y="405" type="line" smooth="yes"/>
      <point x="68" y="116"/>
      <point x="169" y="-26"/>
      <point x="434" y="-26" type="curve" smooth="yes"/>
      <point x="694" y="-26"/>
      <point x="793" y="116"/>
      <point x="793" y="405" type="curve" smooth="yes"/>
      <point x="793" y="786" type="line"/>
      <point x="793" y="1080"/>
      <point x="694" y="1224"/>
    </contour>
  </outline>
</glyph>
<glyph name="Hundred.tm" format="2">
  <advance width="1401"/>
  <unicode hex="0BF1"/>
  <note>
Hundred.tm
</note>
  <outline>
    <contour>
      <point x="978" y="1121" type="line"/>
      <point x="978" y="0" type="line"/>
      <point x="1272" y="0" type="line"/>
      <point x="1272" y="1121" type="line"/>
    </contour>
    <contour>
      <point x="1171" y="1189" type="line"/>
      <point x="618" y="1189" type="line"/>
      <point x="618" y="1008" type="line"/>
      <point x="611" y="1008" type="line"/>
      <point x="594" y="1144"/>
      <point x="520" y="1224"/>
      <point x="370" y="1224" type="curve" smooth="yes"/>
      <point x="187" y="1224"/>
      <point x="88" y="1117"/>
      <point x="88" y="865" type="curve" smooth="yes"/>
      <point x="88" y="0" type="line"/>
      <point x="382" y="0" type="line"/>
      <point x="382" y="857" type="line" smooth="yes"/>
      <point x="382" y="935"/>
      <point x="408" y="966"/>
      <point x="456" y="966" type="curve" smooth="yes"/>
      <point x="508" y="966"/>
      <point x="526" y="935"/>
      <point x="526" y="857" type="curve" smooth="yes"/>
      <point x="526" y="0" type="line"/>
      <point x="820" y="0" type="line"/>
      <point x="820" y="935" type="line"/>
      <point x="1171" y="935" type="line"/>
    </contour>
    <component base="RaBeak_Nonexporting" xOffset="881"/>
  </outline>
</glyph>
<glyph name="DebitSign.tm" format="2">
  <advance width="1503"/>
  <unicode hex="0BF6"/>
  <note>
DebitSign.tm
</note>
  <anchor x="498" y="1249" name="top"/>
  <outline>
    <contour>
      <point x="1411" y="-136" type="line"/>
      <point x="18" y="-136" type="line"/>
      <point x="50" y="-390" type="line"/>
      <point x="1411" y="-390" type="line"/>
    </contour>
    <contour>
      <point x="1116" y="1189" type="line"/>
      <point x="1116" y="-206" type="line"/>
      <point x="1411" y="-206" type="line"/>
      <point x="1411" y="1189" type="line"/>
    </contour>
    <contour>
      <point x="619" y="177" type="line"/>
      <point x="619" y="-206" type="line"/>
      <point x="913" y="-206" type="line"/>
      <point x="913" y="177" type="line"/>
    </contour>
    <component base="Pa_dummy.tm"/>
  </outline>
</glyph>
<glyph name="foursuperior" format="2">
  <advance width="489"/>
  <unicode hex="2074"/>
  <outline>
    <contour>
      <point x="252" y="700" type="line"/>
      <point x="429" y="700" type="line"/>
      <point x="429" y="1384" type="line"/>
      <point x="129" y="1384" type="line"/>
      <point x="20" y="961" type="line"/>
      <point x="20" y="796" type="line"/>
      <point x="479" y="796" type="line"/>
      <point x="479" y="953" type="line"/>
      <point x="106" y="953" type="line"/>
      <point x="184" y="905" type="line"/>
      <point x="184" y="952" type="line"/>
      <point x="250" y="1241" type="line"/>
      <point x="261" y="1241" type="line"/>
      <point x="252" y="1024" type="line"/>
    </contour>
  </outline>
</glyph>
<glyph name="rupeeIndian" format="2">
  <advance width="718"/>
  <unicode hex="20B9"/>
  <outline>
    <contour>
      <point x="674" y="1278" type="line"/>
      <point x="686" y="1054" type="line"/>
      <point x="56" y="1054" type="line"/>
      <point x="44" y="1278" type="line"/>
    </contour>
    <contour>
      <point x="596" y="6" type="line"/>
      <point x="596" y="0" type="line"/>
      <point x="267" y="0" type="line"/>
      <point x="133" y="366" type="line"/>
      <point x="49" y="386" type="line"/>
      <point x="49" y="626" type="line"/>
      <point x="282" y="557" type="line"/>
      <point x="296" y="499" type="line"/>
      <point x="398" y="415"/>
      <point x="449" y="340"/>
      <point x="514" y="193" type="curve" smooth="yes"/>
    </contour>
    <contour>
      <point x="238" y="1092" type="curve"/>
      <point x="534" y="1092" type="line"/>
      <point x="575" y="1030"/>
      <point x="586" y="951"/>
      <point x="586" y="844" type="curve" smooth="yes"/>
      <point x="586" y="767" type="line" smooth="yes"/>
      <point x="586" y="514"/>
      <point x="473" y="394"/>
      <point x="242" y="382" type="curve" smooth="yes"/>
      <point x="184" y="379" type="line"/>
      <point x="49" y="626" type="line"/>
      <point x="128" y="626" type="line" smooth="yes"/>
      <point x="256" y="626"/>
      <point x="284" y="677"/>
      <point x="284" y="787" type="curve" smooth="yes"/>
      <point x="284" y="886" type="line" smooth="yes"/>
      <point x="284" y="976"/>
      <point x="273" y="1037"/>
    </contour>
    <contour>
      <point x="674" y="955" type="line"/>
      <point x="686" y="741" type="line"/>
      <point x="56" y="741" type="line"/>
      <point x="44" y="955" type="line"/>
    </contour>
  </outline>
</glyph>
<glyph name="AsAboveSign_Simple.tm" format="2">
  <advance width="3281"/>
  <note>
AsAboveSign.tm
</note>
  <outline>
    <contour>
      <point x="74" y="673" type="curve" smooth="yes"/>
      <point x="74" y="519" type="line" smooth="yes"/>
      <point x="74" y="188"/>
      <point x="243" y="-18"/>
      <point x="646" y="-18" type="curve" smooth="yes"/>
      <point x="992" y="-18"/>
      <point x="1121" y="129"/>
      <point x="1121" y="362" type="curve" smooth="yes"/>
      <point x="1121" y="528" type="line" smooth="yes"/>
      <point x="1121" y="753"/>
      <point x="1021" y="885"/>
      <point x="786" y="885" type="curve" smooth="yes"/>
      <point x="556" y="885"/>
      <point x="453" y="753"/>
      <point x="453" y="528" type="curve" smooth="yes"/>
      <point x="453" y="475" type="line" smooth="yes"/>
      <point x="453" y="347"/>
      <point x="489" y="260"/>
      <point x="613" y="219" type="curve"/>
      <point x="613" y="208" type="line"/>
      <point x="758" y="208" type="line"/>
      <point x="732" y="239"/>
      <point x="725" y="278"/>
      <point x="725" y="331" type="curve" smooth="yes"/>
      <point x="725" y="556" type="line" smooth="yes"/>
      <point x="725" y="609"/>
      <point x="738" y="638"/>
      <point x="782" y="638" type="curve" smooth="yes"/>
      <point x="826" y="638"/>
      <point x="837" y="609"/>
      <point x="837" y="556" type="curve" smooth="yes"/>
      <point x="837" y="351" type="line" smooth="yes"/>
      <point x="837" y="261"/>
      <point x="811" y="213"/>
      <point x="714" y="213" type="curve" smooth="yes"/>
      <point x="695" y="213"/>
      <point x="678" y="214"/>
      <point x="661" y="216" type="curve"/>
      <point x="613" y="223" type="line"/>
      <point x="613" y="212" type="line"/>
      <point x="442" y="219"/>
      <point x="364" y="326"/>
      <point x="364" y="499" type="curve" smooth="yes"/>
      <point x="364" y="688" type="line" smooth="yes"/>
      <point x="364" y="1005"/>
      <point x="517" y="1161"/>
      <point x="824" y="1161" type="curve" smooth="yes"/>
      <point x="1133" y="1161"/>
      <point x="1268" y="1016"/>
      <point x="1268" y="723" type="curve"/>
      <point x="1472" y="960" type="line"/>
      <point x="1437" y="1249"/>
      <point x="1198" y="1426"/>
      <point x="822" y="1426" type="curve" smooth="yes"/>
      <point x="342" y="1426"/>
      <point x="74" y="1178"/>
    </contour>
    <contour>
      <point x="1206" y="602" type="curve" smooth="yes"/>
      <point x="1206" y="339" type="line" smooth="yes"/>
      <point x="1206" y="116"/>
      <point x="1315" y="-26"/>
      <point x="1550" y="-26" type="curve" smooth="yes"/>
      <point x="1790" y="-26"/>
      <point x="1893" y="112"/>
      <point x="1893" y="329" type="curve" smooth="yes"/>
      <point x="1893" y="519" type="line" smooth="yes"/>
      <point x="1893" y="714"/>
      <point x="1836" y="817"/>
      <point x="1690" y="817" type="curve" smooth="yes"/>
      <point x="1564" y="817"/>
      <point x="1498" y="726"/>
      <point x="1490" y="624" type="curve"/>
      <point x="1478" y="624" type="line"/>
      <point x="1484" y="499" type="line"/>
      <point x="1488" y="539"/>
      <point x="1516" y="567"/>
      <point x="1550" y="567" type="curve" smooth="yes"/>
      <point x="1595" y="567"/>
      <point x="1608" y="537"/>
      <point x="1608" y="475" type="curve" smooth="yes"/>
      <point x="1608" y="315" type="line" smooth="yes"/>
      <point x="1608" y="250"/>
      <point x="1596" y="217"/>
      <point x="1550" y="217" type="curve" smooth="yes"/>
      <point x="1504" y="217"/>
      <point x="1492" y="250"/>
      <point x="1492" y="315" type="curve"/>
      <point x="1492" y="624" type="line"/>
      <point x="1481" y="624" type="line"/>
      <point x="1481" y="629"/>
      <point x="1481" y="629"/>
      <point x="1481" y="635" type="curve" smooth="yes"/>
      <point x="1481" y="854"/>
      <point x="1566" y="959"/>
      <point x="1754" y="959" type="curve" smooth="yes"/>
      <point x="1939" y="959"/>
      <point x="2004" y="854"/>
      <point x="2004" y="624" type="curve" smooth="yes"/>
      <point x="2004" y="447" type="line" smooth="yes"/>
      <point x="2004" y="239"/>
      <point x="1982" y="138"/>
      <point x="1917" y="17" type="curve"/>
      <point x="1917" y="0" type="line"/>
      <point x="2375" y="0" type="line"/>
      <point x="2375" y="254" type="line"/>
      <point x="2234" y="254" type="line"/>
      <point x="2241" y="160" type="line"/>
      <point x="2285" y="232"/>
      <point x="2302" y="307"/>
      <point x="2302" y="453" type="curve" smooth="yes"/>
      <point x="2302" y="620" type="line" smooth="yes"/>
      <point x="2302" y="1012"/>
      <point x="2171" y="1224"/>
      <point x="1788" y="1224" type="curve" smooth="yes"/>
      <point x="1568" y="1224"/>
      <point x="1419" y="1132"/>
      <point x="1373" y="962" type="curve"/>
      <point x="1290" y="962" type="line"/>
      <point x="1228" y="887"/>
      <point x="1206" y="749"/>
    </contour>
    <component base="Ssa_Above_NonExporting" xOffset="2234"/>
    <component base="Ssa_Below_NonExporting" xOffset="2504"/>
  </outline>
</glyph>
<glyph name="CaMatraI.tm" format="2">
  <advance width="1447"/>
  <note>
CaMatraI.tm
</note>
  <outline>
    <contour>
      <point x="735" y="524" type="line"/>
      <point x="1011" y="524" type="line"/>
      <point x="984" y="771" type="line"/>
      <point x="735" y="771" type="line"/>
    </contour>
    <contour>
      <point x="931" y="1781" type="curve" smooth="yes"/>
      <point x="639" y="1781"/>
      <point x="505" y="1629"/>
      <point x="505" y="1350" type="curve" smooth="yes"/>
      <point x="505" y="1306" type="line" smooth="yes"/>
      <point x="505" y="1254"/>
      <point x="518" y="1204"/>
      <point x="551" y="1176" type="curve"/>
      <point x="821" y="1176" type="line"/>
      <point x="798" y="1204"/>
      <point x="791" y="1236"/>
      <point x="791" y="1299" type="curve"/>
      <point x="791" y="1335" type="line"/>
      <point x="791" y="1462"/>
      <point x="827" y="1520"/>
      <point x="928" y="1520" type="curve" smooth="yes"/>
      <point x="1028" y="1520"/>
      <point x="1060" y="1462"/>
      <point x="1060" y="1335" type="curve" smooth="yes"/>
      <point x="1060" y="0" type="line"/>
      <point x="1355" y="0" type="line"/>
      <point x="1355" y="1325" type="line" smooth="yes"/>
      <point x="1355" y="1629"/>
      <point x="1231" y="1781"/>
    </contour>
    <component base="KaComponent_Nonexporting" xOffset="45"/>
    <component base="KaBeak_Nonexporting" xOffset="779"/>
  </outline>
</glyph>
<glyph name="HaMatraUu_Simple_SimpleUu.tm" format="2">
  <advance width="3759"/>
  <note>
HaMatraUu.tm
</note>
  <outline>
    <contour>
      <point x="1609" y="1224" type="curve" smooth="yes"/>
      <point x="1396" y="1224"/>
      <point x="1279" y="1110"/>
      <point x="1279" y="841" type="curve" smooth="yes"/>
      <point x="1279" y="0" type="line"/>
      <point x="1573" y="0" type="line"/>
      <point x="1573" y="857" type="line" smooth="yes"/>
      <point x="1573" y="935"/>
      <point x="1600" y="966"/>
      <point x="1650" y="966" type="curve" smooth="yes"/>
      <point x="1703" y="966"/>
      <point x="1723" y="935"/>
      <point x="1723" y="857" type="curve" smooth="yes"/>
      <point x="1723" y="0" type="line"/>
      <point x="2017" y="0" type="line"/>
      <point x="2017" y="832" type="line" smooth="yes"/>
      <point x="2017" y="933"/>
      <point x="2047" y="966"/>
      <point x="2109" y="966" type="curve" smooth="yes"/>
      <point x="2166" y="966"/>
      <point x="2196" y="933"/>
      <point x="2196" y="832" type="curve" smooth="yes"/>
      <point x="2196" y="791" type="line" smooth="yes"/>
      <point x="2196" y="707"/>
      <point x="2177" y="659"/>
      <point x="2091" y="650" type="curve" smooth="yes"/>
      <point x="2072" y="648" type="line"/>
      <point x="2072" y="397" type="line"/>
      <point x="2100" y="396" type="line" smooth="yes"/>
      <point x="2181" y="393"/>
      <point x="2207" y="353"/>
      <point x="2207" y="245" type="curve" smooth="yes"/>
      <point x="2207" y="160" type="line" smooth="yes"/>
      <point x="2207" y="-59"/>
      <point x="2150" y="-136"/>
      <point x="1931" y="-136" type="curve" smooth="yes"/>
      <point x="398" y="-136" type="line"/>
      <point x="429" y="-390" type="line"/>
      <point x="1971" y="-390" type="line" smooth="yes"/>
      <point x="2396" y="-390"/>
      <point x="2501" y="-232"/>
      <point x="2501" y="144" type="curve" smooth="yes"/>
      <point x="2501" y="234" type="line" smooth="yes"/>
      <point x="2501" y="434"/>
      <point x="2453" y="521"/>
      <point x="2295" y="532" type="curve"/>
      <point x="2295" y="541" type="line"/>
      <point x="2448" y="550"/>
      <point x="2490" y="668"/>
      <point x="2490" y="828" type="curve" smooth="yes"/>
      <point x="2490" y="856" type="line" smooth="yes"/>
      <point x="2490" y="920"/>
      <point x="2481" y="981"/>
      <point x="2450" y="1021" type="curve"/>
      <point x="2450" y="1084" type="line"/>
      <point x="2406" y="1178"/>
      <point x="2328" y="1224"/>
      <point x="2185" y="1224" type="curve" smooth="yes"/>
      <point x="1993" y="1224"/>
      <point x="1903" y="1137"/>
      <point x="1883" y="990" type="curve"/>
      <point x="1874" y="990" type="line"/>
      <point x="1857" y="1139"/>
      <point x="1772" y="1224"/>
    </contour>
    <contour>
      <point x="1204" y="254" type="line"/>
      <point x="1204" y="0" type="line"/>
      <point x="1345" y="0" type="line"/>
      <point x="1345" y="254" type="line"/>
    </contour>
    <contour>
      <point x="2584" y="1189" type="line"/>
      <point x="2244" y="1189" type="line"/>
      <point x="2244" y="938" type="line"/>
      <point x="2584" y="938" type="line"/>
    </contour>
    <component base="Va_NonExporting" xOffset="2"/>
    <component base="MatraUuDflt_Simple.tm" xOffset="2440"/>
    <component base="Tail_NonExporting" xOffset="6"/>
  </outline>
</glyph>
<glyph name="JaMatraI_Fly.tm" format="2">
  <advance width="1638"/>
  <note>
JaMatraI.tm
</note>
  <anchor x="954" y="1249" name="top"/>
  <outline>
    <contour>
      <point x="1648" y="1625" type="line"/>
      <point x="1360" y="1625" type="line" smooth="yes"/>
      <point x="1164" y="1625"/>
      <point x="1078" y="1553"/>
      <point x="1078" y="1411" type="curve" smooth="yes"/>
      <point x="1078" y="1341"/>
      <point x="1090" y="1304"/>
      <point x="1141" y="1176" type="curve"/>
      <point x="1415" y="1176" type="line"/>
      <point x="1387" y="1218"/>
      <point x="1365" y="1280"/>
      <point x="1365" y="1317" type="curve" smooth="yes"/>
      <point x="1365" y="1356"/>
      <point x="1383" y="1371"/>
      <point x="1437" y="1371" type="curve" smooth="yes"/>
      <point x="1682" y="1371" type="line"/>
    </contour>
    <component base="Ja.tm"/>
  </outline>
</glyph>
<glyph name="KaBeak_Nonexporting" format="2">
  <advance width="215"/>
  <outline>
    <contour>
      <point x="0" y="949" type="line"/>
      <point x="215" y="949" type="line"/>
      <point x="195" y="1189" type="line"/>
      <point x="0" y="1189" type="line"/>
    </contour>
  </outline>
</glyph>
<glyph name="KaMatraUu.tm" format="2">
  <advance width="1843"/>
  <note>
KaMatraUu.tm
</note>
  <outline>
    <contour>
      <point x="735" y="524" type="line"/>
      <point x="838" y="524" type="line" smooth="yes"/>
      <point x="913" y="524"/>
      <point x="934" y="500"/>
      <point x="934" y="410" type="curve" smooth="yes"/>
      <point x="934" y="0" type="line"/>
      <point x="1224" y="0" type="line"/>
      <point x="1224" y="464" type="line" smooth="yes"/>
      <point x="1224" y="535"/>
      <point x="1245" y="569"/>
      <point x="1294" y="569" type="curve" smooth="yes"/>
      <point x="1344" y="569"/>
      <point x="1359" y="535"/>
      <point x="1359" y="464" type="curve" smooth="yes"/>
      <point x="1359" y="318" type="line" smooth="yes"/>
      <point x="1359" y="188"/>
      <point x="1342" y="103"/>
      <point x="1294" y="17" type="curve"/>
      <point x="1294" y="0" type="line"/>
      <point x="1815" y="0" type="line"/>
      <point x="1843" y="258" type="line"/>
      <point x="1585" y="258" type="line"/>
      <point x="1592" y="169" type="line"/>
      <point x="1635" y="230"/>
      <point x="1646" y="274"/>
      <point x="1646" y="385" type="curve" smooth="yes"/>
      <point x="1646" y="497" type="line" smooth="yes"/>
      <point x="1646" y="714"/>
      <point x="1567" y="826"/>
      <point x="1361" y="826" type="curve" smooth="yes"/>
      <point x="1173" y="826"/>
      <point x="1077" y="719"/>
      <point x="1077" y="567" type="curve" smooth="yes"/>
      <point x="1077" y="567" type="line"/>
      <point x="1068" y="567" type="line"/>
      <point x="1053" y="710"/>
      <point x="1000" y="771"/>
      <point x="847" y="771" type="curve" smooth="yes"/>
      <point x="735" y="771" type="line"/>
    </contour>
    <component base="KaComponent_Nonexporting" xOffset="45"/>
    <component base="KaBeak_Nonexporting" xOffset="849"/>
  </outline>
</glyph>
<glyph name="KssaMatraIi.tm" format="2">
  <advance width="2603"/>
  <note>
KshaMatraIi.tm
</note>
  <anchor x="1478" y="1249" name="top"/>
  <outline>
    <contour>
      <point x="2310" y="1910" type="curve" smooth="yes"/>
      <point x="2079" y="1910"/>
      <point x="1975" y="1776"/>
      <point x="1975" y="1549" type="curve" smooth="yes"/>
      <point x="1975" y="1334" type="line" smooth="yes"/>
      <point x="1975" y="1269"/>
      <point x="1987" y="1219"/>
      <point x="2033" y="1194" type="curve"/>
      <point x="2306" y="1184" type="line"/>
      <point x="2267" y="1210"/>
      <point x="2257" y="1242"/>
      <point x="2257" y="1307" type="curve" smooth="yes"/>
      <point x="2257" y="1478" type="line"/>
      <point x="2257" y="1612" type="line" smooth="yes"/>
      <point x="2257" y="1656"/>
      <point x="2273" y="1680"/>
      <point x="2310" y="1680" type="curve" smooth="yes"/>
      <point x="2345" y="1680"/>
      <point x="2360" y="1656"/>
      <point x="2360" y="1612" type="curve" smooth="yes"/>
      <point x="2360" y="1522" type="line" smooth="yes"/>
      <point x="2360" y="1479"/>
      <point x="2347" y="1457"/>
      <point x="2310" y="1457" type="curve" smooth="yes"/>
      <point x="2288" y="1457"/>
      <point x="2264" y="1470"/>
      <point x="2255" y="1492" type="curve"/>
      <point x="2245" y="1492" type="line"/>
      <point x="2255" y="1408" type="line"/>
      <point x="2273" y="1408" type="line"/>
      <point x="2308" y="1292" type="line"/>
      <point x="2338" y="1268"/>
      <point x="2388" y="1253"/>
      <point x="2443" y="1253" type="curve" smooth="yes"/>
      <point x="2571" y="1253"/>
      <point x="2636" y="1338"/>
      <point x="2636" y="1511" type="curve" smooth="yes"/>
      <point x="2636" y="1584" type="line" smooth="yes"/>
      <point x="2636" y="1788"/>
      <point x="2541" y="1910"/>
    </contour>
    <component base="Kssa.tm"/>
  </outline>
</glyph>
<glyph name="KssaMatraU_Simple.tm" format="2">
  <advance width="3320"/>
  <note>
KshaMatraU.tm
</note>
  <outline>
    <contour>
      <point x="731" y="524" type="line"/>
      <point x="838" y="524" type="line" smooth="yes"/>
      <point x="913" y="524"/>
      <point x="934" y="500"/>
      <point x="934" y="410" type="curve" smooth="yes"/>
      <point x="934" y="0" type="line"/>
      <point x="1224" y="0" type="line"/>
      <point x="1224" y="464" type="line" smooth="yes"/>
      <point x="1224" y="535"/>
      <point x="1245" y="569"/>
      <point x="1294" y="569" type="curve" smooth="yes"/>
      <point x="1344" y="569"/>
      <point x="1359" y="535"/>
      <point x="1359" y="464" type="curve" smooth="yes"/>
      <point x="1359" y="318" type="line" smooth="yes"/>
      <point x="1359" y="188"/>
      <point x="1342" y="103"/>
      <point x="1294" y="17" type="curve"/>
      <point x="1294" y="0" type="line"/>
      <point x="1929" y="0" type="line"/>
      <point x="1929" y="254" type="line"/>
      <point x="1585" y="254" type="line"/>
      <point x="1592" y="169" type="line"/>
      <point x="1635" y="230"/>
      <point x="1646" y="274"/>
      <point x="1646" y="385" type="curve" smooth="yes"/>
      <point x="1646" y="497" type="line" smooth="yes"/>
      <point x="1646" y="714"/>
      <point x="1567" y="826"/>
      <point x="1361" y="826" type="curve" smooth="yes"/>
      <point x="1173" y="826"/>
      <point x="1077" y="719"/>
      <point x="1077" y="567" type="curve" smooth="yes"/>
      <point x="1077" y="567" type="line"/>
      <point x="1068" y="567" type="line"/>
      <point x="1053" y="710"/>
      <point x="1000" y="771"/>
      <point x="847" y="771" type="curve" smooth="yes"/>
      <point x="731" y="771" type="line"/>
    </contour>
    <contour>
      <point x="1684" y="254" type="line"/>
      <point x="1684" y="0" type="line"/>
      <point x="2575" y="0" type="line"/>
      <point x="2603" y="254" type="line"/>
      <point x="2170" y="254" type="line"/>
      <point x="2126" y="215" type="line"/>
      <point x="2078" y="254" type="line"/>
    </contour>
    <contour>
      <point x="2126" y="1224" type="curve" smooth="yes"/>
      <point x="1868" y="1224"/>
      <point x="1753" y="1069"/>
      <point x="1753" y="822" type="curve" smooth="yes"/>
      <point x="1753" y="537" type="line" smooth="yes"/>
      <point x="1753" y="326"/>
      <point x="1821" y="201"/>
      <point x="2043" y="132" type="curve"/>
      <point x="2161" y="202" type="line"/>
      <point x="2073" y="243"/>
      <point x="2051" y="311"/>
      <point x="2051" y="451" type="curve" smooth="yes"/>
      <point x="2051" y="848" type="line" smooth="yes"/>
      <point x="2051" y="926"/>
      <point x="2073" y="959"/>
      <point x="2126" y="959" type="curve" smooth="yes"/>
      <point x="2179" y="959"/>
      <point x="2201" y="926"/>
      <point x="2201" y="848" type="curve" smooth="yes"/>
      <point x="2201" y="451" type="line" smooth="yes"/>
      <point x="2201" y="311"/>
      <point x="2179" y="243"/>
      <point x="2091" y="202" type="curve"/>
      <point x="2209" y="132" type="line"/>
      <point x="2431" y="201"/>
      <point x="2500" y="326"/>
      <point x="2500" y="537" type="curve" smooth="yes"/>
      <point x="2500" y="804" type="line" smooth="yes"/>
      <point x="2500" y="913"/>
      <point x="2487" y="973"/>
      <point x="2439" y="1029" type="curve"/>
      <point x="2439" y="1084" type="line"/>
      <point x="2387" y="1178"/>
      <point x="2295" y="1224"/>
    </contour>
    <contour>
      <point x="2603" y="1189" type="line"/>
      <point x="2253" y="1189" type="line"/>
      <point x="2253" y="938" type="line"/>
      <point x="2603" y="938" type="line"/>
    </contour>
    <component base="KaComponent_Nonexporting" xOffset="45"/>
    <component base="KaBeak_Nonexporting" xOffset="849"/>
    <component base="MatraUDflt_dummy.tm" xOffset="2456"/>
    <component base="Ssa_Below_NonExporting" xOffset="1826"/>
  </outline>
</glyph>
<glyph name="Kssa_Simple.tm" format="2">
  <advance width="2603"/>
  <note>
Ksha.tm
</note>
  <anchor x="1478" y="1249" name="top"/>
  <outline>
    <contour>
      <point x="665" y="524" type="line"/>
      <point x="838" y="524" type="line" smooth="yes"/>
      <point x="913" y="524"/>
      <point x="934" y="500"/>
      <point x="934" y="410" type="curve" smooth="yes"/>
      <point x="934" y="0" type="line"/>
      <point x="1224" y="0" type="line"/>
      <point x="1224" y="464" type="line" smooth="yes"/>
      <point x="1224" y="535"/>
      <point x="1245" y="569"/>
      <point x="1294" y="569" type="curve" smooth="yes"/>
      <point x="1344" y="569"/>
      <point x="1359" y="535"/>
      <point x="1359" y="464" type="curve" smooth="yes"/>
      <point x="1359" y="318" type="line" smooth="yes"/>
      <point x="1359" y="188"/>
      <point x="1342" y="103"/>
      <point x="1294" y="17" type="curve"/>
      <point x="1294" y="0" type="line"/>
      <point x="1929" y="0" type="line"/>
      <point x="1929" y="254" type="line"/>
      <point x="1585" y="254" type="line"/>
      <point x="1592" y="169" type="line"/>
      <point x="1635" y="230"/>
      <point x="1646" y="274"/>
      <point x="1646" y="385" type="curve" smooth="yes"/>
      <point x="1646" y="497" type="line" smooth="yes"/>
      <point x="1646" y="714"/>
      <point x="1567" y="826"/>
      <point x="1361" y="826" type="curve" smooth="yes"/>
      <point x="1173" y="826"/>
      <point x="1077" y="719"/>
      <point x="1077" y="567" type="curve" smooth="yes"/>
      <point x="1077" y="567" type="line"/>
      <point x="1068" y="567" type="line"/>
      <point x="1053" y="710"/>
      <point x="1000" y="771"/>
      <point x="847" y="771" type="curve" smooth="yes"/>
      <point x="665" y="771" type="line"/>
    </contour>
    <component base="KaComponent_Nonexporting" xOffset="45"/>
    <component base="Ssa_Above_NonExporting" xOffset="1556"/>
    <component base="Ssa_Below_NonExporting" xOffset="1827"/>
    <component base="KaBeak_Nonexporting" xOffset="849"/>
  </outline>
</glyph>
<glyph name="LaMatraI.tm" format="2">
  <advance width="2126"/>
  <note>
LaMatraI.tm
</note>
  <outline>
    <contour>
      <point x="624" y="1224" type="curve" smooth="yes"/>
      <point x="263" y="1224"/>
      <point x="68" y="1008"/>
      <point x="68" y="602" type="curve" smooth="yes"/>
      <point x="68" y="339" type="line" smooth="yes"/>
      <point x="68" y="116"/>
      <point x="177" y="-26"/>
      <point x="412" y="-26" type="curve" smooth="yes"/>
      <point x="652" y="-26"/>
      <point x="755" y="112"/>
      <point x="755" y="329" type="curve" smooth="yes"/>
      <point x="755" y="519" type="line" smooth="yes"/>
      <point x="755" y="714"/>
      <point x="698" y="817"/>
      <point x="552" y="817" type="curve" smooth="yes"/>
      <point x="426" y="817"/>
      <point x="360" y="726"/>
      <point x="352" y="624" type="curve"/>
      <point x="340" y="624" type="line"/>
      <point x="346" y="499" type="line"/>
      <point x="350" y="539"/>
      <point x="378" y="567"/>
      <point x="412" y="567" type="curve" smooth="yes"/>
      <point x="457" y="567"/>
      <point x="470" y="537"/>
      <point x="470" y="475" type="curve" smooth="yes"/>
      <point x="470" y="315" type="line" smooth="yes"/>
      <point x="470" y="250"/>
      <point x="458" y="217"/>
      <point x="412" y="217" type="curve" smooth="yes"/>
      <point x="366" y="217"/>
      <point x="354" y="250"/>
      <point x="354" y="315" type="curve"/>
      <point x="354" y="624" type="line"/>
      <point x="343" y="624" type="line"/>
      <point x="343" y="629"/>
      <point x="343" y="629"/>
      <point x="343" y="635" type="curve" smooth="yes"/>
      <point x="343" y="854"/>
      <point x="431" y="959"/>
      <point x="613" y="959" type="curve" smooth="yes"/>
      <point x="780" y="959"/>
      <point x="858" y="857"/>
      <point x="858" y="655" type="curve" smooth="yes"/>
      <point x="858" y="368" type="line" smooth="yes"/>
      <point x="858" y="123"/>
      <point x="957" y="-26"/>
      <point x="1222" y="-26" type="curve" smooth="yes"/>
      <point x="1483" y="-26"/>
      <point x="1586" y="123"/>
      <point x="1586" y="368" type="curve" smooth="yes"/>
      <point x="1586" y="862" type="line" smooth="yes"/>
      <point x="1586" y="1068"/>
      <point x="1524" y="1211"/>
      <point x="1366" y="1211" type="curve" smooth="yes"/>
      <point x="1325" y="1211"/>
      <point x="1290" y="1204"/>
      <point x="1259" y="1182" type="curve"/>
      <point x="1413" y="1139" type="line"/>
      <point x="1413" y="1187"/>
      <point x="1413" y="1232"/>
      <point x="1413" y="1280" type="curve" smooth="yes"/>
      <point x="1413" y="1446"/>
      <point x="1462" y="1519"/>
      <point x="1580" y="1519" type="curve" smooth="yes"/>
      <point x="1695" y="1519"/>
      <point x="1740" y="1449"/>
      <point x="1740" y="1280" type="curve" smooth="yes"/>
      <point x="1740" y="0" type="line"/>
      <point x="2034" y="0" type="line"/>
      <point x="2034" y="1258" type="line" smooth="yes"/>
      <point x="2034" y="1597"/>
      <point x="1892" y="1781"/>
      <point x="1580" y="1781" type="curve" smooth="yes"/>
      <point x="1278" y="1781"/>
      <point x="1130" y="1597"/>
      <point x="1130" y="1258" type="curve" smooth="yes"/>
      <point x="1130" y="1174"/>
      <point x="1130" y="1071"/>
      <point x="1130" y="987" type="curve"/>
      <point x="1147" y="990"/>
      <point x="1165" y="992"/>
      <point x="1183" y="992" type="curve" smooth="yes"/>
      <point x="1264" y="992"/>
      <point x="1288" y="945"/>
      <point x="1288" y="835" type="curve" smooth="yes"/>
      <point x="1288" y="348" type="line" smooth="yes"/>
      <point x="1288" y="280"/>
      <point x="1275" y="236"/>
      <point x="1222" y="236" type="curve" smooth="yes"/>
      <point x="1167" y="236"/>
      <point x="1152" y="280"/>
      <point x="1152" y="348" type="curve" smooth="yes"/>
      <point x="1152" y="638" type="line" smooth="yes"/>
      <point x="1152" y="1014"/>
      <point x="1018" y="1224"/>
    </contour>
  </outline>
</glyph>
<glyph name="LaMatraIi_SimpleIi.tm" format="2">
  <advance width="1660"/>
  <note>
LaMatraIi.tm
</note>
  <outline>
    <contour>
      <point x="1400" y="1498" type="line" smooth="yes"/>
      <point x="1400" y="1674"/>
      <point x="1461" y="1757"/>
      <point x="1594" y="1763" type="curve"/>
      <point x="1594" y="1752" type="line"/>
      <point x="1621" y="1757"/>
      <point x="1645" y="1761"/>
      <point x="1673" y="1761" type="curve" smooth="yes"/>
      <point x="1752" y="1761"/>
      <point x="1778" y="1717"/>
      <point x="1778" y="1632" type="curve" smooth="yes"/>
      <point x="1778" y="1529" type="line" smooth="yes"/>
      <point x="1778" y="1483"/>
      <point x="1767" y="1457"/>
      <point x="1734" y="1457" type="curve" smooth="yes"/>
      <point x="1699" y="1457"/>
      <point x="1688" y="1483"/>
      <point x="1688" y="1529" type="curve" smooth="yes"/>
      <point x="1688" y="1652" type="line" smooth="yes"/>
      <point x="1688" y="1702"/>
      <point x="1695" y="1739"/>
      <point x="1721" y="1766" type="curve"/>
      <point x="1594" y="1766" type="line"/>
      <point x="1594" y="1754" type="line"/>
      <point x="1490" y="1715"/>
      <point x="1458" y="1654"/>
      <point x="1458" y="1554" type="curve" smooth="yes"/>
      <point x="1458" y="1526" type="line" smooth="yes"/>
      <point x="1458" y="1361"/>
      <point x="1541" y="1266"/>
      <point x="1734" y="1266" type="curve" smooth="yes"/>
      <point x="1943" y="1266"/>
      <point x="2032" y="1372"/>
      <point x="2032" y="1553" type="curve" smooth="yes"/>
      <point x="2032" y="1601" type="line" smooth="yes"/>
      <point x="2032" y="1840"/>
      <point x="1918" y="1989"/>
      <point x="1608" y="1989" type="curve" smooth="yes"/>
      <point x="1272" y="1989"/>
      <point x="1130" y="1807"/>
      <point x="1130" y="1514" type="curve" smooth="yes"/>
      <point x="1130" y="1281" type="line" smooth="yes"/>
      <point x="1130" y="1206"/>
      <point x="1130" y="1084"/>
      <point x="1130" y="987" type="curve"/>
      <point x="1147" y="990"/>
      <point x="1165" y="992"/>
      <point x="1183" y="992" type="curve" smooth="yes"/>
      <point x="1264" y="992"/>
      <point x="1288" y="945"/>
      <point x="1288" y="835" type="curve" smooth="yes"/>
      <point x="1288" y="348" type="line" smooth="yes"/>
      <point x="1288" y="280"/>
      <point x="1275" y="236"/>
      <point x="1222" y="236" type="curve" smooth="yes"/>
      <point x="1167" y="236"/>
      <point x="1152" y="280"/>
      <point x="1152" y="348" type="curve" smooth="yes"/>
      <point x="1152" y="638" type="line" smooth="yes"/>
      <point x="1152" y="1014"/>
      <point x="1018" y="1224"/>
      <point x="624" y="1224" type="curve" smooth="yes"/>
      <point x="263" y="1224"/>
      <point x="68" y="1008"/>
      <point x="68" y="602" type="curve" smooth="yes"/>
      <point x="68" y="339" type="line" smooth="yes"/>
      <point x="68" y="116"/>
      <point x="177" y="-26"/>
      <point x="412" y="-26" type="curve" smooth="yes"/>
      <point x="652" y="-26"/>
      <point x="755" y="112"/>
      <point x="755" y="329" type="curve" smooth="yes"/>
      <point x="755" y="519" type="line" smooth="yes"/>
      <point x="755" y="714"/>
      <point x="698" y="817"/>
      <point x="552" y="817" type="curve" smooth="yes"/>
      <point x="426" y="817"/>
      <point x="360" y="726"/>
      <point x="352" y="624" type="curve"/>
      <point x="340" y="624" type="line"/>
      <point x="346" y="499" type="line"/>
      <point x="350" y="539"/>
      <point x="378" y="567"/>
      <point x="412" y="567" type="curve" smooth="yes"/>
      <point x="457" y="567"/>
      <point x="470" y="537"/>
      <point x="470" y="475" type="curve" smooth="yes"/>
      <point x="470" y="315" type="line" smooth="yes"/>
      <point x="470" y="250"/>
      <point x="458" y="217"/>
      <point x="412" y="217" type="curve" smooth="yes"/>
      <point x="366" y="217"/>
      <point x="354" y="250"/>
      <point x="354" y="315" type="curve"/>
      <point x="354" y="624" type="line"/>
      <point x="343" y="624" type="line"/>
      <point x="343" y="629"/>
      <point x="343" y="629"/>
      <point x="343" y="635" type="curve" smooth="yes"/>
      <point x="343" y="854"/>
      <point x="431" y="959"/>
      <point x="613" y="959" type="curve" smooth="yes"/>
      <point x="780" y="959"/>
      <point x="858" y="857"/>
      <point x="858" y="655" type="curve" smooth="yes"/>
      <point x="858" y="368" type="line" smooth="yes"/>
      <point x="858" y="123"/>
      <point x="957" y="-26"/>
      <point x="1222" y="-26" type="curve" smooth="yes"/>
      <point x="1483" y="-26"/>
      <point x="1586" y="123"/>
      <point x="1586" y="368" type="curve" smooth="yes"/>
      <point x="1586" y="862" type="line" smooth="yes"/>
      <point x="1586" y="1068"/>
      <point x="1524" y="1211"/>
      <point x="1366" y="1211" type="curve" smooth="yes"/>
      <point x="1325" y="1211"/>
      <point x="1290" y="1205"/>
      <point x="1259" y="1185" type="curve"/>
      <point x="1400" y="1172" type="line"/>
      <point x="1400" y="1224"/>
      <point x="1400" y="1258"/>
      <point x="1400" y="1303" type="curve" smooth="yes"/>
    </contour>
  </outline>
</glyph>
<glyph name="LaMatraU.tm" format="2">
  <advance width="2141"/>
  <note>
LaMatraU.tm
</note>
  <anchor x="984" y="1249" name="top"/>
  <outline>
    <contour>
      <point x="2049" y="-136" type="line"/>
      <point x="10" y="-136" type="line"/>
      <point x="42" y="-390" type="line"/>
      <point x="2049" y="-390" type="line"/>
    </contour>
    <contour>
      <point x="1087" y="213" type="line"/>
      <point x="1087" y="-228" type="line"/>
      <point x="1354" y="-228" type="line"/>
      <point x="1354" y="213" type="line"/>
    </contour>
    <contour>
      <point x="1754" y="1189" type="line"/>
      <point x="1754" y="-221" type="line"/>
      <point x="2049" y="-221" type="line"/>
      <point x="2049" y="1189" type="line"/>
    </contour>
    <component base="La_dummy.tm"/>
  </outline>
</glyph>
<glyph name="La_dummy.tm" format="2">
  <advance width="1660"/>
  <note>
La.tm
</note>
  <guideline x="4139" y="1227" angle="90"/>
  <guideline x="5093" y="1227" angle="90"/>
  <anchor x="984" y="1249" name="top"/>
  <outline>
    <contour>
      <point x="624" y="1224" type="curve" smooth="yes"/>
      <point x="263" y="1224"/>
      <point x="68" y="1008"/>
      <point x="68" y="602" type="curve" smooth="yes"/>
      <point x="68" y="339" type="line" smooth="yes"/>
      <point x="68" y="116"/>
      <point x="177" y="-26"/>
      <point x="412" y="-26" type="curve" smooth="yes"/>
      <point x="652" y="-26"/>
      <point x="755" y="112"/>
      <point x="755" y="329" type="curve" smooth="yes"/>
      <point x="755" y="519" type="line" smooth="yes"/>
      <point x="755" y="714"/>
      <point x="698" y="817"/>
      <point x="552" y="817" type="curve" smooth="yes"/>
      <point x="426" y="817"/>
      <point x="360" y="726"/>
      <point x="352" y="624" type="curve"/>
      <point x="340" y="624" type="line"/>
      <point x="346" y="499" type="line"/>
      <point x="350" y="539"/>
      <point x="378" y="567"/>
      <point x="412" y="567" type="curve" smooth="yes"/>
      <point x="457" y="567"/>
      <point x="470" y="537"/>
      <point x="470" y="475" type="curve" smooth="yes"/>
      <point x="470" y="315" type="line" smooth="yes"/>
      <point x="470" y="250"/>
      <point x="458" y="217"/>
      <point x="412" y="217" type="curve" smooth="yes"/>
      <point x="366" y="217"/>
      <point x="354" y="250"/>
      <point x="354" y="315" type="curve"/>
      <point x="354" y="624" type="line"/>
      <point x="343" y="624" type="line"/>
      <point x="343" y="629"/>
      <point x="343" y="629"/>
      <point x="343" y="635" type="curve" smooth="yes"/>
      <point x="343" y="854"/>
      <point x="431" y="959"/>
      <point x="613" y="959" type="curve" smooth="yes"/>
      <point x="779" y="959"/>
      <point x="857" y="857"/>
      <point x="857" y="655" type="curve" smooth="yes"/>
      <point x="857" y="368" type="line" smooth="yes"/>
      <point x="857" y="123"/>
      <point x="956" y="-26"/>
      <point x="1222" y="-26" type="curve" smooth="yes"/>
      <point x="1483" y="-26"/>
      <point x="1586" y="123"/>
      <point x="1586" y="368" type="curve" smooth="yes"/>
      <point x="1586" y="832" type="line" smooth="yes"/>
      <point x="1586" y="1100"/>
      <point x="1504" y="1224"/>
      <point x="1266" y="1224" type="curve" smooth="yes"/>
      <point x="1226" y="1224"/>
      <point x="1186" y="1219"/>
      <point x="1152" y="1209" type="curve"/>
      <point x="1129" y="953" type="line"/>
      <point x="1146" y="957"/>
      <point x="1165" y="960"/>
      <point x="1187" y="960" type="curve" smooth="yes"/>
      <point x="1264" y="960"/>
      <point x="1288" y="917"/>
      <point x="1288" y="815" type="curve" smooth="yes"/>
      <point x="1288" y="348" type="line" smooth="yes"/>
      <point x="1288" y="280"/>
      <point x="1275" y="236"/>
      <point x="1222" y="236" type="curve" smooth="yes"/>
      <point x="1167" y="236"/>
      <point x="1152" y="280"/>
      <point x="1152" y="348" type="curve" smooth="yes"/>
      <point x="1152" y="638" type="line" smooth="yes"/>
      <point x="1152" y="1014"/>
      <point x="1018" y="1224"/>
    </contour>
  </outline>
</glyph>
<glyph name="Lla_dummy.tm" format="2">
  <advance width="1743"/>
  <note>
Lla.tm
</note>
  <anchor x="1012" y="1249" name="top"/>
  <outline>
    <contour>
      <point x="1318" y="1121" type="line"/>
      <point x="1318" y="0" type="line"/>
      <point x="1613" y="0" type="line"/>
      <point x="1613" y="1121" type="line"/>
    </contour>
    <contour>
      <point x="591" y="1224" type="curve" smooth="yes"/>
      <point x="247" y="1224"/>
      <point x="68" y="1008"/>
      <point x="68" y="602" type="curve" smooth="yes"/>
      <point x="68" y="339" type="line" smooth="yes"/>
      <point x="68" y="116"/>
      <point x="177" y="-26"/>
      <point x="412" y="-26" type="curve" smooth="yes"/>
      <point x="652" y="-26"/>
      <point x="755" y="112"/>
      <point x="755" y="329" type="curve" smooth="yes"/>
      <point x="755" y="519" type="line" smooth="yes"/>
      <point x="755" y="714"/>
      <point x="698" y="817"/>
      <point x="552" y="817" type="curve" smooth="yes"/>
      <point x="426" y="817"/>
      <point x="360" y="726"/>
      <point x="352" y="624" type="curve"/>
      <point x="340" y="624" type="line"/>
      <point x="346" y="499" type="line"/>
      <point x="350" y="539"/>
      <point x="378" y="567"/>
      <point x="412" y="567" type="curve" smooth="yes"/>
      <point x="457" y="567"/>
      <point x="470" y="537"/>
      <point x="470" y="475" type="curve" smooth="yes"/>
      <point x="470" y="315" type="line" smooth="yes"/>
      <point x="470" y="250"/>
      <point x="458" y="217"/>
      <point x="412" y="217" type="curve" smooth="yes"/>
      <point x="366" y="217"/>
      <point x="354" y="250"/>
      <point x="354" y="315" type="curve"/>
      <point x="354" y="624" type="line"/>
      <point x="343" y="624" type="line"/>
      <point x="343" y="629"/>
      <point x="343" y="629"/>
      <point x="343" y="635" type="curve" smooth="yes"/>
      <point x="343" y="854"/>
      <point x="427" y="959"/>
      <point x="617" y="959" type="curve" smooth="yes"/>
      <point x="788" y="959"/>
      <point x="865" y="854"/>
      <point x="865" y="648" type="curve" smooth="yes"/>
      <point x="865" y="0" type="line"/>
      <point x="1160" y="0" type="line"/>
      <point x="1160" y="935" type="line"/>
      <point x="1574" y="935" type="line"/>
      <point x="1574" y="1189" type="line"/>
      <point x="976" y="1189" type="line"/>
      <point x="976" y="984" type="line"/>
      <point x="968" y="984" type="line"/>
      <point x="928" y="1126"/>
      <point x="815" y="1224"/>
    </contour>
    <component base="RaBeak_Nonexporting" xOffset="1223"/>
  </outline>
</glyph>
<glyph name="LllaMatraI.tm" format="2">
  <advance width="1838"/>
  <note>
LllaMatraI.tm
</note>
  <anchor x="696" y="1249" name="top"/>
  <outline>
    <contour>
      <point x="552" y="145" type="line"/>
      <point x="552" y="-13" type="line" smooth="yes"/>
      <point x="552" y="-109"/>
      <point x="539" y="-140"/>
      <point x="453" y="-140" type="curve" smooth="yes"/>
      <point x="-2" y="-140" type="line"/>
      <point x="30" y="-390" type="line"/>
      <point x="467" y="-390" type="line"/>
      <point x="616" y="-390"/>
      <point x="670" y="-350"/>
      <point x="688" y="-204" type="curve"/>
      <point x="696" y="-204" type="line"/>
      <point x="714" y="-350"/>
      <point x="764" y="-390"/>
      <point x="868" y="-390" type="curve" smooth="yes"/>
      <point x="1144" y="-390" type="line"/>
      <point x="1174" y="-145" type="line"/>
      <point x="942" y="-145" type="line" smooth="yes"/>
      <point x="859" y="-145"/>
      <point x="839" y="-112"/>
      <point x="839" y="-13" type="curve" smooth="yes"/>
      <point x="839" y="145" type="line"/>
    </contour>
    <component base="MaMatraI.tm"/>
  </outline>
</glyph>
<glyph name="LllaMatraIi_Simple_SimpleIi.tm" format="2">
  <advance width="1371"/>
  <note>
LllaMatraIi.tm
</note>
  <anchor x="696" y="1249" name="top"/>
  <outline>
    <contour>
      <point x="620" y="-648" type="curve" smooth="yes"/>
      <point x="875" y="-648"/>
      <point x="932" y="-528"/>
      <point x="978" y="-344" type="curve" smooth="yes"/>
      <point x="980" y="-337" type="line" smooth="yes"/>
      <point x="986" y="-315"/>
      <point x="991" y="-307"/>
      <point x="1010" y="-307" type="curve" smooth="yes"/>
      <point x="1118" y="-307" type="line"/>
      <point x="1148" y="-90" type="line"/>
      <point x="934" y="-90" type="line" smooth="yes"/>
      <point x="848" y="-90"/>
      <point x="828" y="-63"/>
      <point x="828" y="24" type="curve" smooth="yes"/>
      <point x="828" y="201" type="line"/>
      <point x="548" y="201" type="line"/>
      <point x="548" y="6" type="line" smooth="yes"/>
      <point x="548" y="-162"/>
      <point x="607" y="-250"/>
      <point x="730" y="-259" type="curve"/>
      <point x="730" y="-267" type="line"/>
      <point x="721" y="-274"/>
      <point x="715" y="-293"/>
      <point x="708" y="-322" type="curve" smooth="yes"/>
      <point x="706" y="-329" type="line" smooth="yes"/>
      <point x="691" y="-392"/>
      <point x="679" y="-425"/>
      <point x="621" y="-425" type="curve" smooth="yes"/>
      <point x="561" y="-425"/>
      <point x="535" y="-385"/>
      <point x="535" y="-302" type="curve" smooth="yes"/>
      <point x="535" y="-267"/>
      <point x="535" y="-234"/>
      <point x="535" y="-199" type="curve"/>
      <point x="257" y="-199" type="line"/>
      <point x="257" y="-228"/>
      <point x="257" y="-258"/>
      <point x="257" y="-287" type="curve" smooth="yes"/>
      <point x="257" y="-512"/>
      <point x="368" y="-648"/>
    </contour>
    <component base="MaMatraIi_SimpleIi.tm"/>
  </outline>
</glyph>
<glyph name="LllaMatraU.tm" format="2">
  <advance width="1820"/>
  <note>
LllaMatraU.tm
</note>
  <anchor x="1145" y="1249" name="top"/>
  <outline>
    <contour>
      <point x="88" y="1189" type="line"/>
      <point x="88" y="199" type="line" smooth="yes"/>
      <point x="88" y="-362"/>
      <point x="337" y="-608"/>
      <point x="833" y="-608" type="curve" smooth="yes"/>
      <point x="1147" y="-608"/>
      <point x="1337" y="-494"/>
      <point x="1475" y="-345" type="curve" smooth="yes"/>
      <point x="1488" y="-331" type="line" smooth="yes"/>
      <point x="1506" y="-312"/>
      <point x="1518" y="-307"/>
      <point x="1546" y="-307" type="curve" smooth="yes"/>
      <point x="1593" y="-307" type="line"/>
      <point x="1623" y="-90" type="line"/>
      <point x="1391" y="-90" type="line" smooth="yes"/>
      <point x="1305" y="-90"/>
      <point x="1284" y="-63"/>
      <point x="1284" y="24" type="curve" smooth="yes"/>
      <point x="1284" y="201" type="line"/>
      <point x="1005" y="201" type="line"/>
      <point x="1005" y="6" type="line" smooth="yes"/>
      <point x="1005" y="-155"/>
      <point x="1053" y="-236"/>
      <point x="1152" y="-248" type="curve"/>
      <point x="1152" y="-256" type="line"/>
      <point x="1141" y="-258"/>
      <point x="1127" y="-264"/>
      <point x="1111" y="-274" type="curve" smooth="yes"/>
      <point x="1103" y="-279" type="line" smooth="yes"/>
      <point x="1058" y="-307"/>
      <point x="981" y="-350"/>
      <point x="840" y="-350" type="curve" smooth="yes"/>
      <point x="508" y="-350"/>
      <point x="383" y="-180"/>
      <point x="383" y="182" type="curve" smooth="yes"/>
      <point x="383" y="1189" type="line"/>
    </contour>
    <component base="Ma_dummy.tm" xOffset="449"/>
  </outline>
</glyph>
<glyph name="LllaMatraU_Simple.tm" format="2">
  <advance width="1820"/>
  <note>
LllaMatraU.tm
</note>
  <anchor x="1145" y="1249" name="top"/>
  <outline>
    <contour>
      <point x="88" y="1189" type="line"/>
      <point x="88" y="981"/>
      <point x="88" y="775"/>
      <point x="88" y="199" type="curve" smooth="yes"/>
      <point x="88" y="-390"/>
      <point x="339" y="-648"/>
      <point x="839" y="-648" type="curve" smooth="yes"/>
      <point x="1198" y="-648"/>
      <point x="1336" y="-517"/>
      <point x="1461" y="-351" type="curve" smooth="yes"/>
      <point x="1472" y="-337" type="line" smooth="yes"/>
      <point x="1483" y="-320"/>
      <point x="1494" y="-307"/>
      <point x="1518" y="-307" type="curve" smooth="yes"/>
      <point x="1593" y="-307" type="line"/>
      <point x="1623" y="-90" type="line"/>
      <point x="1391" y="-90" type="line" smooth="yes"/>
      <point x="1305" y="-90"/>
      <point x="1284" y="-63"/>
      <point x="1284" y="24" type="curve" smooth="yes"/>
      <point x="1284" y="201" type="line"/>
      <point x="1005" y="201" type="line"/>
      <point x="1005" y="6" type="line" smooth="yes"/>
      <point x="1005" y="-162"/>
      <point x="1060" y="-247"/>
      <point x="1172" y="-259" type="curve"/>
      <point x="1172" y="-267" type="line"/>
      <point x="1163" y="-272"/>
      <point x="1156" y="-280"/>
      <point x="1144" y="-291" type="curve" smooth="yes"/>
      <point x="1137" y="-298" type="line" smooth="yes"/>
      <point x="1087" y="-348"/>
      <point x="997" y="-390"/>
      <point x="846" y="-390" type="curve" smooth="yes"/>
      <point x="510" y="-390"/>
      <point x="383" y="-208"/>
      <point x="383" y="182" type="curve" smooth="yes"/>
      <point x="383" y="753"/>
      <point x="383" y="940"/>
      <point x="383" y="1189" type="curve"/>
    </contour>
    <component base="Ma_dummy.tm" xOffset="449"/>
  </outline>
</glyph>
<glyph name="MaMatraIi.tm" format="2">
  <advance width="1371"/>
  <note>
MaMatraIi.tm
</note>
  <anchor x="696" y="1249" name="top"/>
  <outline>
    <contour>
      <point x="1121" y="1910" type="curve" smooth="yes"/>
      <point x="890" y="1910"/>
      <point x="786" y="1776"/>
      <point x="786" y="1549" type="curve" smooth="yes"/>
      <point x="786" y="1294" type="line" smooth="yes"/>
      <point x="786" y="1234"/>
      <point x="798" y="1187"/>
      <point x="844" y="1164" type="curve"/>
      <point x="1114" y="1144" type="line"/>
      <point x="1079" y="1172"/>
      <point x="1068" y="1204"/>
      <point x="1068" y="1267" type="curve" smooth="yes"/>
      <point x="1068" y="1478" type="line"/>
      <point x="1068" y="1612" type="line" smooth="yes"/>
      <point x="1068" y="1656"/>
      <point x="1084" y="1680"/>
      <point x="1121" y="1680" type="curve" smooth="yes"/>
      <point x="1156" y="1680"/>
      <point x="1171" y="1656"/>
      <point x="1171" y="1612" type="curve" smooth="yes"/>
      <point x="1171" y="1522" type="line" smooth="yes"/>
      <point x="1171" y="1479"/>
      <point x="1158" y="1457"/>
      <point x="1121" y="1457" type="curve" smooth="yes"/>
      <point x="1099" y="1457"/>
      <point x="1075" y="1470"/>
      <point x="1066" y="1492" type="curve"/>
      <point x="1056" y="1492" type="line"/>
      <point x="1066" y="1408" type="line"/>
      <point x="1084" y="1408" type="line"/>
      <point x="1119" y="1292" type="line"/>
      <point x="1149" y="1268"/>
      <point x="1199" y="1253"/>
      <point x="1254" y="1253" type="curve" smooth="yes"/>
      <point x="1382" y="1253"/>
      <point x="1447" y="1338"/>
      <point x="1447" y="1511" type="curve" smooth="yes"/>
      <point x="1447" y="1584" type="line" smooth="yes"/>
      <point x="1447" y="1788"/>
      <point x="1352" y="1910"/>
    </contour>
    <component base="Ma_dummy.tm"/>
  </outline>
</glyph>
<glyph name="MaMatraU.tm" format="2">
  <advance width="1825"/>
  <note>
MaMatraU.tm
</note>
  <anchor x="1150" y="1249" name="top"/>
  <outline>
    <contour>
      <point x="92" y="1189" type="line"/>
      <point x="92" y="155" type="line" smooth="yes"/>
      <point x="92" y="-295"/>
      <point x="309" y="-490"/>
      <point x="717" y="-490" type="curve" smooth="yes"/>
      <point x="717" y="-490" type="line" smooth="yes"/>
      <point x="1136" y="-490"/>
      <point x="1296" y="-275"/>
      <point x="1296" y="106" type="curve" smooth="yes"/>
      <point x="1296" y="226" type="line"/>
      <point x="1002" y="226" type="line"/>
      <point x="1002" y="111" type="line" smooth="yes"/>
      <point x="1002" y="-117"/>
      <point x="936" y="-233"/>
      <point x="717" y="-233" type="curve" smooth="yes"/>
      <point x="717" y="-233" type="line" smooth="yes"/>
      <point x="483" y="-233"/>
      <point x="387" y="-117"/>
      <point x="387" y="130" type="curve" smooth="yes"/>
      <point x="387" y="1189" type="line"/>
    </contour>
    <component base="Ma_dummy.tm" xOffset="454"/>
  </outline>
</glyph>
<glyph name="MatraAa_dummy.tm" format="2">
  <advance width="970"/>
  <note>
RaAltMatraAa.tm
</note>
  <outline>
    <contour>
      <point x="545" y="1121" type="line"/>
      <point x="545" y="0" type="line"/>
      <point x="840" y="0" type="line"/>
      <point x="840" y="1121" type="line"/>
    </contour>
    <contour>
      <point x="789" y="1189" type="line"/>
      <point x="92" y="1189" type="line"/>
      <point x="92" y="0" type="line"/>
      <point x="387" y="0" type="line"/>
      <point x="387" y="935" type="line"/>
      <point x="789" y="935" type="line"/>
    </contour>
    <component base="RaBeak_Nonexporting" xOffset="450"/>
  </outline>
</glyph>
<glyph name="MatraIDflt_dummy.tm" format="2">
  <advance width="906"/>
  <note>
MatraIDflt.tm
</note>
  <outline>
    <contour>
      <point x="408" y="1781" type="curve" smooth="yes"/>
      <point x="127" y="1781"/>
      <point x="0" y="1636"/>
      <point x="0" y="1345" type="curve" smooth="yes"/>
      <point x="0" y="1306" type="line" smooth="yes"/>
      <point x="0" y="1254"/>
      <point x="13" y="1204"/>
      <point x="46" y="1176" type="curve"/>
      <point x="316" y="1176" type="line"/>
      <point x="293" y="1204"/>
      <point x="286" y="1236"/>
      <point x="286" y="1299" type="curve"/>
      <point x="286" y="1348" type="line" smooth="yes"/>
      <point x="286" y="1470"/>
      <point x="317" y="1525"/>
      <point x="405" y="1525" type="curve" smooth="yes"/>
      <point x="492" y="1525"/>
      <point x="519" y="1470"/>
      <point x="519" y="1348" type="curve" smooth="yes"/>
      <point x="519" y="0" type="line"/>
      <point x="814" y="0" type="line"/>
      <point x="814" y="1335" type="line" smooth="yes"/>
      <point x="814" y="1633"/>
      <point x="694" y="1781"/>
    </contour>
  </outline>
</glyph>
<glyph name="MatraIiDflt_SimpleIi.tm" format="2">
  <note>
MatraIiDflt.tm
</note>
  <outline>
    <contour>
      <point x="478" y="1989" type="curve" smooth="yes"/>
      <point x="142" y="1989"/>
      <point x="0" y="1807"/>
      <point x="0" y="1514" type="curve" smooth="yes"/>
      <point x="0" y="1346" type="line" smooth="yes"/>
      <point x="0" y="1268"/>
      <point x="12" y="1205"/>
      <point x="56" y="1176" type="curve"/>
      <point x="320" y="1176" type="line"/>
      <point x="282" y="1209"/>
      <point x="270" y="1246"/>
      <point x="270" y="1319" type="curve" smooth="yes"/>
      <point x="270" y="1498" type="line" smooth="yes"/>
      <point x="270" y="1674"/>
      <point x="331" y="1757"/>
      <point x="464" y="1763" type="curve"/>
      <point x="464" y="1752" type="line"/>
      <point x="491" y="1757"/>
      <point x="515" y="1761"/>
      <point x="543" y="1761" type="curve" smooth="yes"/>
      <point x="622" y="1761"/>
      <point x="648" y="1717"/>
      <point x="648" y="1632" type="curve" smooth="yes"/>
      <point x="648" y="1529" type="line" smooth="yes"/>
      <point x="648" y="1483"/>
      <point x="637" y="1457"/>
      <point x="604" y="1457" type="curve" smooth="yes"/>
      <point x="569" y="1457"/>
      <point x="558" y="1483"/>
      <point x="558" y="1529" type="curve" smooth="yes"/>
      <point x="558" y="1652" type="line" smooth="yes"/>
      <point x="558" y="1702"/>
      <point x="565" y="1739"/>
      <point x="591" y="1766" type="curve"/>
      <point x="464" y="1766" type="line"/>
      <point x="464" y="1754" type="line"/>
      <point x="360" y="1715"/>
      <point x="328" y="1654"/>
      <point x="328" y="1554" type="curve" smooth="yes"/>
      <point x="328" y="1526" type="line" smooth="yes"/>
      <point x="328" y="1361"/>
      <point x="411" y="1266"/>
      <point x="604" y="1266" type="curve" smooth="yes"/>
      <point x="813" y="1266"/>
      <point x="902" y="1372"/>
      <point x="902" y="1553" type="curve" smooth="yes"/>
      <point x="902" y="1601" type="line" smooth="yes"/>
      <point x="902" y="1840"/>
      <point x="788" y="1989"/>
    </contour>
  </outline>
</glyph>
<glyph name="NaMatraU_Simple.tm" format="2">
  <advance width="1831"/>
  <note>
NaMatraU.tm
</note>
  <outline>
    <contour>
      <point x="537" y="1121" type="line"/>
      <point x="537" y="0" type="line"/>
      <point x="832" y="0" type="line"/>
      <point x="832" y="1121" type="line"/>
    </contour>
    <contour>
      <point x="1049" y="817" type="curve" smooth="yes"/>
      <point x="924" y="817"/>
      <point x="855" y="738"/>
      <point x="841" y="633" type="curve"/>
      <point x="802" y="633" type="line"/>
      <point x="802" y="466" type="line"/>
      <point x="822" y="466" type="line"/>
      <point x="828" y="526"/>
      <point x="865" y="567"/>
      <point x="911" y="567" type="curve" smooth="yes"/>
      <point x="968" y="567"/>
      <point x="986" y="528"/>
      <point x="986" y="427" type="curve" smooth="yes"/>
      <point x="986" y="178" type="line" smooth="yes"/>
      <point x="986" y="9"/>
      <point x="975" y="-125"/>
      <point x="966" y="-201" type="curve"/>
      <point x="960" y="-280" type="line"/>
      <point x="946" y="-412"/>
      <point x="853" y="-513"/>
      <point x="659" y="-513" type="curve" smooth="yes"/>
      <point x="463" y="-513"/>
      <point x="376" y="-442"/>
      <point x="351" y="-353" type="curve"/>
      <point x="1739" y="-353" type="line"/>
      <point x="1739" y="-118" type="line"/>
      <point x="26" y="-118" type="line"/>
      <point x="33" y="-532"/>
      <point x="247" y="-745"/>
      <point x="659" y="-745" type="curve" smooth="yes"/>
      <point x="1042" y="-745"/>
      <point x="1214" y="-556"/>
      <point x="1255" y="-293" type="curve"/>
      <point x="1257" y="-239" type="line"/>
      <point x="1271" y="-142"/>
      <point x="1280" y="-48"/>
      <point x="1280" y="182" type="curve" smooth="yes"/>
      <point x="1280" y="467" type="line" smooth="yes"/>
      <point x="1280" y="699"/>
      <point x="1220" y="817"/>
    </contour>
    <contour>
      <point x="1444" y="1189" type="line"/>
      <point x="1444" y="-217" type="line"/>
      <point x="1739" y="-217" type="line"/>
      <point x="1739" y="1189" type="line"/>
    </contour>
    <contour>
      <point x="878" y="1189" type="line"/>
      <point x="92" y="1189" type="line"/>
      <point x="92" y="0" type="line"/>
      <point x="387" y="0" type="line"/>
      <point x="387" y="935" type="line"/>
      <point x="878" y="935" type="line"/>
    </contour>
    <component base="RaBeak_Nonexporting" xOffset="608"/>
  </outline>
</glyph>
<glyph name="Na_Simple.tm" format="2">
  <advance width="1355"/>
  <note>
Na.tm
</note>
  <anchor x="685" y="1249" name="top"/>
  <outline>
    <contour>
      <point x="537" y="1121" type="line"/>
      <point x="537" y="0" type="line"/>
      <point x="832" y="0" type="line"/>
      <point x="832" y="1121" type="line"/>
    </contour>
    <contour>
      <point x="1049" y="817" type="curve" smooth="yes"/>
      <point x="924" y="817"/>
      <point x="856" y="738"/>
      <point x="842" y="633" type="curve"/>
      <point x="803" y="633" type="line"/>
      <point x="803" y="466" type="line"/>
      <point x="823" y="466" type="line"/>
      <point x="829" y="526"/>
      <point x="865" y="567"/>
      <point x="911" y="567" type="curve" smooth="yes"/>
      <point x="968" y="567"/>
      <point x="987" y="528"/>
      <point x="987" y="427" type="curve" smooth="yes"/>
      <point x="987" y="197" type="line" smooth="yes"/>
      <point x="987" y="-50"/>
      <point x="904" y="-136"/>
      <point x="692" y="-136" type="curve" smooth="yes"/>
      <point x="369" y="-136" type="line"/>
      <point x="400" y="-390" type="line"/>
      <point x="711" y="-390" type="line" smooth="yes"/>
      <point x="1143" y="-390"/>
      <point x="1281" y="-226"/>
      <point x="1281" y="210" type="curve" smooth="yes"/>
      <point x="1281" y="473" type="line" smooth="yes"/>
      <point x="1281" y="701"/>
      <point x="1219" y="817"/>
    </contour>
    <contour>
      <point x="906" y="1189" type="line"/>
      <point x="92" y="1189" type="line"/>
      <point x="92" y="0" type="line"/>
      <point x="387" y="0" type="line"/>
      <point x="387" y="935" type="line"/>
      <point x="906" y="935" type="line"/>
    </contour>
    <component base="Tail_NonExporting" xOffset="-37"/>
    <component base="RaBeak_Nonexporting" xOffset="615"/>
  </outline>
</glyph>
<glyph name="NgaMatraI.tm" format="2">
  <advance width="2236"/>
  <note>
NgaMatraI.tm
</note>
  <outline>
    <contour>
      <point x="545" y="1121" type="line"/>
      <point x="545" y="0" type="line"/>
      <point x="840" y="0" type="line"/>
      <point x="840" y="1121" type="line"/>
    </contour>
    <contour>
      <point x="1051" y="817" type="curve" smooth="yes"/>
      <point x="917" y="817"/>
      <point x="862" y="732"/>
      <point x="849" y="638" type="curve"/>
      <point x="831" y="638" type="line"/>
      <point x="831" y="474" type="line"/>
      <point x="836" y="474" type="line"/>
      <point x="840" y="526"/>
      <point x="870" y="559"/>
      <point x="911" y="559" type="curve" smooth="yes"/>
      <point x="966" y="559"/>
      <point x="981" y="524"/>
      <point x="981" y="448" type="curve" smooth="yes"/>
      <point x="981" y="318" type="line" smooth="yes"/>
      <point x="981" y="188"/>
      <point x="964" y="103"/>
      <point x="916" y="17" type="curve"/>
      <point x="916" y="0" type="line"/>
      <point x="1615" y="0" type="line"/>
      <point x="1615" y="250" type="line"/>
      <point x="1203" y="250" type="line"/>
      <point x="1211" y="169" type="line"/>
      <point x="1253" y="230"/>
      <point x="1264" y="274"/>
      <point x="1264" y="385" type="curve" smooth="yes"/>
      <point x="1264" y="515" type="line" smooth="yes"/>
      <point x="1264" y="715"/>
      <point x="1206" y="817"/>
    </contour>
    <contour>
      <point x="1377" y="1189" type="line"/>
      <point x="1377" y="0" type="line"/>
      <point x="1672" y="0" type="line"/>
      <point x="1672" y="1189" type="line"/>
    </contour>
    <contour>
      <point x="859" y="1189" type="line"/>
      <point x="92" y="1189" type="line"/>
      <point x="92" y="0" type="line"/>
      <point x="387" y="0" type="line"/>
      <point x="387" y="935" type="line"/>
      <point x="859" y="935" type="line"/>
    </contour>
    <contour>
      <point x="1624" y="1761" type="curve" smooth="yes"/>
      <point x="1295" y="1761"/>
      <point x="1123" y="1593"/>
      <point x="1123" y="1349" type="curve" smooth="yes"/>
      <point x="1123" y="1345" type="line" smooth="yes"/>
      <point x="1123" y="1133"/>
      <point x="1231" y="981"/>
      <point x="1493" y="964" type="curve"/>
      <point x="1605" y="1189" type="line"/>
      <point x="1469" y="1189"/>
      <point x="1417" y="1249"/>
      <point x="1417" y="1336" type="curve" smooth="yes"/>
      <point x="1417" y="1340" type="line" smooth="yes"/>
      <point x="1417" y="1437"/>
      <point x="1485" y="1500"/>
      <point x="1624" y="1500" type="curve" smooth="yes"/>
      <point x="1789" y="1500"/>
      <point x="1850" y="1432"/>
      <point x="1850" y="1268" type="curve" smooth="yes"/>
      <point x="1850" y="0" type="line"/>
      <point x="2144" y="0" type="line"/>
      <point x="2144" y="1246" type="line" smooth="yes"/>
      <point x="2144" y="1592"/>
      <point x="1993" y="1761"/>
    </contour>
    <component base="RaBeak_Nonexporting" xOffset="556"/>
  </outline>
</glyph>
<glyph name="NgaMatraI_SimpleFly.tm" format="2">
  <advance width="1760"/>
  <note>
NgaMatraI.tm
</note>
  <outline>
    <contour>
      <point x="1730" y="1625" type="line"/>
      <point x="1426" y="1625" type="line" smooth="yes"/>
      <point x="1235" y="1625"/>
      <point x="1150" y="1557"/>
      <point x="1150" y="1417" type="curve" smooth="yes"/>
      <point x="1150" y="1340"/>
      <point x="1174" y="1257"/>
      <point x="1198" y="1179" type="curve" smooth="yes"/>
      <point x="1247" y="1019"/>
      <point x="1271" y="986"/>
      <point x="1426" y="986" type="curve"/>
      <point x="1503" y="986" type="line"/>
      <point x="1560" y="1189" type="line"/>
      <point x="1536" y="1189" type="line"/>
      <point x="1490" y="1189"/>
      <point x="1485" y="1192"/>
      <point x="1468" y="1233" type="curve" smooth="yes"/>
      <point x="1455" y="1262"/>
      <point x="1446" y="1301"/>
      <point x="1446" y="1323" type="curve" smooth="yes"/>
      <point x="1446" y="1358"/>
      <point x="1463" y="1371"/>
      <point x="1512" y="1371" type="curve" smooth="yes"/>
      <point x="1763" y="1371" type="line"/>
    </contour>
    <contour>
      <point x="545" y="1121" type="line"/>
      <point x="545" y="0" type="line"/>
      <point x="840" y="0" type="line"/>
      <point x="840" y="1121" type="line"/>
    </contour>
    <contour>
      <point x="1051" y="817" type="curve" smooth="yes"/>
      <point x="917" y="817"/>
      <point x="862" y="732"/>
      <point x="849" y="638" type="curve"/>
      <point x="831" y="638" type="line"/>
      <point x="831" y="474" type="line"/>
      <point x="836" y="474" type="line"/>
      <point x="840" y="526"/>
      <point x="870" y="559"/>
      <point x="911" y="559" type="curve" smooth="yes"/>
      <point x="965" y="559"/>
      <point x="981" y="525"/>
      <point x="981" y="450" type="curve" smooth="yes"/>
      <point x="981" y="318" type="line" smooth="yes"/>
      <point x="981" y="188"/>
      <point x="964" y="103"/>
      <point x="916" y="17" type="curve"/>
      <point x="916" y="0" type="line"/>
      <point x="1562" y="0" type="line"/>
      <point x="1562" y="250" type="line"/>
      <point x="1203" y="250" type="line"/>
      <point x="1211" y="169" type="line"/>
      <point x="1253" y="230"/>
      <point x="1264" y="274"/>
      <point x="1264" y="385" type="curve" smooth="yes"/>
      <point x="1264" y="515" type="line" smooth="yes"/>
      <point x="1264" y="715"/>
      <point x="1206" y="817"/>
    </contour>
    <contour>
      <point x="1372" y="1189" type="line"/>
      <point x="1372" y="0" type="line"/>
      <point x="1667" y="0" type="line"/>
      <point x="1667" y="1189" type="line"/>
    </contour>
    <contour>
      <point x="950" y="1189" type="line"/>
      <point x="92" y="1189" type="line"/>
      <point x="92" y="0" type="line"/>
      <point x="387" y="0" type="line"/>
      <point x="387" y="935" type="line"/>
      <point x="950" y="935" type="line"/>
    </contour>
    <component base="RaBeak_Nonexporting" xOffset="618"/>
  </outline>
</glyph>
<glyph name="NgaMatraIi.tm" format="2">
  <advance width="1770"/>
  <note>
NgaMatraIi.tm
</note>
  <outline>
    <contour>
      <point x="545" y="1121" type="line"/>
      <point x="545" y="0" type="line"/>
      <point x="840" y="0" type="line"/>
      <point x="840" y="1121" type="line"/>
    </contour>
    <contour>
      <point x="1383" y="1189" type="line"/>
      <point x="1383" y="0" type="line"/>
      <point x="1678" y="0" type="line"/>
      <point x="1678" y="1189" type="line"/>
    </contour>
    <contour>
      <point x="1406" y="1910" type="curve" smooth="yes"/>
      <point x="1175" y="1910"/>
      <point x="1071" y="1776"/>
      <point x="1071" y="1549" type="curve" smooth="yes"/>
      <point x="1071" y="1363" type="line" smooth="yes"/>
      <point x="1071" y="1098"/>
      <point x="1135" y="933"/>
      <point x="1361" y="933" type="curve" smooth="yes"/>
      <point x="1448" y="933" type="line"/>
      <point x="1448" y="1189" type="line"/>
      <point x="1430" y="1189" type="line"/>
      <point x="1373" y="1189"/>
      <point x="1353" y="1235"/>
      <point x="1353" y="1327" type="curve"/>
      <point x="1353" y="1478" type="line"/>
      <point x="1353" y="1612" type="line" smooth="yes"/>
      <point x="1353" y="1656"/>
      <point x="1369" y="1680"/>
      <point x="1406" y="1680" type="curve" smooth="yes"/>
      <point x="1441" y="1680"/>
      <point x="1456" y="1656"/>
      <point x="1456" y="1612" type="curve" smooth="yes"/>
      <point x="1456" y="1522" type="line" smooth="yes"/>
      <point x="1456" y="1479"/>
      <point x="1443" y="1457"/>
      <point x="1406" y="1457" type="curve" smooth="yes"/>
      <point x="1384" y="1457"/>
      <point x="1360" y="1470"/>
      <point x="1351" y="1492" type="curve"/>
      <point x="1341" y="1492" type="line"/>
      <point x="1351" y="1408" type="line"/>
      <point x="1369" y="1408" type="line"/>
      <point x="1404" y="1292" type="line"/>
      <point x="1434" y="1268"/>
      <point x="1484" y="1253"/>
      <point x="1539" y="1253" type="curve" smooth="yes"/>
      <point x="1667" y="1253"/>
      <point x="1732" y="1338"/>
      <point x="1732" y="1511" type="curve" smooth="yes"/>
      <point x="1732" y="1584" type="line" smooth="yes"/>
      <point x="1732" y="1788"/>
      <point x="1637" y="1910"/>
    </contour>
    <contour>
      <point x="950" y="1189" type="line"/>
      <point x="92" y="1189" type="line"/>
      <point x="92" y="0" type="line"/>
      <point x="387" y="0" type="line"/>
      <point x="387" y="935" type="line"/>
      <point x="950" y="935" type="line"/>
    </contour>
    <contour>
      <point x="1051" y="817" type="curve" smooth="yes"/>
      <point x="917" y="817"/>
      <point x="862" y="732"/>
      <point x="849" y="638" type="curve"/>
      <point x="831" y="638" type="line"/>
      <point x="831" y="474" type="line"/>
      <point x="836" y="474" type="line"/>
      <point x="840" y="526"/>
      <point x="870" y="559"/>
      <point x="911" y="559" type="curve" smooth="yes"/>
      <point x="965" y="559"/>
      <point x="981" y="525"/>
      <point x="981" y="450" type="curve" smooth="yes"/>
      <point x="981" y="318" type="line" smooth="yes"/>
      <point x="981" y="188"/>
      <point x="964" y="103"/>
      <point x="916" y="17" type="curve"/>
      <point x="916" y="0" type="line"/>
      <point x="1562" y="0" type="line"/>
      <point x="1562" y="250" type="line"/>
      <point x="1203" y="250" type="line"/>
      <point x="1211" y="169" type="line"/>
      <point x="1253" y="230"/>
      <point x="1264" y="274"/>
      <point x="1264" y="385" type="curve" smooth="yes"/>
      <point x="1264" y="515" type="line" smooth="yes"/>
      <point x="1264" y="715"/>
      <point x="1206" y="817"/>
    </contour>
    <component base="RaBeak_Nonexporting" xOffset="506"/>
  </outline>
</glyph>
<glyph name="NgaMatraIi_SimpleIi.tm" format="2">
  <advance width="1917"/>
  <note>
NgaMatraIi.tm
</note>
  <outline>
    <contour>
      <point x="545" y="1121" type="line"/>
      <point x="545" y="0" type="line"/>
      <point x="840" y="0" type="line"/>
      <point x="840" y="1121" type="line"/>
    </contour>
    <contour>
      <point x="1051" y="817" type="curve" smooth="yes"/>
      <point x="917" y="817"/>
      <point x="862" y="732"/>
      <point x="849" y="638" type="curve"/>
      <point x="831" y="638" type="line"/>
      <point x="831" y="474" type="line"/>
      <point x="836" y="474" type="line"/>
      <point x="840" y="526"/>
      <point x="870" y="559"/>
      <point x="911" y="559" type="curve" smooth="yes"/>
      <point x="965" y="559"/>
      <point x="981" y="525"/>
      <point x="981" y="450" type="curve" smooth="yes"/>
      <point x="981" y="318" type="line" smooth="yes"/>
      <point x="981" y="188"/>
      <point x="964" y="103"/>
      <point x="916" y="17" type="curve"/>
      <point x="916" y="0" type="line"/>
      <point x="1562" y="0" type="line"/>
      <point x="1562" y="250" type="line"/>
      <point x="1203" y="250" type="line"/>
      <point x="1211" y="169" type="line"/>
      <point x="1253" y="230"/>
      <point x="1264" y="274"/>
      <point x="1264" y="385" type="curve" smooth="yes"/>
      <point x="1264" y="515" type="line" smooth="yes"/>
      <point x="1264" y="715"/>
      <point x="1206" y="817"/>
    </contour>
    <contour>
      <point x="1529" y="1189" type="line"/>
      <point x="1529" y="0" type="line"/>
      <point x="1824" y="0" type="line"/>
      <point x="1824" y="1189" type="line"/>
    </contour>
    <contour>
      <point x="950" y="1189" type="line"/>
      <point x="92" y="1189" type="line"/>
      <point x="92" y="0" type="line"/>
      <point x="387" y="0" type="line"/>
      <point x="387" y="935" type="line"/>
      <point x="950" y="935" type="line"/>
    </contour>
    <contour>
      <point x="1646" y="1989" type="curve" smooth="yes"/>
      <point x="1291" y="1989"/>
      <point x="1144" y="1803"/>
      <point x="1144" y="1503" type="curve" smooth="yes"/>
      <point x="1144" y="1148" type="line" smooth="yes"/>
      <point x="1144" y="862"/>
      <point x="1235" y="707"/>
      <point x="1539" y="675" type="curve"/>
      <point x="1539" y="960" type="line"/>
      <point x="1460" y="968"/>
      <point x="1438" y="1040"/>
      <point x="1438" y="1124" type="curve" smooth="yes"/>
      <point x="1438" y="1498" type="line" smooth="yes"/>
      <point x="1438" y="1674"/>
      <point x="1504" y="1757"/>
      <point x="1650" y="1763" type="curve"/>
      <point x="1650" y="1752" type="line"/>
      <point x="1677" y="1757"/>
      <point x="1701" y="1761"/>
      <point x="1729" y="1761" type="curve" smooth="yes"/>
      <point x="1808" y="1761"/>
      <point x="1834" y="1717"/>
      <point x="1834" y="1632" type="curve" smooth="yes"/>
      <point x="1834" y="1529" type="line" smooth="yes"/>
      <point x="1834" y="1483"/>
      <point x="1823" y="1457"/>
      <point x="1790" y="1457" type="curve" smooth="yes"/>
      <point x="1755" y="1457"/>
      <point x="1744" y="1483"/>
      <point x="1744" y="1529" type="curve" smooth="yes"/>
      <point x="1744" y="1652" type="line" smooth="yes"/>
      <point x="1744" y="1702"/>
      <point x="1751" y="1739"/>
      <point x="1777" y="1766" type="curve"/>
      <point x="1650" y="1766" type="line"/>
      <point x="1650" y="1754" type="line"/>
      <point x="1546" y="1715"/>
      <point x="1514" y="1654"/>
      <point x="1514" y="1554" type="curve" smooth="yes"/>
      <point x="1514" y="1526" type="line" smooth="yes"/>
      <point x="1514" y="1361"/>
      <point x="1597" y="1266"/>
      <point x="1790" y="1266" type="curve" smooth="yes"/>
      <point x="1999" y="1266"/>
      <point x="2088" y="1372"/>
      <point x="2088" y="1553" type="curve" smooth="yes"/>
      <point x="2088" y="1601" type="line" smooth="yes"/>
      <point x="2088" y="1840"/>
      <point x="1969" y="1989"/>
    </contour>
    <component base="RaBeak_Nonexporting" xOffset="554"/>
  </outline>
</glyph>
<glyph name="NgaMatraUu_SimpleUu.tm" format="2">
  <advance width="2085"/>
  <note>
NgaMatraUu.tm
</note>
  <guideline x="185" y="518" angle="90"/>
  <guideline x="566" y="518" angle="90"/>
  <anchor x="991" y="1249" name="top"/>
  <outline>
    <contour>
      <point x="1373" y="401" type="line"/>
      <point x="1373" y="-258" type="line"/>
      <point x="1667" y="-258" type="line"/>
      <point x="1667" y="401" type="line"/>
    </contour>
    <contour>
      <point x="1879" y="311" type="curve" smooth="yes"/>
      <point x="1755" y="311"/>
      <point x="1691" y="236"/>
      <point x="1676" y="136" type="curve"/>
      <point x="1638" y="136" type="line"/>
      <point x="1638" y="-31" type="line"/>
      <point x="1656" y="-31" type="line"/>
      <point x="1661" y="24"/>
      <point x="1695" y="61"/>
      <point x="1739" y="61" type="curve" smooth="yes"/>
      <point x="1790" y="61"/>
      <point x="1807" y="24"/>
      <point x="1807" y="-64" type="curve" smooth="yes"/>
      <point x="1807" y="-86" type="line" smooth="yes"/>
      <point x="1807" y="-416"/>
      <point x="1516" y="-512"/>
      <point x="1058" y="-512" type="curve" smooth="yes"/>
      <point x="665" y="-512"/>
      <point x="329" y="-434"/>
      <point x="329" y="-335" type="curve" smooth="yes"/>
      <point x="329" y="-296"/>
      <point x="359" y="-280"/>
      <point x="428" y="-280" type="curve" smooth="yes"/>
      <point x="561" y="-280"/>
      <point x="730" y="-313"/>
      <point x="888" y="-366" type="curve"/>
      <point x="861" y="-129" type="line"/>
      <point x="736" y="-85"/>
      <point x="576" y="-50"/>
      <point x="408" y="-50" type="curve" smooth="yes"/>
      <point x="171" y="-50"/>
      <point x="42" y="-120"/>
      <point x="42" y="-300" type="curve" smooth="yes"/>
      <point x="42" y="-591"/>
      <point x="453" y="-753"/>
      <point x="1058" y="-753" type="curve" smooth="yes"/>
      <point x="1754" y="-753"/>
      <point x="2101" y="-537"/>
      <point x="2101" y="-79" type="curve" smooth="yes"/>
      <point x="2101" y="-20" type="line" smooth="yes"/>
      <point x="2101" y="202"/>
      <point x="2042" y="311"/>
    </contour>
    <component base="Nga_dummy.tm"/>
  </outline>
</glyph>
<glyph name="NnnaMatraAa_Simple.tm" format="2">
  <advance width="2595"/>
  <outline>
    <contour>
      <point x="2057" y="1231" type="curve" smooth="yes"/>
      <point x="1814" y="1231"/>
      <point x="1644" y="1159"/>
      <point x="1543" y="1069" type="curve"/>
      <point x="1733" y="911" type="line"/>
      <point x="1832" y="964"/>
      <point x="1937" y="986"/>
      <point x="2038" y="986" type="curve" smooth="yes"/>
      <point x="2163" y="986"/>
      <point x="2228" y="944"/>
      <point x="2228" y="819" type="curve" smooth="yes"/>
      <point x="2228" y="799" type="line" smooth="yes"/>
      <point x="2228" y="718"/>
      <point x="2209" y="673"/>
      <point x="2123" y="664" type="curve" smooth="yes"/>
      <point x="2093" y="661" type="line"/>
      <point x="2093" y="414" type="line"/>
      <point x="2132" y="410" type="line" smooth="yes"/>
      <point x="2209" y="402"/>
      <point x="2235" y="379"/>
      <point x="2235" y="287" type="curve" smooth="yes"/>
      <point x="2235" y="232" type="line" smooth="yes"/>
      <point x="2235" y="-101"/>
      <point x="2073" y="-265"/>
      <point x="1481" y="-265" type="curve" smooth="yes"/>
      <point x="1354" y="-265" type="line" smooth="yes"/>
      <point x="581" y="-265"/>
      <point x="377" y="6"/>
      <point x="377" y="580" type="curve" smooth="yes"/>
      <point x="377" y="797"/>
      <point x="386" y="1003"/>
      <point x="395" y="1189" type="curve"/>
      <point x="101" y="1189" type="line"/>
      <point x="91" y="1032"/>
      <point x="82" y="813"/>
      <point x="82" y="569" type="curve" smooth="yes"/>
      <point x="82" y="-162"/>
      <point x="421" y="-530"/>
      <point x="1365" y="-530" type="curve" smooth="yes"/>
      <point x="1468" y="-530" type="line" smooth="yes"/>
      <point x="2236" y="-530"/>
      <point x="2525" y="-287"/>
      <point x="2525" y="215" type="curve" smooth="yes"/>
      <point x="2525" y="280" type="line" smooth="yes"/>
      <point x="2525" y="462"/>
      <point x="2478" y="535"/>
      <point x="2323" y="546" type="curve"/>
      <point x="2323" y="556" type="line"/>
      <point x="2476" y="565"/>
      <point x="2518" y="679"/>
      <point x="2518" y="835" type="curve" smooth="yes"/>
      <point x="2518" y="852" type="line" smooth="yes"/>
      <point x="2518" y="1113"/>
      <point x="2381" y="1231"/>
    </contour>
    <contour>
      <point x="1289" y="1231" type="curve" smooth="yes"/>
      <point x="802" y="1231"/>
      <point x="540" y="1008"/>
      <point x="540" y="583" type="curve" smooth="yes"/>
      <point x="540" y="339" type="line" smooth="yes"/>
      <point x="540" y="116"/>
      <point x="649" y="-26"/>
      <point x="884" y="-26" type="curve" smooth="yes"/>
      <point x="1124" y="-26"/>
      <point x="1227" y="112"/>
      <point x="1227" y="329" type="curve" smooth="yes"/>
      <point x="1227" y="519" type="line" smooth="yes"/>
      <point x="1227" y="714"/>
      <point x="1170" y="817"/>
      <point x="1024" y="817" type="curve" smooth="yes"/>
      <point x="898" y="817"/>
      <point x="832" y="726"/>
      <point x="824" y="624" type="curve"/>
      <point x="812" y="624" type="line"/>
      <point x="818" y="499" type="line"/>
      <point x="822" y="539"/>
      <point x="850" y="567"/>
      <point x="884" y="567" type="curve" smooth="yes"/>
      <point x="929" y="567"/>
      <point x="942" y="537"/>
      <point x="942" y="475" type="curve" smooth="yes"/>
      <point x="942" y="315" type="line" smooth="yes"/>
      <point x="942" y="250"/>
      <point x="930" y="217"/>
      <point x="884" y="217" type="curve" smooth="yes"/>
      <point x="838" y="217"/>
      <point x="826" y="250"/>
      <point x="826" y="315" type="curve"/>
      <point x="826" y="624" type="line"/>
      <point x="815" y="624" type="line"/>
      <point x="815" y="624" type="line"/>
      <point x="815" y="859"/>
      <point x="962" y="973"/>
      <point x="1289" y="973" type="curve" smooth="yes"/>
      <point x="1470" y="973"/>
      <point x="1560" y="944"/>
      <point x="1635" y="905" type="curve"/>
      <point x="1648" y="903" type="line"/>
      <point x="1725" y="859"/>
      <point x="1747" y="788"/>
      <point x="1747" y="640" type="curve" smooth="yes"/>
      <point x="1747" y="333" type="line" smooth="yes"/>
      <point x="1747" y="261"/>
      <point x="1729" y="232"/>
      <point x="1681" y="232" type="curve" smooth="yes"/>
      <point x="1632" y="232"/>
      <point x="1611" y="261"/>
      <point x="1611" y="331" type="curve" smooth="yes"/>
      <point x="1611" y="638" type="line" smooth="yes"/>
      <point x="1611" y="788"/>
      <point x="1633" y="859"/>
      <point x="1718" y="903" type="curve"/>
      <point x="1582" y="1069" type="line"/>
      <point x="1383" y="1003"/>
      <point x="1321" y="837"/>
      <point x="1321" y="620" type="curve" smooth="yes"/>
      <point x="1321" y="340" type="line" smooth="yes"/>
      <point x="1321" y="114"/>
      <point x="1431" y="-26"/>
      <point x="1681" y="-26" type="curve" smooth="yes"/>
      <point x="1930" y="-26"/>
      <point x="2038" y="109"/>
      <point x="2038" y="340" type="curve" smooth="yes"/>
      <point x="2038" y="620" type="line" smooth="yes"/>
      <point x="2038" y="835"/>
      <point x="1976" y="994"/>
      <point x="1825" y="1062" type="curve"/>
      <point x="1825" y="1078" type="line"/>
      <point x="1724" y="1168"/>
      <point x="1545" y="1231"/>
    </contour>
  </outline>
</glyph>
<glyph name="Nnna_dummy.tm" format="2">
  <advance width="2114"/>
  <note>
Nnna.tm
</note>
  <guideline x="3712" y="1353" angle="90"/>
  <guideline x="3945" y="1353" angle="90"/>
  <anchor x="1205" y="1249" name="top"/>
  <outline>
    <contour>
      <point x="1689" y="984" type="line"/>
      <point x="1689" y="0" type="line"/>
      <point x="1984" y="0" type="line"/>
      <point x="1984" y="979" type="line"/>
    </contour>
    <contour>
      <point x="1905" y="1189" type="line"/>
      <point x="1479" y="1189" type="line"/>
      <point x="1415" y="1189"/>
      <point x="1349" y="1189"/>
      <point x="1284" y="1189" type="curve"/>
      <point x="1240" y="944" type="line"/>
      <point x="1317" y="944"/>
      <point x="1395" y="944"/>
      <point x="1472" y="944" type="curve"/>
      <point x="1905" y="944" type="line"/>
    </contour>
    <contour>
      <point x="813" y="1231" type="curve" smooth="yes"/>
      <point x="326" y="1231"/>
      <point x="64" y="1008"/>
      <point x="64" y="583" type="curve" smooth="yes"/>
      <point x="64" y="339" type="line" smooth="yes"/>
      <point x="64" y="116"/>
      <point x="173" y="-26"/>
      <point x="408" y="-26" type="curve" smooth="yes"/>
      <point x="648" y="-26"/>
      <point x="751" y="112"/>
      <point x="751" y="329" type="curve" smooth="yes"/>
      <point x="751" y="519" type="line" smooth="yes"/>
      <point x="751" y="714"/>
      <point x="694" y="817"/>
      <point x="548" y="817" type="curve" smooth="yes"/>
      <point x="422" y="817"/>
      <point x="356" y="726"/>
      <point x="348" y="624" type="curve"/>
      <point x="336" y="624" type="line"/>
      <point x="342" y="499" type="line"/>
      <point x="346" y="539"/>
      <point x="374" y="567"/>
      <point x="408" y="567" type="curve" smooth="yes"/>
      <point x="453" y="567"/>
      <point x="466" y="537"/>
      <point x="466" y="475" type="curve" smooth="yes"/>
      <point x="466" y="315" type="line" smooth="yes"/>
      <point x="466" y="250"/>
      <point x="454" y="217"/>
      <point x="408" y="217" type="curve" smooth="yes"/>
      <point x="362" y="217"/>
      <point x="350" y="250"/>
      <point x="350" y="315" type="curve"/>
      <point x="350" y="624" type="line"/>
      <point x="339" y="624" type="line"/>
      <point x="339" y="624" type="line"/>
      <point x="339" y="859"/>
      <point x="486" y="973"/>
      <point x="813" y="973" type="curve" smooth="yes"/>
      <point x="994" y="973"/>
      <point x="1084" y="944"/>
      <point x="1159" y="905" type="curve"/>
      <point x="1172" y="903" type="line"/>
      <point x="1249" y="859"/>
      <point x="1271" y="788"/>
      <point x="1271" y="640" type="curve" smooth="yes"/>
      <point x="1271" y="333" type="line" smooth="yes"/>
      <point x="1271" y="261"/>
      <point x="1253" y="232"/>
      <point x="1205" y="232" type="curve" smooth="yes"/>
      <point x="1156" y="232"/>
      <point x="1135" y="261"/>
      <point x="1135" y="331" type="curve" smooth="yes"/>
      <point x="1135" y="638" type="line" smooth="yes"/>
      <point x="1135" y="788"/>
      <point x="1157" y="859"/>
      <point x="1242" y="903" type="curve"/>
      <point x="1124" y="1069" type="line"/>
      <point x="911" y="1003"/>
      <point x="845" y="837"/>
      <point x="845" y="620" type="curve" smooth="yes"/>
      <point x="845" y="340" type="line" smooth="yes"/>
      <point x="845" y="114"/>
      <point x="955" y="-26"/>
      <point x="1205" y="-26" type="curve" smooth="yes"/>
      <point x="1454" y="-26"/>
      <point x="1562" y="109"/>
      <point x="1562" y="340" type="curve" smooth="yes"/>
      <point x="1562" y="620" type="line" smooth="yes"/>
      <point x="1562" y="839"/>
      <point x="1500" y="994"/>
      <point x="1328" y="1069" type="curve"/>
      <point x="1328" y="1091" type="line"/>
      <point x="1231" y="1174"/>
      <point x="1060" y="1231"/>
    </contour>
    <component base="RaBeak_Nonexporting" xOffset="1594"/>
  </outline>
</glyph>
<glyph name="NyaMatraI.tm" format="2">
  <advance width="2124"/>
  <note>
NyaMatraI.tm
</note>
  <outline>
    <contour>
      <point x="1314" y="1121" type="line"/>
      <point x="1314" y="0" type="line"/>
      <point x="1608" y="0" type="line"/>
      <point x="1608" y="1121" type="line"/>
    </contour>
    <contour>
      <point x="1825" y="817" type="curve" smooth="yes"/>
      <point x="1700" y="817"/>
      <point x="1632" y="738"/>
      <point x="1617" y="633" type="curve"/>
      <point x="1579" y="633" type="line"/>
      <point x="1579" y="466" type="line"/>
      <point x="1599" y="466" type="line"/>
      <point x="1604" y="526"/>
      <point x="1641" y="567"/>
      <point x="1687" y="567" type="curve" smooth="yes"/>
      <point x="1744" y="567"/>
      <point x="1763" y="528"/>
      <point x="1763" y="427" type="curve" smooth="yes"/>
      <point x="1763" y="355" type="line" smooth="yes"/>
      <point x="1763" y="-57"/>
      <point x="1619" y="-254"/>
      <point x="1130" y="-254" type="curve" smooth="yes"/>
      <point x="1119" y="-254" type="line" smooth="yes"/>
      <point x="555" y="-254"/>
      <point x="381" y="-20"/>
      <point x="381" y="469" type="curve" smooth="yes"/>
      <point x="381" y="1189" type="line"/>
      <point x="86" y="1189" type="line"/>
      <point x="86" y="458" type="line" smooth="yes"/>
      <point x="86" y="-191"/>
      <point x="381" y="-519"/>
      <point x="1119" y="-519" type="curve" smooth="yes"/>
      <point x="1130" y="-519" type="line" smooth="yes"/>
      <point x="1801" y="-519"/>
      <point x="2057" y="-230"/>
      <point x="2057" y="344" type="curve" smooth="yes"/>
      <point x="2057" y="467" type="line" smooth="yes"/>
      <point x="2057" y="699"/>
      <point x="1996" y="817"/>
    </contour>
    <contour>
      <point x="1641" y="1189" type="line"/>
      <point x="1131" y="1189" type="line"/>
      <point x="1131" y="935" type="line"/>
      <point x="1641" y="935" type="line"/>
    </contour>
    <contour>
      <point x="1690" y="1781" type="curve" smooth="yes"/>
      <point x="1417" y="1781"/>
      <point x="1292" y="1635"/>
      <point x="1292" y="1365" type="curve" smooth="yes"/>
      <point x="1292" y="1306" type="line" smooth="yes"/>
      <point x="1292" y="1254"/>
      <point x="1305" y="1204"/>
      <point x="1338" y="1176" type="curve"/>
      <point x="1608" y="1176" type="line"/>
      <point x="1585" y="1204"/>
      <point x="1578" y="1236"/>
      <point x="1578" y="1299" type="curve"/>
      <point x="1578" y="1358" type="line"/>
      <point x="1578" y="1473"/>
      <point x="1606" y="1525"/>
      <point x="1687" y="1525" type="curve" smooth="yes"/>
      <point x="1766" y="1525"/>
      <point x="1791" y="1473"/>
      <point x="1791" y="1358" type="curve" smooth="yes"/>
      <point x="1791" y="881" type="line"/>
      <point x="2075" y="881" type="line"/>
      <point x="2075" y="1345" type="line" smooth="yes"/>
      <point x="2075" y="1635"/>
      <point x="1963" y="1781"/>
    </contour>
    <component base="VowelE_NonExporting" xOffset="460"/>
    <component base="RaBeak_Nonexporting" xOffset="1206"/>
  </outline>
</glyph>
<glyph name="NyaMatraU.tm" format="2">
  <advance width="2148"/>
  <note>
NyaMatraU.tm
</note>
  <outline>
    <contour>
      <point x="853" y="1121" type="line"/>
      <point x="853" y="0" type="line"/>
      <point x="1148" y="0" type="line"/>
      <point x="1148" y="1121" type="line"/>
    </contour>
    <contour>
      <point x="1365" y="817" type="curve" smooth="yes"/>
      <point x="1240" y="817"/>
      <point x="1172" y="738"/>
      <point x="1157" y="633" type="curve"/>
      <point x="1119" y="633" type="line"/>
      <point x="1119" y="466" type="line"/>
      <point x="1139" y="466" type="line"/>
      <point x="1144" y="526"/>
      <point x="1181" y="567"/>
      <point x="1227" y="567" type="curve" smooth="yes"/>
      <point x="1284" y="567"/>
      <point x="1303" y="528"/>
      <point x="1303" y="427" type="curve" smooth="yes"/>
      <point x="1303" y="193" type="line" smooth="yes"/>
      <point x="1303" y="0"/>
      <point x="1255" y="-136"/>
      <point x="1029" y="-136" type="curve" smooth="yes"/>
      <point x="7" y="-136" type="line"/>
      <point x="38" y="-390" type="line"/>
      <point x="2056" y="-390" type="line"/>
      <point x="2056" y="-140" type="line"/>
      <point x="1435" y="-140" type="line"/>
      <point x="1435" y="-131" type="line"/>
      <point x="1560" y="-109"/>
      <point x="1597" y="9"/>
      <point x="1597" y="197" type="curve" smooth="yes"/>
      <point x="1597" y="467" type="line" smooth="yes"/>
      <point x="1597" y="699"/>
      <point x="1536" y="817"/>
    </contour>
    <contour>
      <point x="1761" y="1189" type="line"/>
      <point x="1761" y="-221" type="line"/>
      <point x="2056" y="-221" type="line"/>
      <point x="2056" y="1189" type="line"/>
    </contour>
    <contour>
      <point x="1234" y="1189" type="line"/>
      <point x="748" y="1189" type="line"/>
      <point x="748" y="935" type="line"/>
      <point x="1234" y="935" type="line"/>
    </contour>
    <component base="VowelE_NonExporting"/>
    <component base="RaBeak_Nonexporting" xOffset="931"/>
  </outline>
</glyph>
<glyph name="NyaMatraU_Simple.tm" format="2">
  <advance width="2148"/>
  <note>
NyaMatraU.tm
</note>
  <guideline x="1680" y="1525" angle="270"/>
  <outline>
    <contour>
      <point x="853" y="1121" type="line"/>
      <point x="853" y="0" type="line"/>
      <point x="1148" y="0" type="line"/>
      <point x="1148" y="1121" type="line"/>
    </contour>
    <contour>
      <point x="1365" y="817" type="curve" smooth="yes"/>
      <point x="1240" y="817"/>
      <point x="1172" y="738"/>
      <point x="1157" y="633" type="curve"/>
      <point x="1119" y="633" type="line"/>
      <point x="1119" y="466" type="line"/>
      <point x="1139" y="466" type="line"/>
      <point x="1144" y="526"/>
      <point x="1181" y="567"/>
      <point x="1227" y="567" type="curve" smooth="yes"/>
      <point x="1284" y="567"/>
      <point x="1303" y="528"/>
      <point x="1303" y="427" type="curve" smooth="yes"/>
      <point x="1303" y="188" type="line" smooth="yes"/>
      <point x="1303" y="15"/>
      <point x="1295" y="-123"/>
      <point x="1286" y="-201" type="curve"/>
      <point x="1281" y="-280" type="line"/>
      <point x="1259" y="-438"/>
      <point x="1113" y="-561"/>
      <point x="821" y="-561" type="curve" smooth="yes"/>
      <point x="530" y="-561"/>
      <point x="401" y="-466"/>
      <point x="361" y="-353" type="curve"/>
      <point x="2056" y="-353" type="line"/>
      <point x="2056" y="-118" type="line"/>
      <point x="35" y="-118" type="line"/>
      <point x="44" y="-563"/>
      <point x="316" y="-793"/>
      <point x="821" y="-793" type="curve" smooth="yes"/>
      <point x="1303" y="-793"/>
      <point x="1524" y="-583"/>
      <point x="1575" y="-293" type="curve"/>
      <point x="1577" y="-239" type="line"/>
      <point x="1590" y="-140"/>
      <point x="1597" y="-44"/>
      <point x="1597" y="191" type="curve" smooth="yes"/>
      <point x="1597" y="467" type="line" smooth="yes"/>
      <point x="1597" y="699"/>
      <point x="1536" y="817"/>
    </contour>
    <contour>
      <point x="1761" y="1189" type="line"/>
      <point x="1761" y="-217" type="line"/>
      <point x="2056" y="-217" type="line"/>
      <point x="2056" y="1189" type="line"/>
    </contour>
    <contour>
      <point x="747" y="1189" type="line"/>
      <point x="747" y="935" type="line"/>
      <point x="1212" y="935" type="line"/>
      <point x="1212" y="1189" type="line"/>
    </contour>
    <component base="VowelE_NonExporting"/>
    <component base="RaBeak_Nonexporting" xOffset="931"/>
  </outline>
</glyph>
<glyph name="PaMatraI.tm" format="2">
  <advance width="1565"/>
  <note>
PaMatraI.tm
</note>
  <outline>
    <contour>
      <point x="703" y="1189" type="line"/>
      <point x="703" y="258" type="line"/>
      <point x="438" y="258" type="line"/>
      <point x="438" y="0" type="line"/>
      <point x="997" y="0" type="line"/>
      <point x="997" y="1189" type="line"/>
    </contour>
    <contour>
      <point x="386" y="1189" type="line"/>
      <point x="92" y="1189" type="line"/>
      <point x="92" y="0" type="line"/>
      <point x="600" y="0" type="line"/>
      <point x="600" y="258" type="line"/>
      <point x="386" y="258" type="line"/>
    </contour>
    <contour>
      <point x="953" y="1761" type="curve" smooth="yes"/>
      <point x="626" y="1761"/>
      <point x="452" y="1593"/>
      <point x="452" y="1349" type="curve" smooth="yes"/>
      <point x="452" y="1345" type="line" smooth="yes"/>
      <point x="452" y="1133"/>
      <point x="560" y="981"/>
      <point x="822" y="964" type="curve"/>
      <point x="934" y="1189" type="line"/>
      <point x="798" y="1189"/>
      <point x="747" y="1249"/>
      <point x="747" y="1336" type="curve" smooth="yes"/>
      <point x="747" y="1340" type="line" smooth="yes"/>
      <point x="747" y="1437"/>
      <point x="814" y="1500"/>
      <point x="953" y="1500" type="curve" smooth="yes"/>
      <point x="1119" y="1500"/>
      <point x="1179" y="1432"/>
      <point x="1179" y="1268" type="curve" smooth="yes"/>
      <point x="1179" y="0" type="line"/>
      <point x="1473" y="0" type="line"/>
      <point x="1473" y="1246" type="line" smooth="yes"/>
      <point x="1473" y="1592"/>
      <point x="1322" y="1761"/>
    </contour>
  </outline>
</glyph>
<glyph name="PaMatraI_Fly.tm" format="2">
  <advance width="1209"/>
  <outline>
    <contour>
      <point x="819" y="1189" type="line"/>
      <point x="819" y="258" type="line"/>
      <point x="668" y="258" type="line"/>
      <point x="668" y="0" type="line"/>
      <point x="1117" y="0" type="line"/>
      <point x="1117" y="1189" type="line"/>
    </contour>
    <contour>
      <point x="390" y="1189" type="line"/>
      <point x="92" y="1189" type="line"/>
      <point x="92" y="0" type="line"/>
      <point x="762" y="0" type="line"/>
      <point x="762" y="258" type="line"/>
      <point x="390" y="258" type="line"/>
    </contour>
    <contour>
      <point x="1148" y="1625" type="line"/>
      <point x="749" y="1625" type="line" smooth="yes"/>
      <point x="526" y="1625"/>
      <point x="427" y="1536"/>
      <point x="427" y="1360" type="curve" smooth="yes"/>
      <point x="427" y="1262"/>
      <point x="464" y="1111"/>
      <point x="484" y="1051" type="curve" smooth="yes"/>
      <point x="534" y="900"/>
      <point x="589" y="863"/>
      <point x="764" y="863" type="curve" smooth="yes"/>
      <point x="832" y="863" type="line"/>
      <point x="832" y="1098" type="line"/>
      <point x="815" y="1098" type="line" smooth="yes"/>
      <point x="769" y="1098"/>
      <point x="756" y="1113"/>
      <point x="745" y="1157" type="curve" smooth="yes"/>
      <point x="736" y="1196"/>
      <point x="723" y="1270"/>
      <point x="723" y="1312" type="curve" smooth="yes"/>
      <point x="723" y="1354"/>
      <point x="743" y="1371"/>
      <point x="800" y="1371" type="curve" smooth="yes"/>
      <point x="1181" y="1371" type="line"/>
    </contour>
  </outline>
</glyph>
<glyph name="PaMatraI_SimpleI.tm" format="2">
  <advance width="1697"/>
  <note>
PaMatraI.tm
</note>
  <outline>
    <contour>
      <point x="837" y="1189" type="line"/>
      <point x="837" y="258" type="line"/>
      <point x="502" y="258" type="line"/>
      <point x="502" y="0" type="line"/>
      <point x="1132" y="0" type="line"/>
      <point x="1132" y="1189" type="line"/>
    </contour>
    <contour>
      <point x="390" y="1189" type="line"/>
      <point x="92" y="1189" type="line"/>
      <point x="92" y="0" type="line"/>
      <point x="688" y="0" type="line"/>
      <point x="688" y="258" type="line"/>
      <point x="390" y="258" type="line"/>
    </contour>
    <contour>
      <point x="1033" y="1781" type="curve" smooth="yes"/>
      <point x="651" y="1781"/>
      <point x="456" y="1564"/>
      <point x="456" y="1196" type="curve" smooth="yes"/>
      <point x="456" y="1148" type="line" smooth="yes"/>
      <point x="456" y="868"/>
      <point x="564" y="710"/>
      <point x="847" y="682" type="curve"/>
      <point x="847" y="960" type="line"/>
      <point x="768" y="968"/>
      <point x="746" y="1040"/>
      <point x="746" y="1124" type="curve" smooth="yes"/>
      <point x="746" y="1190" type="line" smooth="yes"/>
      <point x="746" y="1402"/>
      <point x="826" y="1519"/>
      <point x="1033" y="1519" type="curve" smooth="yes"/>
      <point x="1239" y="1519"/>
      <point x="1310" y="1403"/>
      <point x="1310" y="1170" type="curve" smooth="yes"/>
      <point x="1310" y="0" type="line"/>
      <point x="1605" y="0" type="line"/>
      <point x="1605" y="1148" type="line" smooth="yes"/>
      <point x="1605" y="1547"/>
      <point x="1423" y="1781"/>
    </contour>
  </outline>
</glyph>
<glyph name="PaMatraIi.tm" format="2">
  <advance width="1113"/>
  <note>
PaMatraIi.tm
</note>
  <outline>
    <contour>
      <point x="386" y="1189" type="line"/>
      <point x="92" y="1189" type="line"/>
      <point x="92" y="0" type="line"/>
      <point x="627" y="0" type="line"/>
      <point x="627" y="258" type="line"/>
      <point x="386" y="258" type="line"/>
    </contour>
    <contour>
      <point x="1021" y="1189" type="line"/>
      <point x="727" y="1189" type="line"/>
      <point x="727" y="258" type="line"/>
      <point x="466" y="258" type="line"/>
      <point x="466" y="0" type="line"/>
      <point x="1021" y="0" type="line"/>
    </contour>
    <contour>
      <point x="749" y="1910" type="curve" smooth="yes"/>
      <point x="518" y="1910"/>
      <point x="414" y="1776"/>
      <point x="414" y="1549" type="curve" smooth="yes"/>
      <point x="414" y="1363" type="line" smooth="yes"/>
      <point x="414" y="1098"/>
      <point x="478" y="933"/>
      <point x="705" y="933" type="curve" smooth="yes"/>
      <point x="791" y="933" type="line"/>
      <point x="791" y="1189" type="line"/>
      <point x="773" y="1189" type="line"/>
      <point x="716" y="1189"/>
      <point x="696" y="1235"/>
      <point x="696" y="1327" type="curve"/>
      <point x="696" y="1478" type="line"/>
      <point x="696" y="1612" type="line" smooth="yes"/>
      <point x="696" y="1656"/>
      <point x="712" y="1680"/>
      <point x="749" y="1680" type="curve" smooth="yes"/>
      <point x="784" y="1680"/>
      <point x="799" y="1656"/>
      <point x="799" y="1612" type="curve" smooth="yes"/>
      <point x="799" y="1522" type="line" smooth="yes"/>
      <point x="799" y="1479"/>
      <point x="786" y="1457"/>
      <point x="749" y="1457" type="curve" smooth="yes"/>
      <point x="727" y="1457"/>
      <point x="703" y="1470"/>
      <point x="694" y="1492" type="curve"/>
      <point x="684" y="1492" type="line"/>
      <point x="694" y="1408" type="line"/>
      <point x="712" y="1408" type="line"/>
      <point x="747" y="1292" type="line"/>
      <point x="777" y="1268"/>
      <point x="825" y="1253"/>
      <point x="882" y="1253" type="curve" smooth="yes"/>
      <point x="1009" y="1253"/>
      <point x="1075" y="1338"/>
      <point x="1075" y="1511" type="curve" smooth="yes"/>
      <point x="1075" y="1584" type="line" smooth="yes"/>
      <point x="1075" y="1788"/>
      <point x="980" y="1910"/>
    </contour>
  </outline>
</glyph>
<glyph name="PaMatraIi_SimpleIi.tm" format="2">
  <advance width="1205"/>
  <note>
PaMatraIi.tm
</note>
  <outline>
    <contour>
      <point x="390" y="1189" type="line"/>
      <point x="92" y="1189" type="line"/>
      <point x="92" y="0" type="line"/>
      <point x="707" y="0" type="line"/>
      <point x="707" y="258" type="line"/>
      <point x="390" y="258" type="line"/>
    </contour>
    <contour>
      <point x="819" y="1189" type="line"/>
      <point x="819" y="258" type="line"/>
      <point x="447" y="258" type="line"/>
      <point x="447" y="0" type="line"/>
      <point x="1113" y="0" type="line"/>
      <point x="1113" y="1189" type="line"/>
    </contour>
    <contour>
      <point x="934" y="1989" type="curve" smooth="yes"/>
      <point x="579" y="1989"/>
      <point x="432" y="1803"/>
      <point x="432" y="1503" type="curve" smooth="yes"/>
      <point x="432" y="1148" type="line" smooth="yes"/>
      <point x="432" y="862"/>
      <point x="523" y="707"/>
      <point x="827" y="675" type="curve"/>
      <point x="827" y="960" type="line"/>
      <point x="748" y="968"/>
      <point x="726" y="1040"/>
      <point x="726" y="1124" type="curve" smooth="yes"/>
      <point x="726" y="1498" type="line" smooth="yes"/>
      <point x="726" y="1674"/>
      <point x="792" y="1757"/>
      <point x="938" y="1763" type="curve"/>
      <point x="938" y="1752" type="line"/>
      <point x="965" y="1757"/>
      <point x="989" y="1761"/>
      <point x="1017" y="1761" type="curve" smooth="yes"/>
      <point x="1096" y="1761"/>
      <point x="1122" y="1717"/>
      <point x="1122" y="1632" type="curve" smooth="yes"/>
      <point x="1122" y="1529" type="line" smooth="yes"/>
      <point x="1122" y="1483"/>
      <point x="1111" y="1457"/>
      <point x="1078" y="1457" type="curve" smooth="yes"/>
      <point x="1043" y="1457"/>
      <point x="1032" y="1483"/>
      <point x="1032" y="1529" type="curve" smooth="yes"/>
      <point x="1032" y="1652" type="line" smooth="yes"/>
      <point x="1032" y="1702"/>
      <point x="1039" y="1739"/>
      <point x="1065" y="1766" type="curve"/>
      <point x="938" y="1766" type="line"/>
      <point x="938" y="1754" type="line"/>
      <point x="834" y="1715"/>
      <point x="802" y="1654"/>
      <point x="802" y="1554" type="curve" smooth="yes"/>
      <point x="802" y="1526" type="line" smooth="yes"/>
      <point x="802" y="1361"/>
      <point x="885" y="1266"/>
      <point x="1078" y="1266" type="curve" smooth="yes"/>
      <point x="1287" y="1266"/>
      <point x="1376" y="1372"/>
      <point x="1376" y="1553" type="curve" smooth="yes"/>
      <point x="1376" y="1601" type="line" smooth="yes"/>
      <point x="1376" y="1840"/>
      <point x="1257" y="1989"/>
    </contour>
  </outline>
</glyph>
<glyph name="Pa_dummy.tm" format="2">
  <advance width="1005"/>
  <note>
Pa.tm
</note>
  <anchor x="498" y="1249" name="top"/>
  <outline>
    <contour>
      <point x="615" y="1189" type="line"/>
      <point x="615" y="258" type="line"/>
      <point x="464" y="258" type="line"/>
      <point x="464" y="0" type="line"/>
      <point x="913" y="0" type="line"/>
      <point x="913" y="1189" type="line"/>
    </contour>
    <contour>
      <point x="390" y="1189" type="line"/>
      <point x="92" y="1189" type="line"/>
      <point x="92" y="0" type="line"/>
      <point x="504" y="0" type="line"/>
      <point x="504" y="258" type="line"/>
      <point x="390" y="258" type="line"/>
    </contour>
  </outline>
</glyph>
<glyph name="PulliDflt_Half.tm" format="2">
  <note>
PulliDflt.tm
</note>
  <anchor x="145" y="1249" name="_top"/>
  <outline>
    <contour>
      <point x="145" y="1297" type="curve" smooth="yes"/>
      <point x="248" y="1297"/>
      <point x="291" y="1359"/>
      <point x="291" y="1472" type="curve" smooth="yes"/>
      <point x="291" y="1492" type="line" smooth="yes"/>
      <point x="291" y="1602"/>
      <point x="247" y="1665"/>
      <point x="145" y="1665" type="curve" smooth="yes"/>
      <point x="44" y="1665"/>
      <point x="0" y="1602"/>
      <point x="0" y="1492" type="curve" smooth="yes"/>
      <point x="0" y="1472" type="line" smooth="yes"/>
      <point x="0" y="1359"/>
      <point x="42" y="1297"/>
    </contour>
  </outline>
</glyph>
<glyph name="RaBeak_Nonexporting" format="2">
  <advance width="534"/>
  <outline>
    <contour>
      <point x="235" y="935" type="line"/>
      <point x="534" y="935" type="line"/>
      <point x="513" y="1189" type="line"/>
      <point x="235" y="1189" type="line"/>
    </contour>
  </outline>
</glyph>
<glyph name="RraMatraI_Fly.tm" format="2">
  <advance width="1371"/>
  <note>
RraMatraI.tm
</note>
  <anchor x="698" y="1249" name="top"/>
  <outline>
    <contour>
      <point x="1355" y="1625" type="line"/>
      <point x="1067" y="1625" type="line" smooth="yes"/>
      <point x="871" y="1625"/>
      <point x="785" y="1553"/>
      <point x="785" y="1411" type="curve" smooth="yes"/>
      <point x="785" y="1329"/>
      <point x="800" y="1289"/>
      <point x="865" y="1159" type="curve"/>
      <point x="1134" y="1159" type="line"/>
      <point x="1099" y="1212"/>
      <point x="1072" y="1280"/>
      <point x="1072" y="1317" type="curve" smooth="yes"/>
      <point x="1072" y="1356"/>
      <point x="1090" y="1371"/>
      <point x="1144" y="1371" type="curve" smooth="yes"/>
      <point x="1389" y="1371" type="line"/>
    </contour>
    <component base="Rra_Simple.tm"/>
  </outline>
</glyph>
<glyph name="RraMatraU_Simple.tm" format="2">
  <advance width="1856"/>
  <note>
RraMatraU.tm
</note>
  <outline>
    <contour>
      <point x="1469" y="1189" type="line"/>
      <point x="1469" y="-217" type="line"/>
      <point x="1764" y="-217" type="line"/>
      <point x="1764" y="1189" type="line"/>
    </contour>
    <contour>
      <point x="988" y="1224" type="curve" smooth="yes"/>
      <point x="801" y="1224"/>
      <point x="712" y="1137"/>
      <point x="692" y="990" type="curve"/>
      <point x="683" y="990" type="line"/>
      <point x="666" y="1139"/>
      <point x="581" y="1224"/>
      <point x="419" y="1224" type="curve" smooth="yes"/>
      <point x="205" y="1224"/>
      <point x="88" y="1110"/>
      <point x="88" y="841" type="curve" smooth="yes"/>
      <point x="88" y="0" type="line"/>
      <point x="382" y="0" type="line"/>
      <point x="382" y="857" type="line" smooth="yes"/>
      <point x="382" y="935"/>
      <point x="409" y="966"/>
      <point x="459" y="966" type="curve" smooth="yes"/>
      <point x="513" y="966"/>
      <point x="532" y="935"/>
      <point x="532" y="857" type="curve" smooth="yes"/>
      <point x="532" y="0" type="line"/>
      <point x="826" y="0" type="line"/>
      <point x="826" y="832" type="line" smooth="yes"/>
      <point x="826" y="933"/>
      <point x="856" y="966"/>
      <point x="918" y="966" type="curve" smooth="yes"/>
      <point x="975" y="966"/>
      <point x="1005" y="933"/>
      <point x="1005" y="832" type="curve" smooth="yes"/>
      <point x="1005" y="799" type="line" smooth="yes"/>
      <point x="1005" y="714"/>
      <point x="986" y="667"/>
      <point x="900" y="657" type="curve" smooth="yes"/>
      <point x="882" y="655" type="line"/>
      <point x="882" y="405" type="line"/>
      <point x="909" y="403" type="line" smooth="yes"/>
      <point x="986" y="397"/>
      <point x="1012" y="361"/>
      <point x="1012" y="252" type="curve" smooth="yes"/>
      <point x="1012" y="178" type="line" smooth="yes"/>
      <point x="1012" y="9"/>
      <point x="1005" y="-125"/>
      <point x="996" y="-201" type="curve"/>
      <point x="990" y="-280" type="line"/>
      <point x="975" y="-412"/>
      <point x="877" y="-513"/>
      <point x="672" y="-513" type="curve" smooth="yes"/>
      <point x="472" y="-513"/>
      <point x="382" y="-442"/>
      <point x="357" y="-353" type="curve"/>
      <point x="1764" y="-353" type="line"/>
      <point x="1764" y="-118" type="line"/>
      <point x="31" y="-118" type="line"/>
      <point x="38" y="-532"/>
      <point x="258" y="-745"/>
      <point x="672" y="-745" type="curve" smooth="yes"/>
      <point x="1063" y="-745"/>
      <point x="1238" y="-556"/>
      <point x="1280" y="-293" type="curve"/>
      <point x="1282" y="-239" type="line"/>
      <point x="1295" y="-142"/>
      <point x="1303" y="-48"/>
      <point x="1303" y="182" type="curve" smooth="yes"/>
      <point x="1303" y="241" type="line" smooth="yes"/>
      <point x="1303" y="442"/>
      <point x="1255" y="528"/>
      <point x="1100" y="539" type="curve"/>
      <point x="1100" y="548" type="line"/>
      <point x="1253" y="558"/>
      <point x="1295" y="675"/>
      <point x="1295" y="835" type="curve" smooth="yes"/>
      <point x="1295" y="865" type="line" smooth="yes"/>
      <point x="1295" y="1111"/>
      <point x="1204" y="1224"/>
    </contour>
  </outline>
</glyph>
<glyph name="SaMatraI_Fly.tm" format="2">
  <advance width="2109"/>
  <note>
SaMatraI.tm
</note>
  <outline>
    <contour>
      <point x="587" y="1224" type="curve" smooth="yes"/>
      <point x="247" y="1224"/>
      <point x="68" y="1010"/>
      <point x="68" y="609" type="curve" smooth="yes"/>
      <point x="68" y="339" type="line" smooth="yes"/>
      <point x="68" y="116"/>
      <point x="177" y="-26"/>
      <point x="412" y="-26" type="curve" smooth="yes"/>
      <point x="652" y="-26"/>
      <point x="755" y="112"/>
      <point x="755" y="329" type="curve" smooth="yes"/>
      <point x="755" y="519" type="line" smooth="yes"/>
      <point x="755" y="714"/>
      <point x="698" y="817"/>
      <point x="552" y="817" type="curve" smooth="yes"/>
      <point x="426" y="817"/>
      <point x="360" y="726"/>
      <point x="352" y="624" type="curve"/>
      <point x="340" y="624" type="line"/>
      <point x="346" y="499" type="line"/>
      <point x="350" y="539"/>
      <point x="378" y="567"/>
      <point x="412" y="567" type="curve" smooth="yes"/>
      <point x="457" y="567"/>
      <point x="470" y="537"/>
      <point x="470" y="475" type="curve" smooth="yes"/>
      <point x="470" y="315" type="line" smooth="yes"/>
      <point x="470" y="250"/>
      <point x="458" y="217"/>
      <point x="412" y="217" type="curve" smooth="yes"/>
      <point x="366" y="217"/>
      <point x="354" y="250"/>
      <point x="354" y="315" type="curve"/>
      <point x="354" y="624" type="line"/>
      <point x="343" y="624" type="line"/>
      <point x="343" y="629"/>
      <point x="343" y="629"/>
      <point x="343" y="635" type="curve" smooth="yes"/>
      <point x="343" y="854"/>
      <point x="427" y="959"/>
      <point x="613" y="959" type="curve" smooth="yes"/>
      <point x="784" y="959"/>
      <point x="863" y="854"/>
      <point x="863" y="648" type="curve" smooth="yes"/>
      <point x="863" y="0" type="line"/>
      <point x="1158" y="0" type="line"/>
      <point x="1158" y="870" type="line" smooth="yes"/>
      <point x="1158" y="933"/>
      <point x="1183" y="962"/>
      <point x="1228" y="962" type="curve" smooth="yes"/>
      <point x="1274" y="962"/>
      <point x="1298" y="933"/>
      <point x="1298" y="870" type="curve" smooth="yes"/>
      <point x="1298" y="368" type="line" smooth="yes"/>
      <point x="1298" y="123"/>
      <point x="1399" y="-26"/>
      <point x="1667" y="-26" type="curve" smooth="yes"/>
      <point x="1930" y="-26"/>
      <point x="2034" y="123"/>
      <point x="2034" y="368" type="curve" smooth="yes"/>
      <point x="2034" y="897" type="line" smooth="yes"/>
      <point x="2034" y="1089"/>
      <point x="1981" y="1224"/>
      <point x="1808" y="1224" type="curve" smooth="yes"/>
      <point x="1777" y="1224"/>
      <point x="1754" y="1218"/>
      <point x="1725" y="1202" type="curve"/>
      <point x="1850" y="1179" type="line"/>
      <point x="1824" y="1237"/>
      <point x="1808" y="1286"/>
      <point x="1808" y="1317" type="curve" smooth="yes"/>
      <point x="1808" y="1356"/>
      <point x="1826" y="1371"/>
      <point x="1880" y="1371" type="curve" smooth="yes"/>
      <point x="2124" y="1371" type="line"/>
      <point x="2091" y="1625" type="line"/>
      <point x="1797" y="1625" type="line" smooth="yes"/>
      <point x="1605" y="1625"/>
      <point x="1521" y="1557"/>
      <point x="1521" y="1417" type="curve" smooth="yes"/>
      <point x="1521" y="1321"/>
      <point x="1540" y="1257"/>
      <point x="1628" y="1005" type="curve"/>
      <point x="1629" y="1005"/>
      <point x="1639" y="1005"/>
      <point x="1639" y="1005" type="curve" smooth="yes"/>
      <point x="1721" y="1005"/>
      <point x="1736" y="973"/>
      <point x="1736" y="854" type="curve" smooth="yes"/>
      <point x="1736" y="348" type="line" smooth="yes"/>
      <point x="1736" y="280"/>
      <point x="1724" y="236"/>
      <point x="1667" y="236" type="curve" smooth="yes"/>
      <point x="1608" y="236"/>
      <point x="1593" y="280"/>
      <point x="1593" y="348" type="curve" smooth="yes"/>
      <point x="1593" y="861" type="line" smooth="yes"/>
      <point x="1593" y="1093"/>
      <point x="1512" y="1224"/>
      <point x="1285" y="1224" type="curve" smooth="yes"/>
      <point x="1082" y="1224"/>
      <point x="996" y="1100"/>
      <point x="996" y="942" type="curve" smooth="yes"/>
      <point x="996" y="940" type="line"/>
      <point x="988" y="940" type="line"/>
      <point x="955" y="1104"/>
      <point x="828" y="1224"/>
    </contour>
  </outline>
</glyph>
<glyph name="SaMatraIi.tm" format="2">
  <advance width="2111"/>
  <note>
SaMatraIi.tm
</note>
  <outline>
    <contour>
      <point x="587" y="1224" type="curve" smooth="yes"/>
      <point x="247" y="1224"/>
      <point x="68" y="1010"/>
      <point x="68" y="609" type="curve" smooth="yes"/>
      <point x="68" y="339" type="line" smooth="yes"/>
      <point x="68" y="116"/>
      <point x="177" y="-26"/>
      <point x="412" y="-26" type="curve" smooth="yes"/>
      <point x="652" y="-26"/>
      <point x="755" y="112"/>
      <point x="755" y="329" type="curve" smooth="yes"/>
      <point x="755" y="519" type="line" smooth="yes"/>
      <point x="755" y="714"/>
      <point x="698" y="817"/>
      <point x="552" y="817" type="curve" smooth="yes"/>
      <point x="426" y="817"/>
      <point x="360" y="726"/>
      <point x="352" y="624" type="curve"/>
      <point x="340" y="624" type="line"/>
      <point x="346" y="499" type="line"/>
      <point x="350" y="539"/>
      <point x="378" y="567"/>
      <point x="412" y="567" type="curve" smooth="yes"/>
      <point x="457" y="567"/>
      <point x="470" y="537"/>
      <point x="470" y="475" type="curve" smooth="yes"/>
      <point x="470" y="315" type="line" smooth="yes"/>
      <point x="470" y="250"/>
      <point x="458" y="217"/>
      <point x="412" y="217" type="curve" smooth="yes"/>
      <point x="366" y="217"/>
      <point x="354" y="250"/>
      <point x="354" y="315" type="curve"/>
      <point x="354" y="624" type="line"/>
      <point x="343" y="624" type="line"/>
      <point x="343" y="629"/>
      <point x="343" y="629"/>
      <point x="343" y="635" type="curve" smooth="yes"/>
      <point x="343" y="854"/>
      <point x="427" y="959"/>
      <point x="613" y="959" type="curve" smooth="yes"/>
      <point x="784" y="959"/>
      <point x="863" y="854"/>
      <point x="863" y="648" type="curve" smooth="yes"/>
      <point x="863" y="0" type="line"/>
      <point x="1158" y="0" type="line"/>
      <point x="1158" y="870" type="line" smooth="yes"/>
      <point x="1158" y="933"/>
      <point x="1183" y="962"/>
      <point x="1228" y="962" type="curve" smooth="yes"/>
      <point x="1274" y="962"/>
      <point x="1298" y="933"/>
      <point x="1298" y="870" type="curve" smooth="yes"/>
      <point x="1298" y="368" type="line" smooth="yes"/>
      <point x="1298" y="123"/>
      <point x="1399" y="-26"/>
      <point x="1667" y="-26" type="curve" smooth="yes"/>
      <point x="1930" y="-26"/>
      <point x="2034" y="123"/>
      <point x="2034" y="368" type="curve" smooth="yes"/>
      <point x="2034" y="897" type="line" smooth="yes"/>
      <point x="2034" y="1082"/>
      <point x="1982" y="1212"/>
      <point x="1817" y="1212" type="curve" smooth="yes"/>
      <point x="1777" y="1212"/>
      <point x="1742" y="1207"/>
      <point x="1711" y="1192" type="curve"/>
      <point x="1888" y="1179" type="line"/>
      <point x="1888" y="1415" type="line"/>
      <point x="1888" y="1478" type="line"/>
      <point x="1888" y="1612" type="line" smooth="yes"/>
      <point x="1888" y="1656"/>
      <point x="1905" y="1680"/>
      <point x="1942" y="1680" type="curve" smooth="yes"/>
      <point x="1976" y="1680"/>
      <point x="1991" y="1656"/>
      <point x="1991" y="1612" type="curve" smooth="yes"/>
      <point x="1991" y="1522" type="line" smooth="yes"/>
      <point x="1991" y="1479"/>
      <point x="1978" y="1457"/>
      <point x="1942" y="1457" type="curve" smooth="yes"/>
      <point x="1919" y="1457"/>
      <point x="1896" y="1470"/>
      <point x="1886" y="1492" type="curve"/>
      <point x="1877" y="1492" type="line"/>
      <point x="1886" y="1408" type="line"/>
      <point x="1905" y="1408" type="line"/>
      <point x="1940" y="1292" type="line"/>
      <point x="1969" y="1268"/>
      <point x="2015" y="1253"/>
      <point x="2068" y="1253" type="curve" smooth="yes"/>
      <point x="2190" y="1253"/>
      <point x="2252" y="1338"/>
      <point x="2252" y="1511" type="curve" smooth="yes"/>
      <point x="2252" y="1584" type="line" smooth="yes"/>
      <point x="2252" y="1788"/>
      <point x="2160" y="1910"/>
      <point x="1936" y="1910" type="curve" smooth="yes"/>
      <point x="1706" y="1910"/>
      <point x="1603" y="1776"/>
      <point x="1603" y="1549" type="curve"/>
      <point x="1603" y="987" type="line"/>
      <point x="1616" y="991"/>
      <point x="1631" y="992"/>
      <point x="1643" y="992" type="curve" smooth="yes"/>
      <point x="1715" y="992"/>
      <point x="1736" y="950"/>
      <point x="1736" y="854" type="curve" smooth="yes"/>
      <point x="1736" y="348" type="line" smooth="yes"/>
      <point x="1736" y="280"/>
      <point x="1724" y="236"/>
      <point x="1667" y="236" type="curve" smooth="yes"/>
      <point x="1608" y="236"/>
      <point x="1593" y="280"/>
      <point x="1593" y="348" type="curve" smooth="yes"/>
      <point x="1593" y="861" type="line" smooth="yes"/>
      <point x="1593" y="1093"/>
      <point x="1512" y="1224"/>
      <point x="1285" y="1224" type="curve" smooth="yes"/>
      <point x="1082" y="1224"/>
      <point x="996" y="1100"/>
      <point x="996" y="942" type="curve" smooth="yes"/>
      <point x="996" y="940" type="line"/>
      <point x="988" y="940" type="line"/>
      <point x="955" y="1104"/>
      <point x="828" y="1224"/>
    </contour>
  </outline>
</glyph>
<glyph name="ShaMatraI.tm" format="2">
  <advance width="2250"/>
  <note>
ShaMatraI.tm
</note>
  <anchor x="888" y="1249" name="top"/>
  <outline>
    <contour>
      <point x="1764" y="1781" type="curve" smooth="yes"/>
      <point x="1493" y="1781"/>
      <point x="1369" y="1633"/>
      <point x="1369" y="1360" type="curve" smooth="yes"/>
      <point x="1369" y="1319" type="line" smooth="yes"/>
      <point x="1369" y="1267"/>
      <point x="1382" y="1217"/>
      <point x="1415" y="1189" type="curve"/>
      <point x="1685" y="1189" type="line"/>
      <point x="1662" y="1217"/>
      <point x="1655" y="1249"/>
      <point x="1655" y="1312" type="curve" smooth="yes"/>
      <point x="1655" y="1345" type="line" smooth="yes"/>
      <point x="1655" y="1465"/>
      <point x="1683" y="1520"/>
      <point x="1761" y="1520" type="curve" smooth="yes"/>
      <point x="1839" y="1520"/>
      <point x="1863" y="1465"/>
      <point x="1863" y="1345" type="curve" smooth="yes"/>
      <point x="1863" y="0" type="line"/>
      <point x="2158" y="0" type="line"/>
      <point x="2158" y="1335" type="line" smooth="yes"/>
      <point x="2158" y="1632"/>
      <point x="2043" y="1781"/>
    </contour>
    <component base="Sha_dummy.tm"/>
  </outline>
</glyph>
<glyph name="ShaMatraIi.tm" format="2">
  <advance width="1773"/>
  <note>
ShaMatraIi.tm
</note>
  <anchor x="888" y="1249" name="top"/>
  <outline>
    <contour>
      <point x="1688" y="1910" type="curve" smooth="yes"/>
      <point x="1457" y="1910"/>
      <point x="1353" y="1776"/>
      <point x="1353" y="1549" type="curve" smooth="yes"/>
      <point x="1353" y="1339" type="line" smooth="yes"/>
      <point x="1353" y="1270"/>
      <point x="1365" y="1215"/>
      <point x="1409" y="1189" type="curve"/>
      <point x="1685" y="1189" type="line"/>
      <point x="1647" y="1217"/>
      <point x="1635" y="1249"/>
      <point x="1635" y="1312" type="curve" smooth="yes"/>
      <point x="1635" y="1478" type="line"/>
      <point x="1635" y="1612" type="line" smooth="yes"/>
      <point x="1635" y="1656"/>
      <point x="1651" y="1680"/>
      <point x="1688" y="1680" type="curve" smooth="yes"/>
      <point x="1723" y="1680"/>
      <point x="1738" y="1656"/>
      <point x="1738" y="1612" type="curve" smooth="yes"/>
      <point x="1738" y="1522" type="line" smooth="yes"/>
      <point x="1738" y="1479"/>
      <point x="1725" y="1457"/>
      <point x="1688" y="1457" type="curve" smooth="yes"/>
      <point x="1666" y="1457"/>
      <point x="1642" y="1470"/>
      <point x="1633" y="1492" type="curve"/>
      <point x="1623" y="1492" type="line"/>
      <point x="1633" y="1408" type="line"/>
      <point x="1651" y="1408" type="line"/>
      <point x="1686" y="1292" type="line"/>
      <point x="1716" y="1268"/>
      <point x="1766" y="1253"/>
      <point x="1821" y="1253" type="curve" smooth="yes"/>
      <point x="1949" y="1253"/>
      <point x="2014" y="1338"/>
      <point x="2014" y="1511" type="curve" smooth="yes"/>
      <point x="2014" y="1584" type="line" smooth="yes"/>
      <point x="2014" y="1788"/>
      <point x="1919" y="1910"/>
    </contour>
    <component base="Sha_dummy.tm"/>
  </outline>
</glyph>
<glyph name="ShaMatraIi_SimpleIi.tm" format="2">
  <advance width="1762"/>
  <note>
ShaMatraIi.tm
</note>
  <anchor x="888" y="1249" name="top"/>
  <outline>
    <contour>
      <point x="1643" y="1498" type="line" smooth="yes"/>
      <point x="1643" y="1674"/>
      <point x="1704" y="1757"/>
      <point x="1837" y="1763" type="curve"/>
      <point x="1837" y="1752" type="line"/>
      <point x="1864" y="1757"/>
      <point x="1888" y="1761"/>
      <point x="1916" y="1761" type="curve" smooth="yes"/>
      <point x="1995" y="1761"/>
      <point x="2021" y="1717"/>
      <point x="2021" y="1632" type="curve" smooth="yes"/>
      <point x="2021" y="1529" type="line" smooth="yes"/>
      <point x="2021" y="1483"/>
      <point x="2010" y="1457"/>
      <point x="1977" y="1457" type="curve" smooth="yes"/>
      <point x="1942" y="1457"/>
      <point x="1931" y="1483"/>
      <point x="1931" y="1529" type="curve" smooth="yes"/>
      <point x="1931" y="1652" type="line" smooth="yes"/>
      <point x="1931" y="1702"/>
      <point x="1938" y="1739"/>
      <point x="1964" y="1766" type="curve"/>
      <point x="1837" y="1766" type="line"/>
      <point x="1837" y="1754" type="line"/>
      <point x="1733" y="1715"/>
      <point x="1701" y="1654"/>
      <point x="1701" y="1554" type="curve" smooth="yes"/>
      <point x="1701" y="1526" type="line" smooth="yes"/>
      <point x="1701" y="1361"/>
      <point x="1784" y="1266"/>
      <point x="1977" y="1266" type="curve" smooth="yes"/>
      <point x="2186" y="1266"/>
      <point x="2275" y="1372"/>
      <point x="2275" y="1553" type="curve" smooth="yes"/>
      <point x="2275" y="1601" type="line" smooth="yes"/>
      <point x="2275" y="1840"/>
      <point x="2161" y="1989"/>
      <point x="1851" y="1989" type="curve" smooth="yes"/>
      <point x="1515" y="1989"/>
      <point x="1373" y="1807"/>
      <point x="1373" y="1514" type="curve" smooth="yes"/>
      <point x="1373" y="1353" type="line" smooth="yes"/>
      <point x="1373" y="1278"/>
      <point x="1383" y="1217"/>
      <point x="1421" y="1189" type="curve"/>
      <point x="1685" y="1189" type="line"/>
      <point x="1653" y="1221"/>
      <point x="1643" y="1256"/>
      <point x="1643" y="1326" type="curve" smooth="yes"/>
    </contour>
    <component base="Sha_dummy.tm"/>
  </outline>
</glyph>
<glyph name="Sha_dummy.tm" format="2">
  <advance width="1773"/>
  <note>
Sha.tm
</note>
  <guideline x="1579" y="131" angle="90"/>
  <anchor x="888" y="1249" name="top"/>
  <outline>
    <contour>
      <point x="88" y="1189" type="line"/>
      <point x="88" y="340" type="line" smooth="yes"/>
      <point x="88" y="114"/>
      <point x="202" y="-26"/>
      <point x="460" y="-26" type="curve" smooth="yes"/>
      <point x="717" y="-26"/>
      <point x="829" y="109"/>
      <point x="829" y="340" type="curve" smooth="yes"/>
      <point x="829" y="1189" type="line"/>
      <point x="534" y="1189" type="line"/>
      <point x="534" y="333" type="line" smooth="yes"/>
      <point x="534" y="261"/>
      <point x="514" y="232"/>
      <point x="460" y="232" type="curve" smooth="yes"/>
      <point x="405" y="232"/>
      <point x="383" y="261"/>
      <point x="383" y="331" type="curve" smooth="yes"/>
      <point x="383" y="1189" type="line"/>
    </contour>
    <contour>
      <point x="948" y="1189" type="line"/>
      <point x="948" y="342" type="line" smooth="yes"/>
      <point x="948" y="114"/>
      <point x="1062" y="-26"/>
      <point x="1318" y="-26" type="curve" smooth="yes"/>
      <point x="1572" y="-26"/>
      <point x="1685" y="109"/>
      <point x="1685" y="342" type="curve" smooth="yes"/>
      <point x="1685" y="1189" type="line"/>
      <point x="1390" y="1189" type="line"/>
      <point x="1390" y="335" type="line" smooth="yes"/>
      <point x="1390" y="259"/>
      <point x="1370" y="230"/>
      <point x="1318" y="230" type="curve" smooth="yes"/>
      <point x="1265" y="230"/>
      <point x="1243" y="259"/>
      <point x="1243" y="333" type="curve" smooth="yes"/>
      <point x="1243" y="1189" type="line"/>
    </contour>
    <contour>
      <point x="604" y="1189" type="line"/>
      <point x="604" y="935" type="line"/>
      <point x="1537" y="935" type="line"/>
      <point x="1537" y="1189" type="line"/>
    </contour>
  </outline>
</glyph>
<glyph name="SsaMatraI.tm" format="2">
  <advance width="2599"/>
  <note>
SsaMatraI.tm
</note>
  <anchor x="1180" y="1249" name="top"/>
  <outline>
    <contour>
      <point x="2030" y="1781" type="curve" smooth="yes"/>
      <point x="1714" y="1781"/>
      <point x="1556" y="1600"/>
      <point x="1556" y="1330" type="curve" smooth="yes"/>
      <point x="1556" y="1295" type="line" smooth="yes"/>
      <point x="1556" y="1259"/>
      <point x="1562" y="1225"/>
      <point x="1583" y="1205" type="curve"/>
      <point x="1878" y="1166" type="line"/>
      <point x="1850" y="1187"/>
      <point x="1842" y="1207"/>
      <point x="1842" y="1258" type="curve" smooth="yes"/>
      <point x="1842" y="1292" type="line" smooth="yes"/>
      <point x="1842" y="1443"/>
      <point x="1902" y="1520"/>
      <point x="2030" y="1520" type="curve" smooth="yes"/>
      <point x="2159" y="1520"/>
      <point x="2212" y="1443"/>
      <point x="2212" y="1292" type="curve" smooth="yes"/>
      <point x="2212" y="0" type="line"/>
      <point x="2507" y="0" type="line"/>
      <point x="2507" y="1314" type="line" smooth="yes"/>
      <point x="2507" y="1600"/>
      <point x="2370" y="1781"/>
    </contour>
    <component base="Ssa.tm"/>
  </outline>
</glyph>
<glyph name="SsaMatraI_Simple_Fly.tm" format="2">
  <advance width="2143"/>
  <note>
SsaMatraI.tm
</note>
  <anchor x="1180" y="1249" name="top"/>
  <outline>
    <contour>
      <point x="2029" y="1625" type="line"/>
      <point x="1741" y="1625" type="line" smooth="yes"/>
      <point x="1545" y="1625"/>
      <point x="1459" y="1553"/>
      <point x="1459" y="1411" type="curve" smooth="yes"/>
      <point x="1459" y="1329"/>
      <point x="1474" y="1289"/>
      <point x="1539" y="1159" type="curve"/>
      <point x="1808" y="1159" type="line"/>
      <point x="1773" y="1212"/>
      <point x="1746" y="1280"/>
      <point x="1746" y="1317" type="curve" smooth="yes"/>
      <point x="1746" y="1356"/>
      <point x="1764" y="1371"/>
      <point x="1818" y="1371" type="curve" smooth="yes"/>
      <point x="2063" y="1371" type="line"/>
    </contour>
    <component base="Ssa.tm"/>
  </outline>
</glyph>
<glyph name="SsaMatraIi_Simple_SimpleIi.tm" format="2">
  <advance width="2140"/>
  <note>
SsaMatraIi.tm
</note>
  <anchor x="1216" y="1249" name="top"/>
  <outline>
    <contour>
      <point x="1990" y="1989" type="curve" smooth="yes"/>
      <point x="1654" y="1989"/>
      <point x="1512" y="1807"/>
      <point x="1512" y="1514" type="curve" smooth="yes"/>
      <point x="1512" y="1356" type="line" smooth="yes"/>
      <point x="1512" y="1284"/>
      <point x="1525" y="1223"/>
      <point x="1572" y="1198" type="curve"/>
      <point x="1843" y="1184" type="line"/>
      <point x="1796" y="1207"/>
      <point x="1782" y="1232"/>
      <point x="1782" y="1298" type="curve" smooth="yes"/>
      <point x="1782" y="1498" type="line" smooth="yes"/>
      <point x="1782" y="1674"/>
      <point x="1843" y="1757"/>
      <point x="1976" y="1763" type="curve"/>
      <point x="1976" y="1752" type="line"/>
      <point x="2003" y="1757"/>
      <point x="2027" y="1761"/>
      <point x="2055" y="1761" type="curve" smooth="yes"/>
      <point x="2134" y="1761"/>
      <point x="2160" y="1717"/>
      <point x="2160" y="1632" type="curve" smooth="yes"/>
      <point x="2160" y="1529" type="line" smooth="yes"/>
      <point x="2160" y="1483"/>
      <point x="2149" y="1457"/>
      <point x="2116" y="1457" type="curve" smooth="yes"/>
      <point x="2081" y="1457"/>
      <point x="2070" y="1483"/>
      <point x="2070" y="1529" type="curve" smooth="yes"/>
      <point x="2070" y="1652" type="line" smooth="yes"/>
      <point x="2070" y="1702"/>
      <point x="2077" y="1739"/>
      <point x="2103" y="1766" type="curve"/>
      <point x="1976" y="1766" type="line"/>
      <point x="1976" y="1754" type="line"/>
      <point x="1872" y="1715"/>
      <point x="1840" y="1654"/>
      <point x="1840" y="1554" type="curve" smooth="yes"/>
      <point x="1840" y="1526" type="line" smooth="yes"/>
      <point x="1840" y="1361"/>
      <point x="1923" y="1266"/>
      <point x="2116" y="1266" type="curve" smooth="yes"/>
      <point x="2325" y="1266"/>
      <point x="2414" y="1372"/>
      <point x="2414" y="1553" type="curve" smooth="yes"/>
      <point x="2414" y="1601" type="line" smooth="yes"/>
      <point x="2414" y="1840"/>
      <point x="2300" y="1989"/>
    </contour>
    <component base="Ssa_Simple.tm"/>
  </outline>
</glyph>
<glyph name="SsaMatraU.tm" format="2">
  <advance width="2857"/>
  <note>
SsaMatraU.tm
</note>
  <outline>
    <contour>
      <point x="1093" y="254" type="line"/>
      <point x="1093" y="0" type="line"/>
      <point x="2112" y="0" type="line"/>
      <point x="2140" y="254" type="line"/>
      <point x="1708" y="254" type="line"/>
      <point x="1664" y="215" type="line"/>
      <point x="1616" y="254" type="line"/>
    </contour>
    <contour>
      <point x="1664" y="1224" type="curve" smooth="yes"/>
      <point x="1406" y="1224"/>
      <point x="1290" y="1069"/>
      <point x="1290" y="822" type="curve" smooth="yes"/>
      <point x="1290" y="537" type="line" smooth="yes"/>
      <point x="1290" y="326"/>
      <point x="1358" y="201"/>
      <point x="1581" y="132" type="curve"/>
      <point x="1698" y="202" type="line"/>
      <point x="1610" y="243"/>
      <point x="1588" y="311"/>
      <point x="1588" y="451" type="curve" smooth="yes"/>
      <point x="1588" y="848" type="line" smooth="yes"/>
      <point x="1588" y="926"/>
      <point x="1610" y="959"/>
      <point x="1664" y="959" type="curve" smooth="yes"/>
      <point x="1717" y="959"/>
      <point x="1739" y="926"/>
      <point x="1739" y="848" type="curve" smooth="yes"/>
      <point x="1739" y="451" type="line" smooth="yes"/>
      <point x="1739" y="311"/>
      <point x="1717" y="243"/>
      <point x="1629" y="202" type="curve"/>
      <point x="1746" y="132" type="line"/>
      <point x="1969" y="201"/>
      <point x="2037" y="326"/>
      <point x="2037" y="537" type="curve" smooth="yes"/>
      <point x="2037" y="804" type="line" smooth="yes"/>
      <point x="2037" y="913"/>
      <point x="2024" y="973"/>
      <point x="1976" y="1029" type="curve"/>
      <point x="1976" y="1084" type="line"/>
      <point x="1925" y="1178"/>
      <point x="1833" y="1224"/>
    </contour>
    <contour>
      <point x="2103" y="1189" type="line"/>
      <point x="1790" y="1189" type="line"/>
      <point x="1790" y="938" type="line"/>
      <point x="2103" y="938" type="line"/>
    </contour>
    <component base="Va_NonExporting" xOffset="2"/>
    <component base="MatraUDflt_dummy.tm" xOffset="1993"/>
    <component base="Ssa_Below_Simple_NonExporting" xOffset="1383"/>
  </outline>
</glyph>
<glyph name="Ssa_Below_NonExporting" format="2">
  <advance width="506"/>
  <outline>
    <contour>
      <point x="290" y="-508" type="curve"/>
      <point x="362" y="-508"/>
      <point x="425" y="-497"/>
      <point x="476" y="-482" type="curve"/>
      <point x="506" y="-232" type="line"/>
      <point x="463" y="-245"/>
      <point x="425" y="-256"/>
      <point x="382" y="-256" type="curve" smooth="yes"/>
      <point x="307" y="-256"/>
      <point x="285" y="-223"/>
      <point x="285" y="-164" type="curve" smooth="yes"/>
      <point x="285" y="-158" type="line" smooth="yes"/>
      <point x="285" y="-79"/>
      <point x="301" y="-52"/>
      <point x="334" y="-13" type="curve" smooth="yes"/>
      <point x="368" y="26" type="line"/>
      <point x="138" y="35" type="line"/>
      <point x="121" y="22" type="line" smooth="yes"/>
      <point x="42" y="-40"/>
      <point x="0" y="-101"/>
      <point x="0" y="-213" type="curve" smooth="yes"/>
      <point x="0" y="-236" type="line" smooth="yes"/>
      <point x="0" y="-431"/>
      <point x="95" y="-508"/>
    </contour>
  </outline>
</glyph>
<glyph name="TaMatraI.tm" format="2">
  <advance width="1318"/>
  <note>
TaMatraI.tm
</note>
  <outline>
    <contour>
      <point x="751" y="524" type="line"/>
      <point x="818" y="524" type="line" smooth="yes"/>
      <point x="912" y="524"/>
      <point x="936" y="488"/>
      <point x="936" y="368" type="curve" smooth="yes"/>
      <point x="936" y="190" type="line" smooth="yes"/>
      <point x="936" y="-52"/>
      <point x="853" y="-136"/>
      <point x="641" y="-136" type="curve" smooth="yes"/>
      <point x="21" y="-136" type="line"/>
      <point x="52" y="-390" type="line"/>
      <point x="665" y="-390" type="line" smooth="yes"/>
      <point x="1092" y="-390"/>
      <point x="1226" y="-230"/>
      <point x="1226" y="206" type="curve" smooth="yes"/>
      <point x="1226" y="397" type="line" smooth="yes"/>
      <point x="1226" y="657"/>
      <point x="1132" y="771"/>
      <point x="862" y="771" type="curve" smooth="yes"/>
      <point x="751" y="771" type="line"/>
    </contour>
    <contour>
      <point x="903" y="1781" type="curve" smooth="yes"/>
      <point x="630" y="1781"/>
      <point x="505" y="1635"/>
      <point x="505" y="1365" type="curve" smooth="yes"/>
      <point x="505" y="1306" type="line" smooth="yes"/>
      <point x="505" y="1254"/>
      <point x="518" y="1204"/>
      <point x="551" y="1176" type="curve"/>
      <point x="821" y="1176" type="line"/>
      <point x="798" y="1204"/>
      <point x="791" y="1236"/>
      <point x="791" y="1299" type="curve"/>
      <point x="791" y="1358" type="line"/>
      <point x="791" y="1473"/>
      <point x="819" y="1525"/>
      <point x="900" y="1525" type="curve" smooth="yes"/>
      <point x="979" y="1525"/>
      <point x="1004" y="1473"/>
      <point x="1004" y="1358" type="curve" smooth="yes"/>
      <point x="1004" y="817" type="line"/>
      <point x="1288" y="817" type="line"/>
      <point x="1288" y="1345" type="line" smooth="yes"/>
      <point x="1288" y="1635"/>
      <point x="1176" y="1781"/>
    </contour>
    <component base="KaComponent_Nonexporting" xOffset="45"/>
    <component base="KaBeak_Nonexporting" xOffset="737"/>
  </outline>
</glyph>
<glyph name="TaMatraU.tm" format="2">
  <advance width="1781"/>
  <note>
TaMatraU.tm
</note>
  <outline>
    <contour>
      <point x="1394" y="1189" type="line"/>
      <point x="1394" y="-221" type="line"/>
      <point x="1689" y="-221" type="line"/>
      <point x="1689" y="1189" type="line"/>
    </contour>
    <contour>
      <point x="775" y="524" type="line"/>
      <point x="850" y="524" type="line" smooth="yes"/>
      <point x="925" y="524"/>
      <point x="946" y="499"/>
      <point x="946" y="401" type="curve"/>
      <point x="946" y="193" type="line" smooth="yes"/>
      <point x="946" y="0"/>
      <point x="898" y="-136"/>
      <point x="671" y="-136" type="curve" smooth="yes"/>
      <point x="21" y="-136" type="line"/>
      <point x="52" y="-390" type="line"/>
      <point x="1689" y="-390" type="line"/>
      <point x="1689" y="-140" type="line"/>
      <point x="1078" y="-140" type="line"/>
      <point x="1078" y="-131" type="line"/>
      <point x="1203" y="-109"/>
      <point x="1240" y="9"/>
      <point x="1240" y="197" type="curve" smooth="yes"/>
      <point x="1240" y="434" type="line"/>
      <point x="1240" y="673"/>
      <point x="1155" y="771"/>
      <point x="907" y="771" type="curve" smooth="yes"/>
      <point x="775" y="771" type="line"/>
    </contour>
    <component base="KaComponent_Nonexporting" xOffset="55"/>
    <component base="KaBeak_Nonexporting" xOffset="859"/>
  </outline>
</glyph>
<glyph name="TtaMatraI_Fly.tm" format="2">
  <advance width="1198"/>
  <note>
TtaMatraI.tm
</note>
  <outline>
    <contour>
      <point x="390" y="1189" type="line"/>
      <point x="92" y="1189" type="line"/>
      <point x="92" y="0" type="line"/>
      <point x="1170" y="0" type="line"/>
      <point x="1198" y="250" type="line"/>
      <point x="390" y="250" type="line"/>
    </contour>
    <contour>
      <point x="1093" y="804" type="line"/>
      <point x="785" y="804" type="line" smooth="yes"/>
      <point x="589" y="804"/>
      <point x="503" y="728"/>
      <point x="503" y="578" type="curve" smooth="yes"/>
      <point x="503" y="474"/>
      <point x="534" y="391"/>
      <point x="618" y="245" type="curve"/>
      <point x="900" y="245" type="line"/>
      <point x="838" y="349"/>
      <point x="800" y="436"/>
      <point x="800" y="486" type="curve" smooth="yes"/>
      <point x="800" y="532"/>
      <point x="818" y="550"/>
      <point x="872" y="550" type="curve" smooth="yes"/>
      <point x="1127" y="550" type="line"/>
    </contour>
  </outline>
</glyph>
<glyph name="TtaMatraI_Simple.tm" format="2">
  <advance width="1382"/>
  <note>
TtaMatraI.tm
</note>
  <outline>
    <contour>
      <point x="467" y="254" type="line"/>
      <point x="390" y="254" type="line"/>
      <point x="390" y="1189" type="line"/>
      <point x="92" y="1189" type="line"/>
      <point x="92" y="0" type="line"/>
      <point x="467" y="0" type="line"/>
    </contour>
    <component base="Ssa_Above_NonExporting" xOffset="335"/>
    <component base="Ssa_Below_NonExporting" xOffset="606"/>
  </outline>
</glyph>
<glyph name="TtaMatraIi.tm" format="2">
  <advance width="1243"/>
  <note>
TtaMatraIi.tm
</note>
  <outline>
    <contour>
      <point x="390" y="1189" type="line"/>
      <point x="92" y="1189" type="line"/>
      <point x="92" y="0" type="line"/>
      <point x="1216" y="0" type="line"/>
      <point x="1243" y="258" type="line"/>
      <point x="390" y="258" type="line"/>
    </contour>
    <contour>
      <point x="855" y="1016" type="curve" smooth="yes"/>
      <point x="624" y="1016"/>
      <point x="520" y="882"/>
      <point x="520" y="655" type="curve" smooth="yes"/>
      <point x="520" y="395" type="line" smooth="yes"/>
      <point x="520" y="326"/>
      <point x="532" y="271"/>
      <point x="576" y="245" type="curve"/>
      <point x="852" y="245" type="line"/>
      <point x="814" y="273"/>
      <point x="802" y="305"/>
      <point x="802" y="368" type="curve" smooth="yes"/>
      <point x="802" y="584" type="line"/>
      <point x="802" y="718" type="line" smooth="yes"/>
      <point x="802" y="762"/>
      <point x="818" y="786"/>
      <point x="855" y="786" type="curve" smooth="yes"/>
      <point x="890" y="786"/>
      <point x="905" y="762"/>
      <point x="905" y="718" type="curve" smooth="yes"/>
      <point x="905" y="628" type="line" smooth="yes"/>
      <point x="905" y="585"/>
      <point x="892" y="563"/>
      <point x="855" y="563" type="curve" smooth="yes"/>
      <point x="833" y="563"/>
      <point x="809" y="576"/>
      <point x="800" y="598" type="curve"/>
      <point x="790" y="598" type="line"/>
      <point x="800" y="514" type="line"/>
      <point x="818" y="514" type="line"/>
      <point x="853" y="398" type="line"/>
      <point x="883" y="374"/>
      <point x="933" y="359"/>
      <point x="988" y="359" type="curve" smooth="yes"/>
      <point x="1116" y="359"/>
      <point x="1181" y="444"/>
      <point x="1181" y="617" type="curve" smooth="yes"/>
      <point x="1181" y="690" type="line" smooth="yes"/>
      <point x="1181" y="894"/>
      <point x="1086" y="1016"/>
    </contour>
  </outline>
</glyph>
<glyph name="TtaPulli.tm" format="2">
  <advance width="845"/>
  <note>
TtaPulli.tm
</note>
  <guideline x="417" y="2252" angle="90"/>
  <guideline x="4070" y="2252" angle="90"/>
  <outline>
    <contour>
      <point x="390" y="1189" type="line"/>
      <point x="92" y="1189" type="line"/>
      <point x="92" y="0" type="line"/>
      <point x="817" y="0" type="line"/>
      <point x="845" y="258" type="line"/>
      <point x="390" y="258" type="line"/>
    </contour>
    <contour>
      <point x="476" y="442" type="line"/>
      <point x="530" y="442" type="line" smooth="yes"/>
      <point x="698" y="442"/>
      <point x="743" y="510"/>
      <point x="743" y="653" type="curve" smooth="yes"/>
      <point x="743" y="673" type="line" smooth="yes"/>
      <point x="743" y="815"/>
      <point x="698" y="883"/>
      <point x="530" y="883" type="curve" smooth="yes"/>
      <point x="476" y="883" type="line"/>
    </contour>
  </outline>
</glyph>
<glyph name="VaMatraI.tm" format="2">
  <advance width="2164"/>
  <note>
VaMatraI.tm
</note>
  <outline>
    <contour>
      <point x="1309" y="1189" type="line"/>
      <point x="1309" y="254" type="line"/>
      <point x="1044" y="254" type="line"/>
      <point x="1044" y="0" type="line"/>
      <point x="1600" y="0" type="line"/>
      <point x="1600" y="1189" type="line"/>
    </contour>
    <contour>
      <point x="1552" y="1761" type="curve" smooth="yes"/>
      <point x="1223" y="1761"/>
      <point x="1051" y="1593"/>
      <point x="1051" y="1349" type="curve" smooth="yes"/>
      <point x="1051" y="1345" type="line" smooth="yes"/>
      <point x="1051" y="1133"/>
      <point x="1159" y="981"/>
      <point x="1421" y="964" type="curve"/>
      <point x="1533" y="1189" type="line"/>
      <point x="1397" y="1189"/>
      <point x="1345" y="1249"/>
      <point x="1345" y="1336" type="curve" smooth="yes"/>
      <point x="1345" y="1340" type="line" smooth="yes"/>
      <point x="1345" y="1437"/>
      <point x="1413" y="1500"/>
      <point x="1552" y="1500" type="curve" smooth="yes"/>
      <point x="1717" y="1500"/>
      <point x="1778" y="1432"/>
      <point x="1778" y="1268" type="curve" smooth="yes"/>
      <point x="1778" y="0" type="line"/>
      <point x="2072" y="0" type="line"/>
      <point x="2072" y="1246" type="line" smooth="yes"/>
      <point x="2072" y="1592"/>
      <point x="1921" y="1761"/>
    </contour>
    <component base="Va_NonExporting" xOffset="2"/>
  </outline>
</glyph>
<glyph name="VaMatraI_SimpleFly.tm" format="2">
  <advance width="1680"/>
  <note>
VaMatraI.tm
</note>
  <outline>
    <contour>
      <point x="1650" y="1625" type="line"/>
      <point x="1347" y="1625" type="line" smooth="yes"/>
      <point x="1156" y="1625"/>
      <point x="1071" y="1557"/>
      <point x="1071" y="1417" type="curve" smooth="yes"/>
      <point x="1071" y="1340"/>
      <point x="1095" y="1257"/>
      <point x="1119" y="1179" type="curve" smooth="yes"/>
      <point x="1169" y="1019"/>
      <point x="1192" y="986"/>
      <point x="1347" y="986" type="curve"/>
      <point x="1424" y="986" type="line"/>
      <point x="1481" y="1189" type="line"/>
      <point x="1457" y="1189" type="line"/>
      <point x="1411" y="1189"/>
      <point x="1406" y="1192"/>
      <point x="1389" y="1233" type="curve" smooth="yes"/>
      <point x="1376" y="1262"/>
      <point x="1367" y="1301"/>
      <point x="1367" y="1323" type="curve" smooth="yes"/>
      <point x="1367" y="1358"/>
      <point x="1384" y="1371"/>
      <point x="1434" y="1371" type="curve" smooth="yes"/>
      <point x="1683" y="1371" type="line"/>
    </contour>
    <contour>
      <point x="1294" y="1189" type="line"/>
      <point x="1294" y="254" type="line"/>
      <point x="1161" y="254" type="line"/>
      <point x="1161" y="0" type="line"/>
      <point x="1588" y="0" type="line"/>
      <point x="1588" y="1189" type="line"/>
    </contour>
    <component base="Va_NonExporting" xOffset="2"/>
  </outline>
</glyph>
<glyph name="VaMatraIi_SimpleIi.tm" format="2">
  <advance width="1918"/>
  <note>
VaMatraIi.tm
</note>
  <outline>
    <contour>
      <point x="1531" y="1189" type="line"/>
      <point x="1531" y="258" type="line"/>
      <point x="1233" y="258" type="line"/>
      <point x="1233" y="0" type="line"/>
      <point x="1825" y="0" type="line"/>
      <point x="1825" y="1189" type="line"/>
    </contour>
    <contour>
      <point x="1647" y="1989" type="curve" smooth="yes"/>
      <point x="1292" y="1989"/>
      <point x="1145" y="1803"/>
      <point x="1145" y="1503" type="curve" smooth="yes"/>
      <point x="1145" y="1148" type="line" smooth="yes"/>
      <point x="1145" y="862"/>
      <point x="1236" y="707"/>
      <point x="1540" y="675" type="curve"/>
      <point x="1540" y="960" type="line"/>
      <point x="1461" y="968"/>
      <point x="1439" y="1040"/>
      <point x="1439" y="1124" type="curve" smooth="yes"/>
      <point x="1439" y="1498" type="line" smooth="yes"/>
      <point x="1439" y="1674"/>
      <point x="1505" y="1757"/>
      <point x="1651" y="1763" type="curve"/>
      <point x="1651" y="1752" type="line"/>
      <point x="1678" y="1757"/>
      <point x="1702" y="1761"/>
      <point x="1730" y="1761" type="curve" smooth="yes"/>
      <point x="1809" y="1761"/>
      <point x="1835" y="1717"/>
      <point x="1835" y="1632" type="curve" smooth="yes"/>
      <point x="1835" y="1529" type="line" smooth="yes"/>
      <point x="1835" y="1483"/>
      <point x="1824" y="1457"/>
      <point x="1791" y="1457" type="curve" smooth="yes"/>
      <point x="1756" y="1457"/>
      <point x="1745" y="1483"/>
      <point x="1745" y="1529" type="curve" smooth="yes"/>
      <point x="1745" y="1652" type="line" smooth="yes"/>
      <point x="1745" y="1702"/>
      <point x="1752" y="1739"/>
      <point x="1778" y="1766" type="curve"/>
      <point x="1651" y="1766" type="line"/>
      <point x="1651" y="1754" type="line"/>
      <point x="1547" y="1715"/>
      <point x="1515" y="1654"/>
      <point x="1515" y="1554" type="curve" smooth="yes"/>
      <point x="1515" y="1526" type="line" smooth="yes"/>
      <point x="1515" y="1361"/>
      <point x="1598" y="1266"/>
      <point x="1791" y="1266" type="curve" smooth="yes"/>
      <point x="2000" y="1266"/>
      <point x="2089" y="1372"/>
      <point x="2089" y="1553" type="curve" smooth="yes"/>
      <point x="2089" y="1601" type="line" smooth="yes"/>
      <point x="2089" y="1840"/>
      <point x="1970" y="1989"/>
    </contour>
    <component base="Va_NonExporting" xOffset="2"/>
  </outline>
</glyph>
<glyph name="VaMatraUu_SimpleUu.tm" format="2">
  <advance width="2007"/>
  <note>
VaMatraUu.tm
</note>
  <guideline x="173" y="1096" angle="270"/>
  <guideline x="-30" y="1096" angle="270"/>
  <anchor x="982" y="1249" name="top"/>
  <outline>
    <contour>
      <point x="1295" y="401" type="line"/>
      <point x="1295" y="-258" type="line"/>
      <point x="1589" y="-258" type="line"/>
      <point x="1589" y="401" type="line"/>
    </contour>
    <contour>
      <point x="1801" y="311" type="curve" smooth="yes"/>
      <point x="1677" y="311"/>
      <point x="1613" y="236"/>
      <point x="1598" y="136" type="curve"/>
      <point x="1560" y="136" type="line"/>
      <point x="1560" y="-31" type="line"/>
      <point x="1578" y="-31" type="line"/>
      <point x="1584" y="24"/>
      <point x="1617" y="61"/>
      <point x="1661" y="61" type="curve" smooth="yes"/>
      <point x="1712" y="61"/>
      <point x="1729" y="24"/>
      <point x="1729" y="-64" type="curve" smooth="yes"/>
      <point x="1729" y="-86" type="line" smooth="yes"/>
      <point x="1729" y="-407"/>
      <point x="1448" y="-500"/>
      <point x="1003" y="-500" type="curve" smooth="yes"/>
      <point x="636" y="-500"/>
      <point x="323" y="-429"/>
      <point x="323" y="-335" type="curve" smooth="yes"/>
      <point x="323" y="-296"/>
      <point x="353" y="-280"/>
      <point x="423" y="-280" type="curve" smooth="yes"/>
      <point x="537" y="-280"/>
      <point x="684" y="-305"/>
      <point x="822" y="-350" type="curve"/>
      <point x="794" y="-112" type="line"/>
      <point x="686" y="-77"/>
      <point x="557" y="-50"/>
      <point x="403" y="-50" type="curve" smooth="yes"/>
      <point x="165" y="-50"/>
      <point x="36" y="-120"/>
      <point x="36" y="-300" type="curve" smooth="yes"/>
      <point x="36" y="-583"/>
      <point x="428" y="-742"/>
      <point x="1003" y="-742" type="curve" smooth="yes"/>
      <point x="1684" y="-742"/>
      <point x="2023" y="-530"/>
      <point x="2023" y="-79" type="curve" smooth="yes"/>
      <point x="2023" y="-20" type="line" smooth="yes"/>
      <point x="2023" y="202"/>
      <point x="1964" y="311"/>
    </contour>
    <component base="Va_dummy.tm"/>
  </outline>
</glyph>
<glyph name="Va_NonExporting" format="2">
  <advance width="1235"/>
  <outline>
    <contour>
      <point x="626" y="1224" type="curve" smooth="yes"/>
      <point x="261" y="1224"/>
      <point x="66" y="1008"/>
      <point x="66" y="602" type="curve" smooth="yes"/>
      <point x="66" y="339" type="line" smooth="yes"/>
      <point x="66" y="116"/>
      <point x="175" y="-26"/>
      <point x="410" y="-26" type="curve" smooth="yes"/>
      <point x="650" y="-26"/>
      <point x="753" y="112"/>
      <point x="753" y="329" type="curve" smooth="yes"/>
      <point x="753" y="519" type="line" smooth="yes"/>
      <point x="753" y="714"/>
      <point x="696" y="817"/>
      <point x="550" y="817" type="curve" smooth="yes"/>
      <point x="424" y="817"/>
      <point x="358" y="726"/>
      <point x="350" y="624" type="curve"/>
      <point x="338" y="624" type="line"/>
      <point x="344" y="499" type="line"/>
      <point x="348" y="539"/>
      <point x="376" y="567"/>
      <point x="410" y="567" type="curve" smooth="yes"/>
      <point x="455" y="567"/>
      <point x="468" y="537"/>
      <point x="468" y="475" type="curve" smooth="yes"/>
      <point x="468" y="315" type="line" smooth="yes"/>
      <point x="468" y="250"/>
      <point x="456" y="217"/>
      <point x="410" y="217" type="curve" smooth="yes"/>
      <point x="364" y="217"/>
      <point x="352" y="250"/>
      <point x="352" y="315" type="curve"/>
      <point x="352" y="624" type="line"/>
      <point x="341" y="624" type="line"/>
      <point x="341" y="629"/>
      <point x="341" y="629"/>
      <point x="341" y="635" type="curve" smooth="yes"/>
      <point x="341" y="854"/>
      <point x="425" y="959"/>
      <point x="613" y="959" type="curve" smooth="yes"/>
      <point x="799" y="959"/>
      <point x="863" y="854"/>
      <point x="863" y="624" type="curve" smooth="yes"/>
      <point x="863" y="447" type="line" smooth="yes"/>
      <point x="863" y="239"/>
      <point x="841" y="138"/>
      <point x="777" y="17" type="curve"/>
      <point x="777" y="0" type="line"/>
      <point x="1235" y="0" type="line"/>
      <point x="1235" y="254" type="line"/>
      <point x="1093" y="254" type="line"/>
      <point x="1100" y="160" type="line"/>
      <point x="1145" y="232"/>
      <point x="1161" y="307"/>
      <point x="1161" y="453" type="curve" smooth="yes"/>
      <point x="1161" y="611" type="line" smooth="yes"/>
      <point x="1161" y="1008"/>
      <point x="1029" y="1224"/>
    </contour>
  </outline>
</glyph>
<glyph name="Va_dummy.tm" format="2">
  <advance width="1681"/>
  <note>
Va.tm
</note>
  <anchor x="982" y="1249" name="top"/>
  <outline>
    <contour>
      <point x="1294" y="1189" type="line"/>
      <point x="1294" y="254" type="line"/>
      <point x="1161" y="254" type="line"/>
      <point x="1161" y="0" type="line"/>
      <point x="1589" y="0" type="line"/>
      <point x="1589" y="1189" type="line"/>
    </contour>
    <component base="Va_NonExporting" xOffset="2"/>
  </outline>
</glyph>
<glyph name="VowelAi_Fused.tm" format="2">
  <advance width="1649"/>
  <note>
vowelAi.tm
</note>
  <outline>
    <contour>
      <point x="573" y="1233" type="curve" smooth="yes"/>
      <point x="256" y="1233"/>
      <point x="72" y="1045"/>
      <point x="72" y="701" type="curve" smooth="yes"/>
      <point x="72" y="469" type="line" smooth="yes"/>
      <point x="72" y="252"/>
      <point x="178" y="134"/>
      <point x="409" y="134" type="curve" smooth="yes"/>
      <point x="641" y="134"/>
      <point x="738" y="252"/>
      <point x="738" y="469" type="curve" smooth="yes"/>
      <point x="738" y="623" type="line" smooth="yes"/>
      <point x="738" y="809"/>
      <point x="684" y="906"/>
      <point x="537" y="906" type="curve" smooth="yes"/>
      <point x="425" y="906"/>
      <point x="363" y="831"/>
      <point x="350" y="743" type="curve"/>
      <point x="332" y="743" type="line"/>
      <point x="345" y="619" type="line"/>
      <point x="350" y="660"/>
      <point x="379" y="686"/>
      <point x="411" y="686" type="curve" smooth="yes"/>
      <point x="454" y="686"/>
      <point x="466" y="658"/>
      <point x="466" y="603" type="curve" smooth="yes"/>
      <point x="466" y="447" type="line" smooth="yes"/>
      <point x="466" y="388"/>
      <point x="455" y="357"/>
      <point x="410" y="357" type="curve" smooth="yes"/>
      <point x="364" y="357"/>
      <point x="352" y="388"/>
      <point x="352" y="447" type="curve"/>
      <point x="352" y="743" type="line"/>
      <point x="339" y="743" type="line"/>
      <point x="339" y="891"/>
      <point x="429" y="990"/>
      <point x="598" y="990" type="curve" smooth="yes"/>
      <point x="786" y="990"/>
      <point x="847" y="885"/>
      <point x="847" y="690" type="curve" smooth="yes"/>
      <point x="847" y="460" type="line"/>
      <point x="1130" y="460" type="line"/>
      <point x="1130" y="839" type="line" smooth="yes"/>
      <point x="1130" y="935"/>
      <point x="1158" y="968"/>
      <point x="1217" y="968" type="curve" smooth="yes"/>
      <point x="1266" y="968"/>
      <point x="1292" y="935"/>
      <point x="1292" y="839" type="curve"/>
      <point x="1292" y="701" type="line" smooth="yes"/>
      <point x="1292" y="482"/>
      <point x="1233" y="413"/>
      <point x="1071" y="396" type="curve" smooth="yes"/>
      <point x="576" y="344" type="line" smooth="yes"/>
      <point x="265" y="311"/>
      <point x="127" y="212"/>
      <point x="127" y="-53" type="curve" smooth="yes"/>
      <point x="127" y="-66" type="line" smooth="yes"/>
      <point x="127" y="-309"/>
      <point x="269" y="-451"/>
      <point x="545" y="-451" type="curve" smooth="yes"/>
      <point x="781" y="-451"/>
      <point x="880" y="-355"/>
      <point x="906" y="-195" type="curve"/>
      <point x="913" y="-195" type="line"/>
      <point x="937" y="-353"/>
      <point x="1031" y="-447"/>
      <point x="1235" y="-447" type="curve" smooth="yes"/>
      <point x="1452" y="-447"/>
      <point x="1552" y="-320"/>
      <point x="1552" y="-44" type="curve" smooth="yes"/>
      <point x="1552" y="8"/>
      <point x="1552" y="60"/>
      <point x="1552" y="112" type="curve"/>
      <point x="1263" y="133" type="line"/>
      <point x="1263" y="68"/>
      <point x="1263" y="2"/>
      <point x="1263" y="-63" type="curve" smooth="yes"/>
      <point x="1263" y="-149"/>
      <point x="1230" y="-193"/>
      <point x="1165" y="-193" type="curve" smooth="yes"/>
      <point x="1093" y="-193"/>
      <point x="1058" y="-149"/>
      <point x="1058" y="-63" type="curve" smooth="yes"/>
      <point x="1058" y="66" type="line"/>
      <point x="770" y="66" type="line"/>
      <point x="770" y="-22" type="line" smooth="yes"/>
      <point x="770" y="-132"/>
      <point x="714" y="-197"/>
      <point x="591" y="-197" type="curve" smooth="yes"/>
      <point x="466" y="-197"/>
      <point x="413" y="-142"/>
      <point x="413" y="-59" type="curve" smooth="yes"/>
      <point x="413" y="-52" type="line" smooth="yes"/>
      <point x="413" y="35"/>
      <point x="466" y="90"/>
      <point x="584" y="101" type="curve" smooth="yes"/>
      <point x="1081" y="147" type="line" smooth="yes"/>
      <point x="1461" y="182"/>
      <point x="1577" y="296"/>
      <point x="1577" y="703" type="curve" smooth="yes"/>
      <point x="1577" y="813" type="line"/>
      <point x="1577" y="1095"/>
      <point x="1491" y="1224"/>
      <point x="1281" y="1224" type="curve" smooth="yes"/>
      <point x="1088" y="1224"/>
      <point x="1000" y="1119"/>
      <point x="978" y="942" type="curve"/>
      <point x="970" y="942" type="line"/>
      <point x="937" y="1106"/>
      <point x="823" y="1233"/>
    </contour>
  </outline>
</glyph>
<glyph name="VowelIi_Half.tm" format="2">
  <advance width="1298"/>
  <note>
vowelIi.tm
</note>
  <outline>
    <contour>
      <point x="707" y="0" type="line"/>
      <point x="1001" y="0" type="line"/>
      <point x="1001" y="1121" type="line"/>
      <point x="707" y="1121" type="line"/>
    </contour>
    <contour>
      <point x="546" y="348" type="curve" smooth="yes"/>
      <point x="640" y="348"/>
      <point x="673" y="412"/>
      <point x="673" y="550" type="curve" smooth="yes"/>
      <point x="673" y="570" type="line" smooth="yes"/>
      <point x="673" y="707"/>
      <point x="638" y="771"/>
      <point x="546" y="771" type="curve" smooth="yes"/>
      <point x="454" y="771"/>
      <point x="420" y="707"/>
      <point x="420" y="570" type="curve" smooth="yes"/>
      <point x="420" y="550" type="line" smooth="yes"/>
      <point x="420" y="412"/>
      <point x="453" y="348"/>
    </contour>
    <contour>
      <point x="1161" y="348" type="curve" smooth="yes"/>
      <point x="1255" y="348"/>
      <point x="1288" y="412"/>
      <point x="1288" y="550" type="curve" smooth="yes"/>
      <point x="1288" y="570" type="line" smooth="yes"/>
      <point x="1288" y="707"/>
      <point x="1253" y="771"/>
      <point x="1161" y="771" type="curve" smooth="yes"/>
      <point x="1069" y="771"/>
      <point x="1034" y="707"/>
      <point x="1034" y="570" type="curve" smooth="yes"/>
      <point x="1034" y="550" type="line" smooth="yes"/>
      <point x="1034" y="412"/>
      <point x="1067" y="348"/>
    </contour>
    <contour>
      <point x="1025" y="1189" type="line"/>
      <point x="92" y="1189" type="line"/>
      <point x="92" y="0" type="line"/>
      <point x="386" y="0" type="line"/>
      <point x="386" y="935" type="line"/>
      <point x="1025" y="935" type="line"/>
    </contour>
    <component base="RaBeak_Nonexporting" xOffset="679"/>
  </outline>
</glyph>
<glyph name="VowelOo_Fused.tm" format="2">
  <advance width="1541"/>
  <note>
vowelOo.tm
</note>
  <outline>
    <contour>
      <point x="1483" y="322" type="line"/>
      <point x="1264" y="322" type="line"/>
      <point x="1080" y="210" type="line"/>
      <point x="1080" y="199" type="line"/>
      <point x="969" y="184"/>
      <point x="922" y="136"/>
      <point x="916" y="26" type="curve" smooth="yes"/>
      <point x="912" y="-46" type="line" smooth="yes"/>
      <point x="904" y="-193"/>
      <point x="859" y="-248"/>
      <point x="717" y="-250" type="curve" smooth="yes"/>
      <point x="715" y="-250"/>
      <point x="714" y="-250"/>
      <point x="712" y="-250" type="curve"/>
      <point x="712" y="-239" type="line"/>
      <point x="633" y="-237" type="line"/>
      <point x="563" y="-223"/>
      <point x="528" y="-158"/>
      <point x="528" y="-64" type="curve" smooth="yes"/>
      <point x="528" y="22" type="line" smooth="yes"/>
      <point x="528" y="72"/>
      <point x="544" y="94"/>
      <point x="577" y="94" type="curve" smooth="yes"/>
      <point x="612" y="94"/>
      <point x="625" y="72"/>
      <point x="625" y="22" type="curve" smooth="yes"/>
      <point x="625" y="-83" type="line" smooth="yes"/>
      <point x="625" y="-153"/>
      <point x="616" y="-204"/>
      <point x="598" y="-245" type="curve"/>
      <point x="712" y="-259" type="line"/>
      <point x="712" y="-242" type="line"/>
      <point x="826" y="-224"/>
      <point x="855" y="-152"/>
      <point x="855" y="-17" type="curve" smooth="yes"/>
      <point x="855" y="6" type="line" smooth="yes"/>
      <point x="855" y="204"/>
      <point x="780" y="296"/>
      <point x="576" y="296" type="curve" smooth="yes"/>
      <point x="386" y="296"/>
      <point x="285" y="197"/>
      <point x="285" y="-17" type="curve" smooth="yes"/>
      <point x="285" y="-59" type="line" smooth="yes"/>
      <point x="285" y="-307"/>
      <point x="439" y="-458"/>
      <point x="730" y="-458" type="curve" smooth="yes"/>
      <point x="1028" y="-458"/>
      <point x="1156" y="-322"/>
      <point x="1172" y="-74" type="curve" smooth="yes"/>
      <point x="1177" y="4" type="line" smooth="yes"/>
      <point x="1181" y="63"/>
      <point x="1199" y="83"/>
      <point x="1256" y="83" type="curve" smooth="yes"/>
      <point x="1459" y="83" type="line"/>
    </contour>
    <contour>
      <point x="771" y="1301" type="curve" smooth="yes"/>
      <point x="325" y="1301"/>
      <point x="62" y="1069"/>
      <point x="62" y="629" type="curve" smooth="yes"/>
      <point x="62" y="497" type="line" smooth="yes"/>
      <point x="62" y="275"/>
      <point x="160" y="137"/>
      <point x="404" y="137" type="curve" smooth="yes"/>
      <point x="642" y="137"/>
      <point x="730" y="271"/>
      <point x="730" y="486" type="curve" smooth="yes"/>
      <point x="730" y="592" type="line" smooth="yes"/>
      <point x="730" y="788"/>
      <point x="673" y="889"/>
      <point x="528" y="889" type="curve" smooth="yes"/>
      <point x="408" y="889"/>
      <point x="347" y="815"/>
      <point x="333" y="710" type="curve"/>
      <point x="318" y="710" type="line"/>
      <point x="327" y="580" type="line"/>
      <point x="331" y="626"/>
      <point x="360" y="653"/>
      <point x="397" y="653" type="curve" smooth="yes"/>
      <point x="445" y="653"/>
      <point x="458" y="626"/>
      <point x="458" y="565" type="curve" smooth="yes"/>
      <point x="458" y="457" type="line" smooth="yes"/>
      <point x="458" y="394"/>
      <point x="447" y="363"/>
      <point x="397" y="363" type="curve" smooth="yes"/>
      <point x="347" y="363"/>
      <point x="335" y="394"/>
      <point x="335" y="457" type="curve"/>
      <point x="335" y="710" type="line"/>
      <point x="323" y="710" type="line"/>
      <point x="323" y="930"/>
      <point x="482" y="1052"/>
      <point x="761" y="1052" type="curve" smooth="yes"/>
      <point x="1082" y="1052"/>
      <point x="1179" y="926"/>
      <point x="1179" y="655" type="curve" smooth="yes"/>
      <point x="1179" y="473" type="line" smooth="yes"/>
      <point x="1179" y="421"/>
      <point x="1164" y="392"/>
      <point x="1126" y="392" type="curve" smooth="yes"/>
      <point x="1085" y="392"/>
      <point x="1067" y="421"/>
      <point x="1067" y="473" type="curve" smooth="yes"/>
      <point x="1067" y="604"/>
      <point x="1067" y="712"/>
      <point x="1067" y="843" type="curve"/>
      <point x="806" y="843" type="line"/>
      <point x="806" y="721"/>
      <point x="806" y="602"/>
      <point x="806" y="480" type="curve" smooth="yes"/>
      <point x="806" y="315"/>
      <point x="883" y="208"/>
      <point x="1065" y="208" type="curve" smooth="yes"/>
      <point x="1140" y="208"/>
      <point x="1218" y="221"/>
      <point x="1289" y="252" type="curve"/>
      <point x="1407" y="293"/>
      <point x="1459" y="357"/>
      <point x="1459" y="576" type="curve" smooth="yes"/>
      <point x="1459" y="655" type="line" smooth="yes"/>
      <point x="1459" y="1076"/>
      <point x="1242" y="1301"/>
    </contour>
  </outline>
</glyph>
<glyph name="VowelU_Fused.tm" format="2">
  <advance width="1214"/>
  <note>
vowelU.tm
</note>
  <outline>
    <contour>
      <point x="615" y="1301" type="curve" smooth="yes"/>
      <point x="269" y="1301"/>
      <point x="70" y="1104"/>
      <point x="70" y="742" type="curve" smooth="yes"/>
      <point x="70" y="662" type="line" smooth="yes"/>
      <point x="70" y="460"/>
      <point x="173" y="331"/>
      <point x="403" y="331" type="curve" smooth="yes"/>
      <point x="627" y="331"/>
      <point x="727" y="460"/>
      <point x="727" y="635" type="curve" smooth="yes"/>
      <point x="727" y="719" type="line" smooth="yes"/>
      <point x="727" y="900"/>
      <point x="675" y="995"/>
      <point x="532" y="995" type="curve" smooth="yes"/>
      <point x="418" y="995"/>
      <point x="358" y="923"/>
      <point x="344" y="839" type="curve"/>
      <point x="326" y="839" type="line"/>
      <point x="342" y="718" type="line"/>
      <point x="346" y="758"/>
      <point x="370" y="782"/>
      <point x="403" y="782" type="curve" smooth="yes"/>
      <point x="442" y="782"/>
      <point x="454" y="756"/>
      <point x="454" y="701" type="curve" smooth="yes"/>
      <point x="454" y="615" type="line" smooth="yes"/>
      <point x="454" y="556"/>
      <point x="443" y="524"/>
      <point x="403" y="524" type="curve" smooth="yes"/>
      <point x="362" y="524"/>
      <point x="350" y="556"/>
      <point x="350" y="615" type="curve" smooth="yes"/>
      <point x="350" y="839" type="line"/>
      <point x="335" y="839" type="line"/>
      <point x="344" y="975"/>
      <point x="429" y="1067"/>
      <point x="598" y="1067" type="curve" smooth="yes"/>
      <point x="767" y="1067"/>
      <point x="848" y="975"/>
      <point x="848" y="815" type="curve" smooth="yes"/>
      <point x="848" y="721" type="line" smooth="yes"/>
      <point x="848" y="572"/>
      <point x="811" y="516"/>
      <point x="686" y="502" type="curve" smooth="yes"/>
      <point x="245" y="451" type="line" smooth="yes"/>
      <point x="127" y="437"/>
      <point x="77" y="374"/>
      <point x="77" y="236" type="curve" smooth="yes"/>
      <point x="77" y="164"/>
      <point x="90" y="85"/>
      <point x="110" y="0" type="curve"/>
      <point x="1190" y="0" type="line"/>
      <point x="1214" y="224" type="line"/>
      <point x="350" y="224" type="line"/>
      <point x="348" y="236"/>
      <point x="348" y="241"/>
      <point x="348" y="245" type="curve" smooth="yes"/>
      <point x="348" y="263"/>
      <point x="355" y="269"/>
      <point x="374" y="270" type="curve" smooth="yes"/>
      <point x="712" y="294" type="line" smooth="yes"/>
      <point x="1027" y="316"/>
      <point x="1128" y="443"/>
      <point x="1128" y="719" type="curve" smooth="yes"/>
      <point x="1128" y="791" type="line" smooth="yes"/>
      <point x="1128" y="1111"/>
      <point x="964" y="1301"/>
    </contour>
  </outline>
</glyph>
<glyph name="YaMatraI.tm" format="2">
  <advance width="1999"/>
  <note>
YaMatraI.tm
</note>
  <outline>
    <contour>
      <point x="908" y="0" type="line"/>
      <point x="908" y="258" type="line"/>
      <point x="824" y="258" type="line"/>
      <point x="824" y="1189" type="line"/>
      <point x="526" y="1189" type="line"/>
      <point x="526" y="342" type="line" smooth="yes"/>
      <point x="526" y="264"/>
      <point x="509" y="233"/>
      <point x="458" y="233" type="curve" smooth="yes"/>
      <point x="411" y="233"/>
      <point x="386" y="264"/>
      <point x="386" y="342" type="curve" smooth="yes"/>
      <point x="386" y="1189" type="line"/>
      <point x="92" y="1189" type="line"/>
      <point x="92" y="324" type="line" smooth="yes"/>
      <point x="92" y="79"/>
      <point x="184" y="-25"/>
      <point x="362" y="-25" type="curve" smooth="yes"/>
      <point x="517" y="-25"/>
      <point x="593" y="51"/>
      <point x="611" y="181" type="curve"/>
      <point x="618" y="181" type="line"/>
      <point x="618" y="0" type="line"/>
    </contour>
    <contour>
      <point x="1141" y="1189" type="line"/>
      <point x="1141" y="258" type="line"/>
      <point x="876" y="258" type="line"/>
      <point x="876" y="0" type="line"/>
      <point x="1431" y="0" type="line"/>
      <point x="1431" y="1189" type="line"/>
    </contour>
    <contour>
      <point x="1387" y="1761" type="curve" smooth="yes"/>
      <point x="1061" y="1761"/>
      <point x="886" y="1593"/>
      <point x="886" y="1349" type="curve" smooth="yes"/>
      <point x="886" y="1345" type="line" smooth="yes"/>
      <point x="886" y="1133"/>
      <point x="994" y="981"/>
      <point x="1256" y="964" type="curve"/>
      <point x="1369" y="1189" type="line"/>
      <point x="1233" y="1189"/>
      <point x="1181" y="1249"/>
      <point x="1181" y="1336" type="curve" smooth="yes"/>
      <point x="1181" y="1340" type="line" smooth="yes"/>
      <point x="1181" y="1437"/>
      <point x="1248" y="1500"/>
      <point x="1387" y="1500" type="curve" smooth="yes"/>
      <point x="1553" y="1500"/>
      <point x="1613" y="1432"/>
      <point x="1613" y="1268" type="curve" smooth="yes"/>
      <point x="1613" y="0" type="line"/>
      <point x="1907" y="0" type="line"/>
      <point x="1907" y="1246" type="line" smooth="yes"/>
      <point x="1907" y="1592"/>
      <point x="1756" y="1761"/>
    </contour>
  </outline>
</glyph>
<glyph name="YaMatraIi.tm" format="2">
  <advance width="1550"/>
  <note>
YaMatraIi.tm
</note>
  <outline>
    <contour>
      <point x="1459" y="1189" type="line"/>
      <point x="1168" y="1189" type="line"/>
      <point x="1168" y="258" type="line"/>
      <point x="903" y="258" type="line"/>
      <point x="903" y="0" type="line"/>
      <point x="1459" y="0" type="line"/>
    </contour>
    <contour>
      <point x="1187" y="1910" type="curve" smooth="yes"/>
      <point x="955" y="1910"/>
      <point x="852" y="1776"/>
      <point x="852" y="1549" type="curve" smooth="yes"/>
      <point x="852" y="1363" type="line" smooth="yes"/>
      <point x="852" y="1098"/>
      <point x="916" y="933"/>
      <point x="1142" y="933" type="curve" smooth="yes"/>
      <point x="1229" y="933" type="line"/>
      <point x="1229" y="1189" type="line"/>
      <point x="1211" y="1189" type="line"/>
      <point x="1154" y="1189"/>
      <point x="1133" y="1235"/>
      <point x="1133" y="1327" type="curve"/>
      <point x="1133" y="1478" type="line"/>
      <point x="1133" y="1612" type="line" smooth="yes"/>
      <point x="1133" y="1656"/>
      <point x="1150" y="1680"/>
      <point x="1187" y="1680" type="curve" smooth="yes"/>
      <point x="1222" y="1680"/>
      <point x="1236" y="1656"/>
      <point x="1236" y="1612" type="curve" smooth="yes"/>
      <point x="1236" y="1522" type="line" smooth="yes"/>
      <point x="1236" y="1479"/>
      <point x="1223" y="1457"/>
      <point x="1187" y="1457" type="curve" smooth="yes"/>
      <point x="1165" y="1457"/>
      <point x="1141" y="1470"/>
      <point x="1131" y="1492" type="curve"/>
      <point x="1122" y="1492" type="line"/>
      <point x="1131" y="1408" type="line"/>
      <point x="1150" y="1408" type="line"/>
      <point x="1185" y="1292" type="line"/>
      <point x="1215" y="1268"/>
      <point x="1263" y="1253"/>
      <point x="1320" y="1253" type="curve" smooth="yes"/>
      <point x="1446" y="1253"/>
      <point x="1512" y="1338"/>
      <point x="1512" y="1511" type="curve" smooth="yes"/>
      <point x="1512" y="1584" type="line" smooth="yes"/>
      <point x="1512" y="1788"/>
      <point x="1418" y="1910"/>
    </contour>
    <contour>
      <point x="908" y="0" type="line"/>
      <point x="908" y="258" type="line"/>
      <point x="824" y="258" type="line"/>
      <point x="824" y="1189" type="line"/>
      <point x="526" y="1189" type="line"/>
      <point x="526" y="332" type="line" smooth="yes"/>
      <point x="526" y="254"/>
      <point x="509" y="223"/>
      <point x="458" y="223" type="curve" smooth="yes"/>
      <point x="411" y="223"/>
      <point x="386" y="254"/>
      <point x="386" y="332" type="curve" smooth="yes"/>
      <point x="386" y="1189" type="line"/>
      <point x="92" y="1189" type="line"/>
      <point x="92" y="314" type="line" smooth="yes"/>
      <point x="92" y="69"/>
      <point x="184" y="-35"/>
      <point x="362" y="-35" type="curve" smooth="yes"/>
      <point x="517" y="-35"/>
      <point x="593" y="45"/>
      <point x="611" y="181" type="curve"/>
      <point x="618" y="181" type="line"/>
      <point x="618" y="0" type="line"/>
    </contour>
  </outline>
</glyph>
